<svg width="327" height="439" viewBox="0 0 327 439" fill="none" xmlns="http://www.w3.org/2000/svg">
<path fill-rule="evenodd" clip-rule="evenodd" d="M9.87819 307.101C9.87819 309.571 7.6672 311.572 4.93697 311.572C2.211 311.572 0 309.571 0 307.101C0 304.632 2.211 302.63 4.93697 302.63C7.6672 302.63 9.87819 304.632 9.87819 307.101Z" fill="#EFEFEF" fill-opacity="0.62"/>
<path fill-rule="evenodd" clip-rule="evenodd" d="M39.513 307.101C39.513 309.571 37.302 311.572 34.5728 311.572C31.8458 311.572 29.6348 309.571 29.6348 307.101C29.6348 304.631 31.8458 302.63 34.5728 302.63C37.302 302.63 39.513 304.631 39.513 307.101Z" fill="#EFEFEF" fill-opacity="0.62"/>
<path fill-rule="evenodd" clip-rule="evenodd" d="M66.6778 307.101C66.6778 309.571 64.4663 311.572 61.7387 311.572C59.01 311.572 56.7996 309.571 56.7996 307.101C56.7996 304.631 59.01 302.63 61.7387 302.63C64.4663 302.63 66.6778 304.631 66.6778 307.101Z" fill="#EFEFEF" fill-opacity="0.62"/>
<path fill-rule="evenodd" clip-rule="evenodd" d="M96.3128 307.101C96.3128 309.571 94.1013 311.572 91.3715 311.572C88.6439 311.572 86.4346 309.571 86.4346 307.101C86.4346 304.631 88.6439 302.63 91.3715 302.63C94.1013 302.63 96.3128 304.631 96.3128 307.101Z" fill="#EFEFEF" fill-opacity="0.62"/>
<path fill-rule="evenodd" clip-rule="evenodd" d="M123.478 307.101C123.478 309.571 121.268 311.572 118.537 311.572C115.81 311.572 113.599 309.571 113.599 307.101C113.599 304.631 115.81 302.63 118.537 302.63C121.268 302.63 123.478 304.631 123.478 307.101Z" fill="#EFEFEF" fill-opacity="0.62"/>
<path fill-rule="evenodd" clip-rule="evenodd" d="M9.87819 331.692C9.87819 334.162 7.6672 336.163 4.93697 336.163C2.211 336.163 0 334.162 0 331.692C0 329.223 2.211 327.221 4.93697 327.221C7.6672 327.221 9.87819 329.223 9.87819 331.692Z" fill="#EFEFEF" fill-opacity="0.62"/>
<path fill-rule="evenodd" clip-rule="evenodd" d="M39.513 331.692C39.513 334.162 37.302 336.163 34.5728 336.163C31.8458 336.163 29.6348 334.162 29.6348 331.692C29.6348 329.223 31.8458 327.221 34.5728 327.221C37.302 327.221 39.513 329.223 39.513 331.692Z" fill="#EFEFEF" fill-opacity="0.62"/>
<path fill-rule="evenodd" clip-rule="evenodd" d="M66.6778 331.692C66.6778 334.162 64.4663 336.163 61.7387 336.163C59.01 336.163 56.7996 334.162 56.7996 331.692C56.7996 329.223 59.01 327.221 61.7387 327.221C64.4663 327.221 66.6778 329.223 66.6778 331.692Z" fill="#EFEFEF" fill-opacity="0.62"/>
<path fill-rule="evenodd" clip-rule="evenodd" d="M96.3128 331.692C96.3128 334.162 94.1013 336.163 91.3715 336.163C88.6439 336.163 86.4346 334.162 86.4346 331.692C86.4346 329.223 88.6439 327.221 91.3715 327.221C94.1013 327.221 96.3128 329.223 96.3128 331.692Z" fill="#EFEFEF" fill-opacity="0.62"/>
<path fill-rule="evenodd" clip-rule="evenodd" d="M123.478 331.692C123.478 334.162 121.268 336.163 118.537 336.163C115.81 336.163 113.599 334.162 113.599 331.692C113.599 329.223 115.81 327.221 118.537 327.221C121.268 327.221 123.478 329.223 123.478 331.692Z" fill="#EFEFEF" fill-opacity="0.62"/>
<path fill-rule="evenodd" clip-rule="evenodd" d="M9.87819 359.638C9.87819 362.723 7.6672 365.226 4.93697 365.226C2.211 365.226 0 362.723 0 359.638C0 356.551 2.211 354.048 4.93697 354.048C7.6672 354.048 9.87819 356.551 9.87819 359.638Z" fill="#EFEFEF" fill-opacity="0.62"/>
<path fill-rule="evenodd" clip-rule="evenodd" d="M39.513 359.638C39.513 362.723 37.302 365.226 34.5728 365.226C31.8458 365.226 29.6348 362.723 29.6348 359.638C29.6348 356.551 31.8458 354.048 34.5728 354.048C37.302 354.048 39.513 356.551 39.513 359.638Z" fill="#EFEFEF" fill-opacity="0.62"/>
<path fill-rule="evenodd" clip-rule="evenodd" d="M66.6778 359.638C66.6778 362.723 64.4663 365.226 61.7387 365.226C59.01 365.226 56.7996 362.723 56.7996 359.638C56.7996 356.551 59.01 354.048 61.7387 354.048C64.4663 354.048 66.6778 356.551 66.6778 359.638Z" fill="#EFEFEF" fill-opacity="0.62"/>
<path fill-rule="evenodd" clip-rule="evenodd" d="M96.3128 359.638C96.3128 362.723 94.1013 365.226 91.3715 365.226C88.6439 365.226 86.4346 362.723 86.4346 359.638C86.4346 356.551 88.6439 354.048 91.3715 354.048C94.1013 354.048 96.3128 356.551 96.3128 359.638Z" fill="#EFEFEF" fill-opacity="0.62"/>
<path fill-rule="evenodd" clip-rule="evenodd" d="M123.478 359.638C123.478 362.723 121.268 365.226 118.537 365.226C115.81 365.226 113.599 362.723 113.599 359.638C113.599 356.551 115.81 354.048 118.537 354.048C121.268 354.048 123.478 356.551 123.478 359.638Z" fill="#EFEFEF" fill-opacity="0.62"/>
<path fill-rule="evenodd" clip-rule="evenodd" d="M9.87819 384.228C9.87819 387.314 7.6672 389.817 4.93697 389.817C2.211 389.817 0 387.314 0 384.228C0 381.142 2.211 378.639 4.93697 378.639C7.6672 378.639 9.87819 381.142 9.87819 384.228Z" fill="#EFEFEF" fill-opacity="0.62"/>
<path fill-rule="evenodd" clip-rule="evenodd" d="M39.513 384.228C39.513 387.314 37.302 389.817 34.5728 389.817C31.8458 389.817 29.6348 387.314 29.6348 384.228C29.6348 381.142 31.8458 378.639 34.5728 378.639C37.302 378.639 39.513 381.142 39.513 384.228Z" fill="#EFEFEF" fill-opacity="0.62"/>
<path fill-rule="evenodd" clip-rule="evenodd" d="M66.6778 384.228C66.6778 387.314 64.4663 389.817 61.7387 389.817C59.01 389.817 56.7996 387.314 56.7996 384.228C56.7996 381.142 59.01 378.639 61.7387 378.639C64.4663 378.639 66.6778 381.142 66.6778 384.228Z" fill="#EFEFEF" fill-opacity="0.62"/>
<path fill-rule="evenodd" clip-rule="evenodd" d="M96.3128 384.228C96.3128 387.314 94.1013 389.817 91.3715 389.817C88.6439 389.817 86.4346 387.314 86.4346 384.228C86.4346 381.142 88.6439 378.639 91.3715 378.639C94.1013 378.639 96.3128 381.142 96.3128 384.228Z" fill="#EFEFEF" fill-opacity="0.62"/>
<path fill-rule="evenodd" clip-rule="evenodd" d="M123.478 384.228C123.478 387.314 121.268 389.817 118.537 389.817C115.81 389.817 113.599 387.314 113.599 384.228C113.599 381.142 115.81 378.639 118.537 378.639C121.268 378.639 123.478 381.142 123.478 384.228Z" fill="#EFEFEF" fill-opacity="0.62"/>
<path fill-rule="evenodd" clip-rule="evenodd" d="M9.87819 409.937C9.87819 412.406 7.6672 414.409 4.93697 414.409C2.211 414.409 0 412.406 0 409.937C0 407.468 2.211 405.466 4.93697 405.466C7.6672 405.466 9.87819 407.468 9.87819 409.937Z" fill="#EFEFEF" fill-opacity="0.62"/>
<path fill-rule="evenodd" clip-rule="evenodd" d="M39.513 409.937C39.513 412.406 37.302 414.409 34.5728 414.409C31.8458 414.409 29.6348 412.406 29.6348 409.937C29.6348 407.468 31.8458 405.466 34.5728 405.466C37.302 405.466 39.513 407.468 39.513 409.937Z" fill="#EFEFEF" fill-opacity="0.62"/>
<path fill-rule="evenodd" clip-rule="evenodd" d="M66.6778 409.937C66.6778 412.406 64.4663 414.409 61.7387 414.409C59.01 414.409 56.7996 412.406 56.7996 409.937C56.7996 407.468 59.01 405.466 61.7387 405.466C64.4663 405.466 66.6778 407.468 66.6778 409.937Z" fill="#EFEFEF" fill-opacity="0.62"/>
<path fill-rule="evenodd" clip-rule="evenodd" d="M96.3128 409.937C96.3128 412.406 94.1013 414.409 91.3715 414.409C88.6439 414.409 86.4346 412.406 86.4346 409.937C86.4346 407.468 88.6439 405.466 91.3715 405.466C94.1013 405.466 96.3128 407.468 96.3128 409.937Z" fill="#EFEFEF" fill-opacity="0.62"/>
<path fill-rule="evenodd" clip-rule="evenodd" d="M123.478 409.937C123.478 412.406 121.268 414.409 118.537 414.409C115.81 414.409 113.599 412.406 113.599 409.937C113.599 407.468 115.81 405.466 118.537 405.466C121.268 405.466 123.478 407.468 123.478 409.937Z" fill="#EFEFEF" fill-opacity="0.62"/>
<path fill-rule="evenodd" clip-rule="evenodd" d="M9.87819 434.529C9.87819 436.999 7.6672 439 4.93697 439C2.211 439 0 436.999 0 434.529C0 432.059 2.211 430.058 4.93697 430.058C7.6672 430.058 9.87819 432.059 9.87819 434.529Z" fill="#EFEFEF" fill-opacity="0.62"/>
<path fill-rule="evenodd" clip-rule="evenodd" d="M39.513 434.529C39.513 436.999 37.302 439 34.5728 439C31.8458 439 29.6348 436.999 29.6348 434.529C29.6348 432.059 31.8458 430.058 34.5728 430.058C37.302 430.058 39.513 432.059 39.513 434.529Z" fill="#EFEFEF" fill-opacity="0.62"/>
<path fill-rule="evenodd" clip-rule="evenodd" d="M66.6778 434.529C66.6778 436.999 64.4663 439 61.7387 439C59.01 439 56.7996 436.999 56.7996 434.529C56.7996 432.059 59.01 430.058 61.7387 430.058C64.4663 430.058 66.6778 432.059 66.6778 434.529Z" fill="#EFEFEF" fill-opacity="0.62"/>
<path fill-rule="evenodd" clip-rule="evenodd" d="M96.3128 434.529C96.3128 436.999 94.1013 439 91.3715 439C88.6439 439 86.4346 436.999 86.4346 434.529C86.4346 432.059 88.6439 430.058 91.3715 430.058C94.1013 430.058 96.3128 432.059 96.3128 434.529Z" fill="#EFEFEF" fill-opacity="0.62"/>
<path fill-rule="evenodd" clip-rule="evenodd" d="M123.478 434.529C123.478 436.999 121.268 439 118.537 439C115.81 439 113.599 436.999 113.599 434.529C113.599 432.059 115.81 430.058 118.537 430.058C121.268 430.058 123.478 432.059 123.478 434.529Z" fill="#EFEFEF" fill-opacity="0.62"/>
<path fill-rule="evenodd" clip-rule="evenodd" d="M153.112 307.101C153.112 309.571 150.902 311.572 148.172 311.572C145.445 311.572 143.234 309.571 143.234 307.101C143.234 304.631 145.445 302.63 148.172 302.63C150.902 302.63 153.112 304.631 153.112 307.101Z" fill="#EFEFEF" fill-opacity="0.62"/>
<path fill-rule="evenodd" clip-rule="evenodd" d="M153.112 331.692C153.112 334.162 150.902 336.163 148.172 336.163C145.445 336.163 143.234 334.162 143.234 331.692C143.234 329.223 145.445 327.221 148.172 327.221C150.902 327.221 153.112 329.223 153.112 331.692Z" fill="#EFEFEF" fill-opacity="0.62"/>
<path fill-rule="evenodd" clip-rule="evenodd" d="M153.112 359.638C153.112 362.723 150.902 365.226 148.172 365.226C145.445 365.226 143.234 362.723 143.234 359.638C143.234 356.551 145.445 354.048 148.172 354.048C150.902 354.048 153.112 356.551 153.112 359.638Z" fill="#EFEFEF" fill-opacity="0.62"/>
<path fill-rule="evenodd" clip-rule="evenodd" d="M153.112 384.228C153.112 387.314 150.902 389.817 148.172 389.817C145.445 389.817 143.234 387.314 143.234 384.228C143.234 381.142 145.445 378.639 148.172 378.639C150.902 378.639 153.112 381.142 153.112 384.228Z" fill="#EFEFEF" fill-opacity="0.62"/>
<path fill-rule="evenodd" clip-rule="evenodd" d="M153.112 409.937C153.112 412.406 150.902 414.409 148.172 414.409C145.445 414.409 143.234 412.406 143.234 409.937C143.234 407.468 145.445 405.466 148.172 405.466C150.902 405.466 153.112 407.468 153.112 409.937Z" fill="#EFEFEF" fill-opacity="0.62"/>
<path fill-rule="evenodd" clip-rule="evenodd" d="M153.112 434.529C153.112 436.999 150.902 439 148.172 439C145.445 439 143.234 436.999 143.234 434.529C143.234 432.059 145.445 430.058 148.172 430.058C150.902 430.058 153.112 432.059 153.112 434.529Z" fill="#EFEFEF" fill-opacity="0.62"/>
<path fill-rule="evenodd" clip-rule="evenodd" d="M183.681 307.101C183.681 309.571 181.47 311.572 178.74 311.572C176.014 311.572 173.803 309.571 173.803 307.101C173.803 304.631 176.014 302.63 178.74 302.63C181.47 302.63 183.681 304.631 183.681 307.101Z" fill="#EFEFEF" fill-opacity="0.62"/>
<path fill-rule="evenodd" clip-rule="evenodd" d="M213.315 307.101C213.315 309.571 211.104 311.572 208.375 311.572C205.648 311.572 203.437 309.571 203.437 307.101C203.437 304.631 205.648 302.63 208.375 302.63C211.104 302.63 213.315 304.631 213.315 307.101Z" fill="#EFEFEF" fill-opacity="0.62"/>
<path fill-rule="evenodd" clip-rule="evenodd" d="M240.481 307.101C240.481 309.571 238.27 311.572 235.542 311.572C232.813 311.572 230.603 309.571 230.603 307.101C230.603 304.631 232.813 302.63 235.542 302.63C238.27 302.63 240.481 304.631 240.481 307.101Z" fill="#EFEFEF" fill-opacity="0.62"/>
<path fill-rule="evenodd" clip-rule="evenodd" d="M270.115 307.101C270.115 309.571 267.903 311.572 265.174 311.572C262.446 311.572 260.237 309.571 260.237 307.101C260.237 304.631 262.446 302.63 265.174 302.63C267.903 302.63 270.115 304.631 270.115 307.101Z" fill="#EFEFEF" fill-opacity="0.62"/>
<path fill-rule="evenodd" clip-rule="evenodd" d="M297.281 307.101C297.281 309.571 295.071 311.572 292.34 311.572C289.613 311.572 287.402 309.571 287.402 307.101C287.402 304.631 289.613 302.63 292.34 302.63C295.071 302.63 297.281 304.631 297.281 307.101Z" fill="#EFEFEF" fill-opacity="0.62"/>
<path fill-rule="evenodd" clip-rule="evenodd" d="M183.681 331.692C183.681 334.162 181.47 336.163 178.74 336.163C176.014 336.163 173.803 334.162 173.803 331.692C173.803 329.223 176.014 327.221 178.74 327.221C181.47 327.221 183.681 329.223 183.681 331.692Z" fill="#EFEFEF" fill-opacity="0.62"/>
<path fill-rule="evenodd" clip-rule="evenodd" d="M213.315 331.692C213.315 334.162 211.104 336.163 208.375 336.163C205.648 336.163 203.437 334.162 203.437 331.692C203.437 329.223 205.648 327.221 208.375 327.221C211.104 327.221 213.315 329.223 213.315 331.692Z" fill="#EFEFEF" fill-opacity="0.62"/>
<path fill-rule="evenodd" clip-rule="evenodd" d="M240.481 331.692C240.481 334.162 238.27 336.163 235.542 336.163C232.813 336.163 230.603 334.162 230.603 331.692C230.603 329.223 232.813 327.221 235.542 327.221C238.27 327.221 240.481 329.223 240.481 331.692Z" fill="#EFEFEF" fill-opacity="0.62"/>
<path fill-rule="evenodd" clip-rule="evenodd" d="M270.115 331.692C270.115 334.162 267.903 336.163 265.174 336.163C262.446 336.163 260.237 334.162 260.237 331.692C260.237 329.223 262.446 327.221 265.174 327.221C267.903 327.221 270.115 329.223 270.115 331.692Z" fill="#EFEFEF" fill-opacity="0.62"/>
<path fill-rule="evenodd" clip-rule="evenodd" d="M297.281 331.692C297.281 334.162 295.071 336.163 292.34 336.163C289.613 336.163 287.402 334.162 287.402 331.692C287.402 329.223 289.613 327.221 292.34 327.221C295.071 327.221 297.281 329.223 297.281 331.692Z" fill="#EFEFEF" fill-opacity="0.62"/>
<path fill-rule="evenodd" clip-rule="evenodd" d="M183.681 359.638C183.681 362.723 181.47 365.226 178.74 365.226C176.014 365.226 173.803 362.723 173.803 359.638C173.803 356.551 176.014 354.048 178.74 354.048C181.47 354.048 183.681 356.551 183.681 359.638Z" fill="#EFEFEF" fill-opacity="0.62"/>
<path fill-rule="evenodd" clip-rule="evenodd" d="M213.315 359.638C213.315 362.723 211.104 365.226 208.375 365.226C205.648 365.226 203.437 362.723 203.437 359.638C203.437 356.551 205.648 354.048 208.375 354.048C211.104 354.048 213.315 356.551 213.315 359.638Z" fill="#EFEFEF" fill-opacity="0.62"/>
<path fill-rule="evenodd" clip-rule="evenodd" d="M240.481 359.638C240.481 362.723 238.27 365.226 235.542 365.226C232.813 365.226 230.603 362.723 230.603 359.638C230.603 356.551 232.813 354.048 235.542 354.048C238.27 354.048 240.481 356.551 240.481 359.638Z" fill="#EFEFEF" fill-opacity="0.62"/>
<path fill-rule="evenodd" clip-rule="evenodd" d="M270.115 359.638C270.115 362.723 267.903 365.226 265.174 365.226C262.446 365.226 260.237 362.723 260.237 359.638C260.237 356.551 262.446 354.048 265.174 354.048C267.903 354.048 270.115 356.551 270.115 359.638Z" fill="#EFEFEF" fill-opacity="0.62"/>
<path fill-rule="evenodd" clip-rule="evenodd" d="M297.281 359.638C297.281 362.723 295.071 365.226 292.34 365.226C289.613 365.226 287.402 362.723 287.402 359.638C287.402 356.551 289.613 354.048 292.34 354.048C295.071 354.048 297.281 356.551 297.281 359.638Z" fill="#EFEFEF" fill-opacity="0.62"/>
<path fill-rule="evenodd" clip-rule="evenodd" d="M183.681 384.228C183.681 387.314 181.47 389.817 178.74 389.817C176.014 389.817 173.803 387.314 173.803 384.228C173.803 381.142 176.014 378.639 178.74 378.639C181.47 378.639 183.681 381.142 183.681 384.228Z" fill="#EFEFEF" fill-opacity="0.62"/>
<path fill-rule="evenodd" clip-rule="evenodd" d="M213.315 384.228C213.315 387.314 211.104 389.817 208.375 389.817C205.648 389.817 203.437 387.314 203.437 384.228C203.437 381.142 205.648 378.639 208.375 378.639C211.104 378.639 213.315 381.142 213.315 384.228Z" fill="#EFEFEF" fill-opacity="0.62"/>
<path fill-rule="evenodd" clip-rule="evenodd" d="M240.481 384.228C240.481 387.314 238.27 389.817 235.542 389.817C232.813 389.817 230.603 387.314 230.603 384.228C230.603 381.142 232.813 378.639 235.542 378.639C238.27 378.639 240.481 381.142 240.481 384.228Z" fill="#EFEFEF" fill-opacity="0.62"/>
<path fill-rule="evenodd" clip-rule="evenodd" d="M270.115 384.228C270.115 387.314 267.903 389.817 265.174 389.817C262.446 389.817 260.237 387.314 260.237 384.228C260.237 381.142 262.446 378.639 265.174 378.639C267.903 378.639 270.115 381.142 270.115 384.228Z" fill="#EFEFEF" fill-opacity="0.62"/>
<path fill-rule="evenodd" clip-rule="evenodd" d="M297.281 384.228C297.281 387.314 295.071 389.817 292.34 389.817C289.613 389.817 287.402 387.314 287.402 384.228C287.402 381.142 289.613 378.639 292.34 378.639C295.071 378.639 297.281 381.142 297.281 384.228Z" fill="#EFEFEF" fill-opacity="0.62"/>
<path fill-rule="evenodd" clip-rule="evenodd" d="M183.681 409.937C183.681 412.406 181.47 414.409 178.74 414.409C176.014 414.409 173.803 412.406 173.803 409.937C173.803 407.468 176.014 405.466 178.74 405.466C181.47 405.466 183.681 407.468 183.681 409.937Z" fill="#EFEFEF" fill-opacity="0.62"/>
<path fill-rule="evenodd" clip-rule="evenodd" d="M213.315 409.937C213.315 412.406 211.104 414.409 208.375 414.409C205.648 414.409 203.437 412.406 203.437 409.937C203.437 407.468 205.648 405.466 208.375 405.466C211.104 405.466 213.315 407.468 213.315 409.937Z" fill="#EFEFEF" fill-opacity="0.62"/>
<path fill-rule="evenodd" clip-rule="evenodd" d="M240.481 409.937C240.481 412.406 238.27 414.409 235.542 414.409C232.813 414.409 230.603 412.406 230.603 409.937C230.603 407.468 232.813 405.466 235.542 405.466C238.27 405.466 240.481 407.468 240.481 409.937Z" fill="#EFEFEF" fill-opacity="0.62"/>
<path fill-rule="evenodd" clip-rule="evenodd" d="M270.115 409.937C270.115 412.406 267.903 414.409 265.174 414.409C262.446 414.409 260.237 412.406 260.237 409.937C260.237 407.468 262.446 405.466 265.174 405.466C267.903 405.466 270.115 407.468 270.115 409.937Z" fill="#EFEFEF" fill-opacity="0.62"/>
<path fill-rule="evenodd" clip-rule="evenodd" d="M297.281 409.937C297.281 412.406 295.071 414.409 292.34 414.409C289.613 414.409 287.402 412.406 287.402 409.937C287.402 407.468 289.613 405.466 292.34 405.466C295.071 405.466 297.281 407.468 297.281 409.937Z" fill="#EFEFEF" fill-opacity="0.62"/>
<path fill-rule="evenodd" clip-rule="evenodd" d="M183.681 434.529C183.681 436.999 181.47 439 178.74 439C176.014 439 173.803 436.999 173.803 434.529C173.803 432.059 176.014 430.058 178.74 430.058C181.47 430.058 183.681 432.059 183.681 434.529Z" fill="#EFEFEF" fill-opacity="0.62"/>
<path fill-rule="evenodd" clip-rule="evenodd" d="M213.315 434.529C213.315 436.999 211.104 439 208.375 439C205.648 439 203.437 436.999 203.437 434.529C203.437 432.059 205.648 430.058 208.375 430.058C211.104 430.058 213.315 432.059 213.315 434.529Z" fill="#EFEFEF" fill-opacity="0.62"/>
<path fill-rule="evenodd" clip-rule="evenodd" d="M240.481 434.529C240.481 436.999 238.27 439 235.542 439C232.813 439 230.603 436.999 230.603 434.529C230.603 432.059 232.813 430.058 235.542 430.058C238.27 430.058 240.481 432.059 240.481 434.529Z" fill="#EFEFEF" fill-opacity="0.62"/>
<path fill-rule="evenodd" clip-rule="evenodd" d="M270.115 434.529C270.115 436.999 267.903 439 265.174 439C262.446 439 260.237 436.999 260.237 434.529C260.237 432.059 262.446 430.058 265.174 430.058C267.903 430.058 270.115 432.059 270.115 434.529Z" fill="#EFEFEF" fill-opacity="0.62"/>
<path fill-rule="evenodd" clip-rule="evenodd" d="M297.281 434.529C297.281 436.999 295.071 439 292.34 439C289.613 439 287.402 436.999 287.402 434.529C287.402 432.059 289.613 430.058 292.34 430.058C295.071 430.058 297.281 432.059 297.281 434.529Z" fill="#EFEFEF" fill-opacity="0.62"/>
<path fill-rule="evenodd" clip-rule="evenodd" d="M326.915 307.101C326.915 309.571 324.705 311.572 321.975 311.572C319.248 311.572 317.037 309.571 317.037 307.101C317.037 304.631 319.248 302.63 321.975 302.63C324.705 302.63 326.915 304.631 326.915 307.101Z" fill="#EFEFEF" fill-opacity="0.62"/>
<path fill-rule="evenodd" clip-rule="evenodd" d="M326.915 331.692C326.915 334.162 324.705 336.163 321.975 336.163C319.248 336.163 317.037 334.162 317.037 331.692C317.037 329.223 319.248 327.221 321.975 327.221C324.705 327.221 326.915 329.223 326.915 331.692Z" fill="#EFEFEF" fill-opacity="0.62"/>
<path fill-rule="evenodd" clip-rule="evenodd" d="M326.915 359.638C326.915 362.723 324.705 365.226 321.975 365.226C319.248 365.226 317.037 362.723 317.037 359.638C317.037 356.551 319.248 354.048 321.975 354.048C324.705 354.048 326.915 356.551 326.915 359.638Z" fill="#EFEFEF" fill-opacity="0.62"/>
<path fill-rule="evenodd" clip-rule="evenodd" d="M326.915 384.228C326.915 387.314 324.705 389.817 321.975 389.817C319.248 389.817 317.037 387.314 317.037 384.228C317.037 381.142 319.248 378.639 321.975 378.639C324.705 378.639 326.915 381.142 326.915 384.228Z" fill="#EFEFEF" fill-opacity="0.62"/>
<path fill-rule="evenodd" clip-rule="evenodd" d="M326.915 409.937C326.915 412.406 324.705 414.409 321.975 414.409C319.248 414.409 317.037 412.406 317.037 409.937C317.037 407.468 319.248 405.466 321.975 405.466C324.705 405.466 326.915 407.468 326.915 409.937Z" fill="#EFEFEF" fill-opacity="0.62"/>
<path fill-rule="evenodd" clip-rule="evenodd" d="M326.915 434.529C326.915 436.999 324.705 439 321.975 439C319.248 439 317.037 436.999 317.037 434.529C317.037 432.059 319.248 430.058 321.975 430.058C324.705 430.058 326.915 432.059 326.915 434.529Z" fill="#EFEFEF" fill-opacity="0.62"/>
<path fill-rule="evenodd" clip-rule="evenodd" d="M9.87819 152.05C9.87819 154.52 7.6672 156.521 4.93697 156.521C2.211 156.521 0 154.52 0 152.05C0 149.581 2.211 147.579 4.93697 147.579C7.6672 147.579 9.87819 149.581 9.87819 152.05Z" fill="#EFEFEF" fill-opacity="0.62"/>
<path fill-rule="evenodd" clip-rule="evenodd" d="M39.513 152.05C39.513 154.519 37.302 156.521 34.5728 156.521C31.8458 156.521 29.6348 154.519 29.6348 152.05C29.6348 149.58 31.8458 147.579 34.5728 147.579C37.302 147.579 39.513 149.58 39.513 152.05Z" fill="#EFEFEF" fill-opacity="0.62"/>
<path fill-rule="evenodd" clip-rule="evenodd" d="M66.6778 152.05C66.6778 154.519 64.4663 156.521 61.7387 156.521C59.01 156.521 56.7996 154.519 56.7996 152.05C56.7996 149.58 59.01 147.579 61.7387 147.579C64.4663 147.579 66.6778 149.58 66.6778 152.05Z" fill="#EFEFEF" fill-opacity="0.62"/>
<path fill-rule="evenodd" clip-rule="evenodd" d="M96.3128 152.05C96.3128 154.519 94.1013 156.521 91.3715 156.521C88.6439 156.521 86.4346 154.519 86.4346 152.05C86.4346 149.58 88.6439 147.579 91.3715 147.579C94.1013 147.579 96.3128 149.58 96.3128 152.05Z" fill="#EFEFEF" fill-opacity="0.62"/>
<path fill-rule="evenodd" clip-rule="evenodd" d="M123.478 152.05C123.478 154.519 121.268 156.521 118.537 156.521C115.81 156.521 113.599 154.519 113.599 152.05C113.599 149.58 115.81 147.579 118.537 147.579C121.268 147.579 123.478 149.58 123.478 152.05Z" fill="#EFEFEF" fill-opacity="0.62"/>
<path fill-rule="evenodd" clip-rule="evenodd" d="M9.87819 176.641C9.87819 179.111 7.6672 181.112 4.93697 181.112C2.211 181.112 0 179.111 0 176.641C0 174.172 2.211 172.17 4.93697 172.17C7.6672 172.17 9.87819 174.172 9.87819 176.641Z" fill="#EFEFEF" fill-opacity="0.62"/>
<path fill-rule="evenodd" clip-rule="evenodd" d="M39.513 176.641C39.513 179.111 37.302 181.112 34.5728 181.112C31.8458 181.112 29.6348 179.111 29.6348 176.641C29.6348 174.172 31.8458 172.17 34.5728 172.17C37.302 172.17 39.513 174.172 39.513 176.641Z" fill="#EFEFEF" fill-opacity="0.62"/>
<path fill-rule="evenodd" clip-rule="evenodd" d="M66.6778 176.641C66.6778 179.111 64.4663 181.112 61.7387 181.112C59.01 181.112 56.7996 179.111 56.7996 176.641C56.7996 174.172 59.01 172.17 61.7387 172.17C64.4663 172.17 66.6778 174.172 66.6778 176.641Z" fill="#EFEFEF" fill-opacity="0.62"/>
<path fill-rule="evenodd" clip-rule="evenodd" d="M96.3128 176.641C96.3128 179.111 94.1013 181.112 91.3715 181.112C88.6439 181.112 86.4346 179.111 86.4346 176.641C86.4346 174.172 88.6439 172.17 91.3715 172.17C94.1013 172.17 96.3128 174.172 96.3128 176.641Z" fill="#EFEFEF" fill-opacity="0.62"/>
<path fill-rule="evenodd" clip-rule="evenodd" d="M123.478 176.641C123.478 179.111 121.268 181.112 118.537 181.112C115.81 181.112 113.599 179.111 113.599 176.641C113.599 174.172 115.81 172.17 118.537 172.17C121.268 172.17 123.478 174.172 123.478 176.641Z" fill="#EFEFEF" fill-opacity="0.62"/>
<path fill-rule="evenodd" clip-rule="evenodd" d="M9.87819 204.587C9.87819 207.672 7.6672 210.175 4.93697 210.175C2.211 210.175 0 207.672 0 204.587C0 201.5 2.211 198.997 4.93697 198.997C7.6672 198.997 9.87819 201.5 9.87819 204.587Z" fill="#EFEFEF" fill-opacity="0.62"/>
<path fill-rule="evenodd" clip-rule="evenodd" d="M39.513 204.587C39.513 207.672 37.302 210.175 34.5728 210.175C31.8458 210.175 29.6348 207.672 29.6348 204.587C29.6348 201.5 31.8458 198.997 34.5728 198.997C37.302 198.997 39.513 201.5 39.513 204.587Z" fill="#EFEFEF" fill-opacity="0.62"/>
<path fill-rule="evenodd" clip-rule="evenodd" d="M66.6778 204.587C66.6778 207.672 64.4663 210.175 61.7387 210.175C59.01 210.175 56.7996 207.672 56.7996 204.587C56.7996 201.5 59.01 198.997 61.7387 198.997C64.4663 198.997 66.6778 201.5 66.6778 204.587Z" fill="#EFEFEF" fill-opacity="0.62"/>
<path fill-rule="evenodd" clip-rule="evenodd" d="M96.3128 204.587C96.3128 207.672 94.1013 210.175 91.3715 210.175C88.6439 210.175 86.4346 207.672 86.4346 204.587C86.4346 201.5 88.6439 198.997 91.3715 198.997C94.1013 198.997 96.3128 201.5 96.3128 204.587Z" fill="#EFEFEF" fill-opacity="0.62"/>
<path fill-rule="evenodd" clip-rule="evenodd" d="M123.478 204.587C123.478 207.672 121.268 210.175 118.537 210.175C115.81 210.175 113.599 207.672 113.599 204.587C113.599 201.5 115.81 198.997 118.537 198.997C121.268 198.997 123.478 201.5 123.478 204.587Z" fill="#EFEFEF" fill-opacity="0.62"/>
<path fill-rule="evenodd" clip-rule="evenodd" d="M9.87819 229.176C9.87819 232.263 7.6672 234.766 4.93697 234.766C2.211 234.766 0 232.263 0 229.176C0 226.091 2.211 223.588 4.93697 223.588C7.6672 223.588 9.87819 226.091 9.87819 229.176Z" fill="#EFEFEF" fill-opacity="0.62"/>
<path fill-rule="evenodd" clip-rule="evenodd" d="M39.513 229.176C39.513 232.263 37.302 234.766 34.5728 234.766C31.8458 234.766 29.6348 232.263 29.6348 229.176C29.6348 226.091 31.8458 223.588 34.5728 223.588C37.302 223.588 39.513 226.091 39.513 229.176Z" fill="#EFEFEF" fill-opacity="0.62"/>
<path fill-rule="evenodd" clip-rule="evenodd" d="M66.6778 229.176C66.6778 232.263 64.4663 234.766 61.7387 234.766C59.01 234.766 56.7996 232.263 56.7996 229.176C56.7996 226.091 59.01 223.588 61.7387 223.588C64.4663 223.588 66.6778 226.091 66.6778 229.176Z" fill="#EFEFEF" fill-opacity="0.62"/>
<path fill-rule="evenodd" clip-rule="evenodd" d="M96.3128 229.176C96.3128 232.263 94.1013 234.766 91.3715 234.766C88.6439 234.766 86.4346 232.263 86.4346 229.176C86.4346 226.091 88.6439 223.588 91.3715 223.588C94.1013 223.588 96.3128 226.091 96.3128 229.176Z" fill="#EFEFEF" fill-opacity="0.62"/>
<path fill-rule="evenodd" clip-rule="evenodd" d="M123.478 229.176C123.478 232.263 121.268 234.766 118.537 234.766C115.81 234.766 113.599 232.263 113.599 229.176C113.599 226.091 115.81 223.588 118.537 223.588C121.268 223.588 123.478 226.091 123.478 229.176Z" fill="#EFEFEF" fill-opacity="0.62"/>
<path fill-rule="evenodd" clip-rule="evenodd" d="M9.87819 254.886C9.87819 257.355 7.6672 259.357 4.93697 259.357C2.211 259.357 0 257.355 0 254.886C0 252.417 2.211 250.415 4.93697 250.415C7.6672 250.415 9.87819 252.417 9.87819 254.886Z" fill="#EFEFEF" fill-opacity="0.62"/>
<path fill-rule="evenodd" clip-rule="evenodd" d="M39.513 254.886C39.513 257.355 37.302 259.357 34.5728 259.357C31.8458 259.357 29.6348 257.355 29.6348 254.886C29.6348 252.417 31.8458 250.415 34.5728 250.415C37.302 250.415 39.513 252.417 39.513 254.886Z" fill="#EFEFEF" fill-opacity="0.62"/>
<path fill-rule="evenodd" clip-rule="evenodd" d="M66.6778 254.886C66.6778 257.355 64.4663 259.357 61.7387 259.357C59.01 259.357 56.7996 257.355 56.7996 254.886C56.7996 252.417 59.01 250.415 61.7387 250.415C64.4663 250.415 66.6778 252.417 66.6778 254.886Z" fill="#EFEFEF" fill-opacity="0.62"/>
<path fill-rule="evenodd" clip-rule="evenodd" d="M96.3128 254.886C96.3128 257.355 94.1013 259.357 91.3715 259.357C88.6439 259.357 86.4346 257.355 86.4346 254.886C86.4346 252.417 88.6439 250.415 91.3715 250.415C94.1013 250.415 96.3128 252.417 96.3128 254.886Z" fill="#EFEFEF" fill-opacity="0.62"/>
<path fill-rule="evenodd" clip-rule="evenodd" d="M123.478 254.886C123.478 257.355 121.268 259.357 118.537 259.357C115.81 259.357 113.599 257.355 113.599 254.886C113.599 252.417 115.81 250.415 118.537 250.415C121.268 250.415 123.478 252.417 123.478 254.886Z" fill="#EFEFEF" fill-opacity="0.62"/>
<path fill-rule="evenodd" clip-rule="evenodd" d="M9.87819 279.478C9.87819 281.947 7.6672 283.949 4.93697 283.949C2.211 283.949 0 281.947 0 279.478C0 277.008 2.211 275.007 4.93697 275.007C7.6672 275.007 9.87819 277.008 9.87819 279.478Z" fill="#EFEFEF" fill-opacity="0.62"/>
<path fill-rule="evenodd" clip-rule="evenodd" d="M39.513 279.478C39.513 281.947 37.302 283.949 34.5728 283.949C31.8458 283.949 29.6348 281.947 29.6348 279.478C29.6348 277.008 31.8458 275.007 34.5728 275.007C37.302 275.007 39.513 277.008 39.513 279.478Z" fill="#EFEFEF" fill-opacity="0.62"/>
<path fill-rule="evenodd" clip-rule="evenodd" d="M66.6778 279.478C66.6778 281.947 64.4663 283.949 61.7387 283.949C59.01 283.949 56.7996 281.947 56.7996 279.478C56.7996 277.008 59.01 275.007 61.7387 275.007C64.4663 275.007 66.6778 277.008 66.6778 279.478Z" fill="#EFEFEF" fill-opacity="0.62"/>
<path fill-rule="evenodd" clip-rule="evenodd" d="M96.3128 279.478C96.3128 281.947 94.1013 283.949 91.3715 283.949C88.6439 283.949 86.4346 281.947 86.4346 279.478C86.4346 277.008 88.6439 275.007 91.3715 275.007C94.1013 275.007 96.3128 277.008 96.3128 279.478Z" fill="#EFEFEF" fill-opacity="0.62"/>
<path fill-rule="evenodd" clip-rule="evenodd" d="M123.478 279.478C123.478 281.947 121.268 283.949 118.537 283.949C115.81 283.949 113.599 281.947 113.599 279.478C113.599 277.008 115.81 275.007 118.537 275.007C121.268 275.007 123.478 277.008 123.478 279.478Z" fill="#EFEFEF" fill-opacity="0.62"/>
<path fill-rule="evenodd" clip-rule="evenodd" d="M153.112 152.05C153.112 154.519 150.902 156.521 148.172 156.521C145.445 156.521 143.234 154.519 143.234 152.05C143.234 149.58 145.445 147.579 148.172 147.579C150.902 147.579 153.112 149.58 153.112 152.05Z" fill="#EFEFEF" fill-opacity="0.62"/>
<path fill-rule="evenodd" clip-rule="evenodd" d="M153.112 176.641C153.112 179.111 150.902 181.112 148.172 181.112C145.445 181.112 143.234 179.111 143.234 176.641C143.234 174.172 145.445 172.17 148.172 172.17C150.902 172.17 153.112 174.172 153.112 176.641Z" fill="#EFEFEF" fill-opacity="0.62"/>
<path fill-rule="evenodd" clip-rule="evenodd" d="M153.112 204.587C153.112 207.672 150.902 210.175 148.172 210.175C145.445 210.175 143.234 207.672 143.234 204.587C143.234 201.5 145.445 198.997 148.172 198.997C150.902 198.997 153.112 201.5 153.112 204.587Z" fill="#EFEFEF" fill-opacity="0.62"/>
<path fill-rule="evenodd" clip-rule="evenodd" d="M153.112 229.176C153.112 232.263 150.902 234.766 148.172 234.766C145.445 234.766 143.234 232.263 143.234 229.176C143.234 226.091 145.445 223.588 148.172 223.588C150.902 223.588 153.112 226.091 153.112 229.176Z" fill="#EFEFEF" fill-opacity="0.62"/>
<path fill-rule="evenodd" clip-rule="evenodd" d="M153.112 254.886C153.112 257.355 150.902 259.357 148.172 259.357C145.445 259.357 143.234 257.355 143.234 254.886C143.234 252.417 145.445 250.415 148.172 250.415C150.902 250.415 153.112 252.417 153.112 254.886Z" fill="#EFEFEF" fill-opacity="0.62"/>
<path fill-rule="evenodd" clip-rule="evenodd" d="M153.112 279.478C153.112 281.947 150.902 283.949 148.172 283.949C145.445 283.949 143.234 281.947 143.234 279.478C143.234 277.008 145.445 275.007 148.172 275.007C150.902 275.007 153.112 277.008 153.112 279.478Z" fill="#EFEFEF" fill-opacity="0.62"/>
<path fill-rule="evenodd" clip-rule="evenodd" d="M183.681 152.05C183.681 154.52 181.47 156.521 178.74 156.521C176.014 156.521 173.803 154.52 173.803 152.05C173.803 149.58 176.014 147.579 178.74 147.579C181.47 147.579 183.681 149.58 183.681 152.05Z" fill="#EFEFEF" fill-opacity="0.62"/>
<path fill-rule="evenodd" clip-rule="evenodd" d="M213.315 152.05C213.315 154.519 211.104 156.521 208.375 156.521C205.648 156.521 203.437 154.519 203.437 152.05C203.437 149.58 205.648 147.579 208.375 147.579C211.104 147.579 213.315 149.58 213.315 152.05Z" fill="#EFEFEF" fill-opacity="0.62"/>
<path fill-rule="evenodd" clip-rule="evenodd" d="M240.481 152.05C240.481 154.519 238.27 156.521 235.542 156.521C232.813 156.521 230.603 154.519 230.603 152.05C230.603 149.58 232.813 147.579 235.542 147.579C238.27 147.579 240.481 149.58 240.481 152.05Z" fill="#EFEFEF" fill-opacity="0.62"/>
<path fill-rule="evenodd" clip-rule="evenodd" d="M270.115 152.05C270.115 154.519 267.903 156.521 265.174 156.521C262.446 156.521 260.237 154.519 260.237 152.05C260.237 149.58 262.446 147.579 265.174 147.579C267.903 147.579 270.115 149.58 270.115 152.05Z" fill="#EFEFEF" fill-opacity="0.62"/>
<path fill-rule="evenodd" clip-rule="evenodd" d="M297.281 152.05C297.281 154.519 295.071 156.521 292.34 156.521C289.613 156.521 287.402 154.519 287.402 152.05C287.402 149.58 289.613 147.579 292.34 147.579C295.071 147.579 297.281 149.58 297.281 152.05Z" fill="#EFEFEF" fill-opacity="0.62"/>
<path fill-rule="evenodd" clip-rule="evenodd" d="M183.681 176.641C183.681 179.111 181.47 181.112 178.74 181.112C176.014 181.112 173.803 179.111 173.803 176.641C173.803 174.172 176.014 172.17 178.74 172.17C181.47 172.17 183.681 174.172 183.681 176.641Z" fill="#EFEFEF" fill-opacity="0.62"/>
<path fill-rule="evenodd" clip-rule="evenodd" d="M213.315 176.641C213.315 179.111 211.104 181.112 208.375 181.112C205.648 181.112 203.437 179.111 203.437 176.641C203.437 174.172 205.648 172.17 208.375 172.17C211.104 172.17 213.315 174.172 213.315 176.641Z" fill="#EFEFEF" fill-opacity="0.62"/>
<path fill-rule="evenodd" clip-rule="evenodd" d="M240.481 176.641C240.481 179.111 238.27 181.112 235.542 181.112C232.813 181.112 230.603 179.111 230.603 176.641C230.603 174.172 232.813 172.17 235.542 172.17C238.27 172.17 240.481 174.172 240.481 176.641Z" fill="#EFEFEF" fill-opacity="0.62"/>
<path fill-rule="evenodd" clip-rule="evenodd" d="M270.115 176.641C270.115 179.111 267.903 181.112 265.174 181.112C262.446 181.112 260.237 179.111 260.237 176.641C260.237 174.172 262.446 172.17 265.174 172.17C267.903 172.17 270.115 174.172 270.115 176.641Z" fill="#EFEFEF" fill-opacity="0.62"/>
<path fill-rule="evenodd" clip-rule="evenodd" d="M297.281 176.641C297.281 179.111 295.071 181.112 292.34 181.112C289.613 181.112 287.402 179.111 287.402 176.641C287.402 174.172 289.613 172.17 292.34 172.17C295.071 172.17 297.281 174.172 297.281 176.641Z" fill="#EFEFEF" fill-opacity="0.62"/>
<path fill-rule="evenodd" clip-rule="evenodd" d="M183.681 204.587C183.681 207.672 181.47 210.175 178.74 210.175C176.014 210.175 173.803 207.672 173.803 204.587C173.803 201.5 176.014 198.997 178.74 198.997C181.47 198.997 183.681 201.5 183.681 204.587Z" fill="#EFEFEF" fill-opacity="0.62"/>
<path fill-rule="evenodd" clip-rule="evenodd" d="M213.315 204.587C213.315 207.672 211.104 210.175 208.375 210.175C205.648 210.175 203.437 207.672 203.437 204.587C203.437 201.5 205.648 198.997 208.375 198.997C211.104 198.997 213.315 201.5 213.315 204.587Z" fill="#EFEFEF" fill-opacity="0.62"/>
<path fill-rule="evenodd" clip-rule="evenodd" d="M240.481 204.587C240.481 207.672 238.27 210.175 235.542 210.175C232.813 210.175 230.603 207.672 230.603 204.587C230.603 201.5 232.813 198.997 235.542 198.997C238.27 198.997 240.481 201.5 240.481 204.587Z" fill="#EFEFEF" fill-opacity="0.62"/>
<path fill-rule="evenodd" clip-rule="evenodd" d="M270.115 204.587C270.115 207.672 267.903 210.175 265.174 210.175C262.446 210.175 260.237 207.672 260.237 204.587C260.237 201.5 262.446 198.997 265.174 198.997C267.903 198.997 270.115 201.5 270.115 204.587Z" fill="#EFEFEF" fill-opacity="0.62"/>
<path fill-rule="evenodd" clip-rule="evenodd" d="M297.281 204.587C297.281 207.672 295.071 210.175 292.34 210.175C289.613 210.175 287.402 207.672 287.402 204.587C287.402 201.5 289.613 198.997 292.34 198.997C295.071 198.997 297.281 201.5 297.281 204.587Z" fill="#EFEFEF" fill-opacity="0.62"/>
<path fill-rule="evenodd" clip-rule="evenodd" d="M183.681 229.176C183.681 232.263 181.47 234.766 178.74 234.766C176.014 234.766 173.803 232.263 173.803 229.176C173.803 226.091 176.014 223.588 178.74 223.588C181.47 223.588 183.681 226.091 183.681 229.176Z" fill="#EFEFEF" fill-opacity="0.62"/>
<path fill-rule="evenodd" clip-rule="evenodd" d="M213.315 229.176C213.315 232.263 211.104 234.766 208.375 234.766C205.648 234.766 203.437 232.263 203.437 229.176C203.437 226.091 205.648 223.588 208.375 223.588C211.104 223.588 213.315 226.091 213.315 229.176Z" fill="#EFEFEF" fill-opacity="0.62"/>
<path fill-rule="evenodd" clip-rule="evenodd" d="M240.481 229.176C240.481 232.263 238.27 234.766 235.542 234.766C232.813 234.766 230.603 232.263 230.603 229.176C230.603 226.091 232.813 223.588 235.542 223.588C238.27 223.588 240.481 226.091 240.481 229.176Z" fill="#EFEFEF" fill-opacity="0.62"/>
<path fill-rule="evenodd" clip-rule="evenodd" d="M270.115 229.176C270.115 232.263 267.903 234.766 265.174 234.766C262.446 234.766 260.237 232.263 260.237 229.176C260.237 226.091 262.446 223.588 265.174 223.588C267.903 223.588 270.115 226.091 270.115 229.176Z" fill="#EFEFEF" fill-opacity="0.62"/>
<path fill-rule="evenodd" clip-rule="evenodd" d="M297.281 229.176C297.281 232.263 295.071 234.766 292.34 234.766C289.613 234.766 287.402 232.263 287.402 229.176C287.402 226.091 289.613 223.588 292.34 223.588C295.071 223.588 297.281 226.091 297.281 229.176Z" fill="#EFEFEF" fill-opacity="0.62"/>
<path fill-rule="evenodd" clip-rule="evenodd" d="M183.681 254.886C183.681 257.355 181.47 259.357 178.74 259.357C176.014 259.357 173.803 257.355 173.803 254.886C173.803 252.417 176.014 250.415 178.74 250.415C181.47 250.415 183.681 252.417 183.681 254.886Z" fill="#EFEFEF" fill-opacity="0.62"/>
<path fill-rule="evenodd" clip-rule="evenodd" d="M213.315 254.886C213.315 257.355 211.104 259.357 208.375 259.357C205.648 259.357 203.437 257.355 203.437 254.886C203.437 252.417 205.648 250.415 208.375 250.415C211.104 250.415 213.315 252.417 213.315 254.886Z" fill="#EFEFEF" fill-opacity="0.62"/>
<path fill-rule="evenodd" clip-rule="evenodd" d="M240.481 254.886C240.481 257.355 238.27 259.357 235.542 259.357C232.813 259.357 230.603 257.355 230.603 254.886C230.603 252.417 232.813 250.415 235.542 250.415C238.27 250.415 240.481 252.417 240.481 254.886Z" fill="#EFEFEF" fill-opacity="0.62"/>
<path fill-rule="evenodd" clip-rule="evenodd" d="M270.115 254.886C270.115 257.355 267.903 259.357 265.174 259.357C262.446 259.357 260.237 257.355 260.237 254.886C260.237 252.417 262.446 250.415 265.174 250.415C267.903 250.415 270.115 252.417 270.115 254.886Z" fill="#EFEFEF" fill-opacity="0.62"/>
<path fill-rule="evenodd" clip-rule="evenodd" d="M297.281 254.886C297.281 257.355 295.071 259.357 292.34 259.357C289.613 259.357 287.402 257.355 287.402 254.886C287.402 252.417 289.613 250.415 292.34 250.415C295.071 250.415 297.281 252.417 297.281 254.886Z" fill="#EFEFEF" fill-opacity="0.62"/>
<path fill-rule="evenodd" clip-rule="evenodd" d="M183.681 279.478C183.681 281.947 181.47 283.949 178.74 283.949C176.014 283.949 173.803 281.947 173.803 279.478C173.803 277.008 176.014 275.007 178.74 275.007C181.47 275.007 183.681 277.008 183.681 279.478Z" fill="#EFEFEF" fill-opacity="0.62"/>
<path fill-rule="evenodd" clip-rule="evenodd" d="M213.315 279.478C213.315 281.947 211.104 283.949 208.375 283.949C205.648 283.949 203.437 281.947 203.437 279.478C203.437 277.008 205.648 275.007 208.375 275.007C211.104 275.007 213.315 277.008 213.315 279.478Z" fill="#EFEFEF" fill-opacity="0.62"/>
<path fill-rule="evenodd" clip-rule="evenodd" d="M240.481 279.478C240.481 281.947 238.27 283.949 235.542 283.949C232.813 283.949 230.603 281.947 230.603 279.478C230.603 277.008 232.813 275.007 235.542 275.007C238.27 275.007 240.481 277.008 240.481 279.478Z" fill="#EFEFEF" fill-opacity="0.62"/>
<path fill-rule="evenodd" clip-rule="evenodd" d="M270.115 279.478C270.115 281.947 267.903 283.949 265.174 283.949C262.446 283.949 260.237 281.947 260.237 279.478C260.237 277.008 262.446 275.007 265.174 275.007C267.903 275.007 270.115 277.008 270.115 279.478Z" fill="#EFEFEF" fill-opacity="0.62"/>
<path fill-rule="evenodd" clip-rule="evenodd" d="M297.281 279.478C297.281 281.947 295.071 283.949 292.34 283.949C289.613 283.949 287.402 281.947 287.402 279.478C287.402 277.008 289.613 275.007 292.34 275.007C295.071 275.007 297.281 277.008 297.281 279.478Z" fill="#EFEFEF" fill-opacity="0.62"/>
<path fill-rule="evenodd" clip-rule="evenodd" d="M326.915 152.05C326.915 154.519 324.705 156.521 321.975 156.521C319.248 156.521 317.037 154.519 317.037 152.05C317.037 149.58 319.248 147.579 321.975 147.579C324.705 147.579 326.915 149.58 326.915 152.05Z" fill="#EFEFEF" fill-opacity="0.62"/>
<path fill-rule="evenodd" clip-rule="evenodd" d="M326.915 176.641C326.915 179.111 324.705 181.112 321.975 181.112C319.248 181.112 317.037 179.111 317.037 176.641C317.037 174.172 319.248 172.17 321.975 172.17C324.705 172.17 326.915 174.172 326.915 176.641Z" fill="#EFEFEF" fill-opacity="0.62"/>
<path fill-rule="evenodd" clip-rule="evenodd" d="M326.915 204.587C326.915 207.672 324.705 210.175 321.975 210.175C319.248 210.175 317.037 207.672 317.037 204.587C317.037 201.5 319.248 198.997 321.975 198.997C324.705 198.997 326.915 201.5 326.915 204.587Z" fill="#EFEFEF" fill-opacity="0.62"/>
<path fill-rule="evenodd" clip-rule="evenodd" d="M326.915 229.176C326.915 232.263 324.705 234.766 321.975 234.766C319.248 234.766 317.037 232.263 317.037 229.176C317.037 226.091 319.248 223.588 321.975 223.588C324.705 223.588 326.915 226.091 326.915 229.176Z" fill="#EFEFEF" fill-opacity="0.62"/>
<path fill-rule="evenodd" clip-rule="evenodd" d="M326.915 254.886C326.915 257.355 324.705 259.357 321.975 259.357C319.248 259.357 317.037 257.355 317.037 254.886C317.037 252.417 319.248 250.415 321.975 250.415C324.705 250.415 326.915 252.417 326.915 254.886Z" fill="#EFEFEF" fill-opacity="0.62"/>
<path fill-rule="evenodd" clip-rule="evenodd" d="M326.915 279.478C326.915 281.947 324.705 283.949 321.975 283.949C319.248 283.949 317.037 281.947 317.037 279.478C317.037 277.008 319.248 275.007 321.975 275.007C324.705 275.007 326.915 277.008 326.915 279.478Z" fill="#EFEFEF" fill-opacity="0.62"/>
<path fill-rule="evenodd" clip-rule="evenodd" d="M9.87819 4.47115C9.87819 6.94079 7.6672 8.94231 4.93697 8.94231C2.211 8.94231 0 6.94079 0 4.47115C0 2.00152 2.211 0 4.93697 0C7.6672 0 9.87819 2.00152 9.87819 4.47115Z" fill="#EFEFEF" fill-opacity="0.62"/>
<path fill-rule="evenodd" clip-rule="evenodd" d="M39.513 4.47115C39.513 6.94079 37.302 8.94231 34.5728 8.94231C31.8458 8.94231 29.6348 6.94079 29.6348 4.47115C29.6348 2.00152 31.8458 0 34.5728 0C37.302 0 39.513 2.00152 39.513 4.47115Z" fill="#EFEFEF" fill-opacity="0.62"/>
<path fill-rule="evenodd" clip-rule="evenodd" d="M66.6778 4.47115C66.6778 6.94079 64.4663 8.94231 61.7387 8.94231C59.01 8.94231 56.7996 6.94079 56.7996 4.47115C56.7996 2.00152 59.01 0 61.7387 0C64.4663 0 66.6778 2.00152 66.6778 4.47115Z" fill="#EFEFEF" fill-opacity="0.62"/>
<path fill-rule="evenodd" clip-rule="evenodd" d="M96.3128 4.47115C96.3128 6.94079 94.1013 8.94231 91.3715 8.94231C88.6439 8.94231 86.4346 6.94079 86.4346 4.47115C86.4346 2.00152 88.6439 0 91.3715 0C94.1013 0 96.3128 2.00152 96.3128 4.47115Z" fill="#EFEFEF" fill-opacity="0.62"/>
<path fill-rule="evenodd" clip-rule="evenodd" d="M123.478 4.47115C123.478 6.94079 121.268 8.94231 118.537 8.94231C115.81 8.94231 113.599 6.94079 113.599 4.47115C113.599 2.00152 115.81 0 118.537 0C121.268 0 123.478 2.00152 123.478 4.47115Z" fill="#EFEFEF" fill-opacity="0.62"/>
<path fill-rule="evenodd" clip-rule="evenodd" d="M9.87819 29.0622C9.87819 31.5319 7.6672 33.5334 4.93697 33.5334C2.211 33.5334 0 31.5319 0 29.0622C0 26.5935 2.211 24.5911 4.93697 24.5911C7.6672 24.5911 9.87819 26.5935 9.87819 29.0622Z" fill="#EFEFEF" fill-opacity="0.62"/>
<path fill-rule="evenodd" clip-rule="evenodd" d="M39.513 29.0622C39.513 31.5319 37.302 33.5334 34.5728 33.5334C31.8458 33.5334 29.6348 31.5319 29.6348 29.0622C29.6348 26.5935 31.8458 24.5911 34.5728 24.5911C37.302 24.5911 39.513 26.5935 39.513 29.0622Z" fill="#EFEFEF" fill-opacity="0.62"/>
<path fill-rule="evenodd" clip-rule="evenodd" d="M66.6778 29.0622C66.6778 31.5319 64.4663 33.5334 61.7387 33.5334C59.01 33.5334 56.7996 31.5319 56.7996 29.0622C56.7996 26.5935 59.01 24.5911 61.7387 24.5911C64.4663 24.5911 66.6778 26.5935 66.6778 29.0622Z" fill="#EFEFEF" fill-opacity="0.62"/>
<path fill-rule="evenodd" clip-rule="evenodd" d="M96.3128 29.0622C96.3128 31.5319 94.1013 33.5334 91.3715 33.5334C88.6439 33.5334 86.4346 31.5319 86.4346 29.0622C86.4346 26.5935 88.6439 24.5911 91.3715 24.5911C94.1013 24.5911 96.3128 26.5935 96.3128 29.0622Z" fill="#EFEFEF" fill-opacity="0.62"/>
<path fill-rule="evenodd" clip-rule="evenodd" d="M123.478 29.0622C123.478 31.5319 121.268 33.5334 118.537 33.5334C115.81 33.5334 113.599 31.5319 113.599 29.0622C113.599 26.5935 115.81 24.5911 118.537 24.5911C121.268 24.5911 123.478 26.5935 123.478 29.0622Z" fill="#EFEFEF" fill-opacity="0.62"/>
<path fill-rule="evenodd" clip-rule="evenodd" d="M9.87819 57.008C9.87819 60.0935 7.6672 62.5963 4.93697 62.5963C2.211 62.5963 0 60.0935 0 57.008C0 53.9213 2.211 51.4185 4.93697 51.4185C7.6672 51.4185 9.87819 53.9213 9.87819 57.008Z" fill="#EFEFEF" fill-opacity="0.62"/>
<path fill-rule="evenodd" clip-rule="evenodd" d="M39.513 57.008C39.513 60.0935 37.302 62.5963 34.5728 62.5963C31.8458 62.5963 29.6348 60.0935 29.6348 57.008C29.6348 53.9213 31.8458 51.4185 34.5728 51.4185C37.302 51.4185 39.513 53.9213 39.513 57.008Z" fill="#EFEFEF" fill-opacity="0.62"/>
<path fill-rule="evenodd" clip-rule="evenodd" d="M66.6778 57.008C66.6778 60.0935 64.4663 62.5963 61.7387 62.5963C59.01 62.5963 56.7996 60.0935 56.7996 57.008C56.7996 53.9213 59.01 51.4185 61.7387 51.4185C64.4663 51.4185 66.6778 53.9213 66.6778 57.008Z" fill="#EFEFEF" fill-opacity="0.62"/>
<path fill-rule="evenodd" clip-rule="evenodd" d="M96.3128 57.008C96.3128 60.0935 94.1013 62.5963 91.3715 62.5963C88.6439 62.5963 86.4346 60.0935 86.4346 57.008C86.4346 53.9213 88.6439 51.4185 91.3715 51.4185C94.1013 51.4185 96.3128 53.9213 96.3128 57.008Z" fill="#EFEFEF" fill-opacity="0.62"/>
<path fill-rule="evenodd" clip-rule="evenodd" d="M123.478 57.008C123.478 60.0935 121.268 62.5963 118.537 62.5963C115.81 62.5963 113.599 60.0935 113.599 57.008C113.599 53.9213 115.81 51.4185 118.537 51.4185C121.268 51.4185 123.478 53.9213 123.478 57.008Z" fill="#EFEFEF" fill-opacity="0.62"/>
<path fill-rule="evenodd" clip-rule="evenodd" d="M9.87819 81.5979C9.87819 84.6846 7.6672 87.1874 4.93697 87.1874C2.211 87.1874 0 84.6846 0 81.5979C0 78.5124 2.211 76.0095 4.93697 76.0095C7.6672 76.0095 9.87819 78.5124 9.87819 81.5979Z" fill="#EFEFEF" fill-opacity="0.62"/>
<path fill-rule="evenodd" clip-rule="evenodd" d="M39.513 81.5979C39.513 84.6846 37.302 87.1874 34.5728 87.1874C31.8458 87.1874 29.6348 84.6846 29.6348 81.5979C29.6348 78.5124 31.8458 76.0095 34.5728 76.0095C37.302 76.0095 39.513 78.5124 39.513 81.5979Z" fill="#EFEFEF" fill-opacity="0.62"/>
<path fill-rule="evenodd" clip-rule="evenodd" d="M66.6778 81.5979C66.6778 84.6846 64.4663 87.1874 61.7387 87.1874C59.01 87.1874 56.7996 84.6846 56.7996 81.5979C56.7996 78.5124 59.01 76.0095 61.7387 76.0095C64.4663 76.0095 66.6778 78.5124 66.6778 81.5979Z" fill="#EFEFEF" fill-opacity="0.62"/>
<path fill-rule="evenodd" clip-rule="evenodd" d="M96.3128 81.5979C96.3128 84.6846 94.1013 87.1874 91.3715 87.1874C88.6439 87.1874 86.4346 84.6846 86.4346 81.5979C86.4346 78.5124 88.6439 76.0095 91.3715 76.0095C94.1013 76.0095 96.3128 78.5124 96.3128 81.5979Z" fill="#EFEFEF" fill-opacity="0.62"/>
<path fill-rule="evenodd" clip-rule="evenodd" d="M123.478 81.5979C123.478 84.6846 121.268 87.1874 118.537 87.1874C115.81 87.1874 113.599 84.6846 113.599 81.5979C113.599 78.5124 115.81 76.0095 118.537 76.0095C121.268 76.0095 123.478 78.5124 123.478 81.5979Z" fill="#EFEFEF" fill-opacity="0.62"/>
<path fill-rule="evenodd" clip-rule="evenodd" d="M9.87819 107.308C9.87819 109.776 7.6672 111.779 4.93697 111.779C2.211 111.779 0 109.776 0 107.308C0 104.838 2.211 102.836 4.93697 102.836C7.6672 102.836 9.87819 104.838 9.87819 107.308Z" fill="#EFEFEF" fill-opacity="0.62"/>
<path fill-rule="evenodd" clip-rule="evenodd" d="M39.513 107.308C39.513 109.776 37.302 111.779 34.5728 111.779C31.8458 111.779 29.6348 109.776 29.6348 107.308C29.6348 104.838 31.8458 102.836 34.5728 102.836C37.302 102.836 39.513 104.838 39.513 107.308Z" fill="#EFEFEF" fill-opacity="0.62"/>
<path fill-rule="evenodd" clip-rule="evenodd" d="M66.6778 107.308C66.6778 109.776 64.4663 111.779 61.7387 111.779C59.01 111.779 56.7996 109.776 56.7996 107.308C56.7996 104.838 59.01 102.836 61.7387 102.836C64.4663 102.836 66.6778 104.838 66.6778 107.308Z" fill="#EFEFEF" fill-opacity="0.62"/>
<path fill-rule="evenodd" clip-rule="evenodd" d="M96.3128 107.308C96.3128 109.776 94.1013 111.779 91.3715 111.779C88.6439 111.779 86.4346 109.776 86.4346 107.308C86.4346 104.838 88.6439 102.836 91.3715 102.836C94.1013 102.836 96.3128 104.838 96.3128 107.308Z" fill="#EFEFEF" fill-opacity="0.62"/>
<path fill-rule="evenodd" clip-rule="evenodd" d="M123.478 107.308C123.478 109.776 121.268 111.779 118.537 111.779C115.81 111.779 113.599 109.776 113.599 107.308C113.599 104.838 115.81 102.836 118.537 102.836C121.268 102.836 123.478 104.838 123.478 107.308Z" fill="#EFEFEF" fill-opacity="0.62"/>
<path fill-rule="evenodd" clip-rule="evenodd" d="M9.87819 131.899C9.87819 134.369 7.6672 136.37 4.93697 136.37C2.211 136.37 0 134.369 0 131.899C0 129.429 2.211 127.428 4.93697 127.428C7.6672 127.428 9.87819 129.429 9.87819 131.899Z" fill="#EFEFEF" fill-opacity="0.62"/>
<path fill-rule="evenodd" clip-rule="evenodd" d="M39.513 131.899C39.513 134.369 37.302 136.37 34.5728 136.37C31.8458 136.37 29.6348 134.369 29.6348 131.899C29.6348 129.429 31.8458 127.428 34.5728 127.428C37.302 127.428 39.513 129.429 39.513 131.899Z" fill="#EFEFEF" fill-opacity="0.62"/>
<path fill-rule="evenodd" clip-rule="evenodd" d="M66.6778 131.899C66.6778 134.369 64.4663 136.37 61.7387 136.37C59.01 136.37 56.7996 134.369 56.7996 131.899C56.7996 129.429 59.01 127.428 61.7387 127.428C64.4663 127.428 66.6778 129.429 66.6778 131.899Z" fill="#EFEFEF" fill-opacity="0.62"/>
<path fill-rule="evenodd" clip-rule="evenodd" d="M96.3128 131.899C96.3128 134.369 94.1013 136.37 91.3715 136.37C88.6439 136.37 86.4346 134.369 86.4346 131.899C86.4346 129.429 88.6439 127.428 91.3715 127.428C94.1013 127.428 96.3128 129.429 96.3128 131.899Z" fill="#EFEFEF" fill-opacity="0.62"/>
<path fill-rule="evenodd" clip-rule="evenodd" d="M123.478 131.899C123.478 134.369 121.268 136.37 118.537 136.37C115.81 136.37 113.599 134.369 113.599 131.899C113.599 129.429 115.81 127.428 118.537 127.428C121.268 127.428 123.478 129.429 123.478 131.899Z" fill="#EFEFEF" fill-opacity="0.62"/>
<path fill-rule="evenodd" clip-rule="evenodd" d="M153.112 4.47115C153.112 6.94079 150.902 8.94231 148.172 8.94231C145.445 8.94231 143.234 6.94079 143.234 4.47115C143.234 2.00152 145.445 0 148.172 0C150.902 0 153.112 2.00152 153.112 4.47115Z" fill="#EFEFEF" fill-opacity="0.62"/>
<path fill-rule="evenodd" clip-rule="evenodd" d="M153.112 29.0622C153.112 31.5319 150.902 33.5334 148.172 33.5334C145.445 33.5334 143.234 31.5319 143.234 29.0622C143.234 26.5935 145.445 24.5911 148.172 24.5911C150.902 24.5911 153.112 26.5935 153.112 29.0622Z" fill="#EFEFEF" fill-opacity="0.62"/>
<path fill-rule="evenodd" clip-rule="evenodd" d="M153.112 57.008C153.112 60.0935 150.902 62.5963 148.172 62.5963C145.445 62.5963 143.234 60.0935 143.234 57.008C143.234 53.9213 145.445 51.4185 148.172 51.4185C150.902 51.4185 153.112 53.9213 153.112 57.008Z" fill="#EFEFEF" fill-opacity="0.62"/>
<path fill-rule="evenodd" clip-rule="evenodd" d="M153.112 81.5979C153.112 84.6846 150.902 87.1874 148.172 87.1874C145.445 87.1874 143.234 84.6846 143.234 81.5979C143.234 78.5124 145.445 76.0095 148.172 76.0095C150.902 76.0095 153.112 78.5124 153.112 81.5979Z" fill="#EFEFEF" fill-opacity="0.62"/>
<path fill-rule="evenodd" clip-rule="evenodd" d="M153.112 107.308C153.112 109.776 150.902 111.779 148.172 111.779C145.445 111.779 143.234 109.776 143.234 107.308C143.234 104.838 145.445 102.836 148.172 102.836C150.902 102.836 153.112 104.838 153.112 107.308Z" fill="#EFEFEF" fill-opacity="0.62"/>
<path fill-rule="evenodd" clip-rule="evenodd" d="M153.112 131.899C153.112 134.369 150.902 136.37 148.172 136.37C145.445 136.37 143.234 134.369 143.234 131.899C143.234 129.429 145.445 127.428 148.172 127.428C150.902 127.428 153.112 129.429 153.112 131.899Z" fill="#EFEFEF" fill-opacity="0.62"/>
<path fill-rule="evenodd" clip-rule="evenodd" d="M183.681 4.47115C183.681 6.94079 181.47 8.94231 178.74 8.94231C176.014 8.94231 173.803 6.94079 173.803 4.47115C173.803 2.00152 176.014 0 178.74 0C181.47 0 183.681 2.00152 183.681 4.47115Z" fill="#EFEFEF" fill-opacity="0.62"/>
<path fill-rule="evenodd" clip-rule="evenodd" d="M213.315 4.47115C213.315 6.94079 211.104 8.94231 208.375 8.94231C205.648 8.94231 203.437 6.94079 203.437 4.47115C203.437 2.00152 205.648 0 208.375 0C211.104 0 213.315 2.00152 213.315 4.47115Z" fill="#EFEFEF" fill-opacity="0.62"/>
<path fill-rule="evenodd" clip-rule="evenodd" d="M240.481 4.47115C240.481 6.94079 238.27 8.94231 235.542 8.94231C232.813 8.94231 230.603 6.94079 230.603 4.47115C230.603 2.00152 232.813 0 235.542 0C238.27 0 240.481 2.00152 240.481 4.47115Z" fill="#EFEFEF" fill-opacity="0.62"/>
<path fill-rule="evenodd" clip-rule="evenodd" d="M270.115 4.47115C270.115 6.94079 267.903 8.94231 265.174 8.94231C262.446 8.94231 260.237 6.94079 260.237 4.47115C260.237 2.00152 262.446 0 265.174 0C267.903 0 270.115 2.00152 270.115 4.47115Z" fill="#EFEFEF" fill-opacity="0.62"/>
<path fill-rule="evenodd" clip-rule="evenodd" d="M297.281 4.47115C297.281 6.94079 295.071 8.94231 292.34 8.94231C289.613 8.94231 287.402 6.94079 287.402 4.47115C287.402 2.00152 289.613 0 292.34 0C295.071 0 297.281 2.00152 297.281 4.47115Z" fill="#EFEFEF" fill-opacity="0.62"/>
<path fill-rule="evenodd" clip-rule="evenodd" d="M183.681 29.0622C183.681 31.5319 181.47 33.5334 178.74 33.5334C176.014 33.5334 173.803 31.5319 173.803 29.0622C173.803 26.5935 176.014 24.5911 178.74 24.5911C181.47 24.5911 183.681 26.5935 183.681 29.0622Z" fill="#EFEFEF" fill-opacity="0.62"/>
<path fill-rule="evenodd" clip-rule="evenodd" d="M213.315 29.0622C213.315 31.5319 211.104 33.5334 208.375 33.5334C205.648 33.5334 203.437 31.5319 203.437 29.0622C203.437 26.5935 205.648 24.5911 208.375 24.5911C211.104 24.5911 213.315 26.5935 213.315 29.0622Z" fill="#EFEFEF" fill-opacity="0.62"/>
<path fill-rule="evenodd" clip-rule="evenodd" d="M240.481 29.0622C240.481 31.5319 238.27 33.5334 235.542 33.5334C232.813 33.5334 230.603 31.5319 230.603 29.0622C230.603 26.5935 232.813 24.5911 235.542 24.5911C238.27 24.5911 240.481 26.5935 240.481 29.0622Z" fill="#EFEFEF" fill-opacity="0.62"/>
<path fill-rule="evenodd" clip-rule="evenodd" d="M270.115 29.0622C270.115 31.5319 267.903 33.5334 265.174 33.5334C262.446 33.5334 260.237 31.5319 260.237 29.0622C260.237 26.5935 262.446 24.5911 265.174 24.5911C267.903 24.5911 270.115 26.5935 270.115 29.0622Z" fill="#EFEFEF" fill-opacity="0.62"/>
<path fill-rule="evenodd" clip-rule="evenodd" d="M297.281 29.0622C297.281 31.5319 295.071 33.5334 292.34 33.5334C289.613 33.5334 287.402 31.5319 287.402 29.0622C287.402 26.5935 289.613 24.5911 292.34 24.5911C295.071 24.5911 297.281 26.5935 297.281 29.0622Z" fill="#EFEFEF" fill-opacity="0.62"/>
<path fill-rule="evenodd" clip-rule="evenodd" d="M183.681 57.008C183.681 60.0935 181.47 62.5963 178.74 62.5963C176.014 62.5963 173.803 60.0935 173.803 57.008C173.803 53.9213 176.014 51.4185 178.74 51.4185C181.47 51.4185 183.681 53.9213 183.681 57.008Z" fill="#EFEFEF" fill-opacity="0.62"/>
<path fill-rule="evenodd" clip-rule="evenodd" d="M213.315 57.008C213.315 60.0935 211.104 62.5963 208.375 62.5963C205.648 62.5963 203.437 60.0935 203.437 57.008C203.437 53.9213 205.648 51.4185 208.375 51.4185C211.104 51.4185 213.315 53.9213 213.315 57.008Z" fill="#EFEFEF" fill-opacity="0.62"/>
<path fill-rule="evenodd" clip-rule="evenodd" d="M240.481 57.008C240.481 60.0935 238.27 62.5963 235.542 62.5963C232.813 62.5963 230.603 60.0935 230.603 57.008C230.603 53.9213 232.813 51.4185 235.542 51.4185C238.27 51.4185 240.481 53.9213 240.481 57.008Z" fill="#EFEFEF" fill-opacity="0.62"/>
<path fill-rule="evenodd" clip-rule="evenodd" d="M270.115 57.008C270.115 60.0935 267.903 62.5963 265.174 62.5963C262.446 62.5963 260.237 60.0935 260.237 57.008C260.237 53.9213 262.446 51.4185 265.174 51.4185C267.903 51.4185 270.115 53.9213 270.115 57.008Z" fill="#EFEFEF" fill-opacity="0.62"/>
<path fill-rule="evenodd" clip-rule="evenodd" d="M297.281 57.008C297.281 60.0935 295.071 62.5963 292.34 62.5963C289.613 62.5963 287.402 60.0935 287.402 57.008C287.402 53.9213 289.613 51.4185 292.34 51.4185C295.071 51.4185 297.281 53.9213 297.281 57.008Z" fill="#EFEFEF" fill-opacity="0.62"/>
<path fill-rule="evenodd" clip-rule="evenodd" d="M183.681 81.5979C183.681 84.6846 181.47 87.1874 178.74 87.1874C176.014 87.1874 173.803 84.6846 173.803 81.5979C173.803 78.5124 176.014 76.0095 178.74 76.0095C181.47 76.0095 183.681 78.5124 183.681 81.5979Z" fill="#EFEFEF" fill-opacity="0.62"/>
<path fill-rule="evenodd" clip-rule="evenodd" d="M213.315 81.5979C213.315 84.6846 211.104 87.1874 208.375 87.1874C205.648 87.1874 203.437 84.6846 203.437 81.5979C203.437 78.5124 205.648 76.0095 208.375 76.0095C211.104 76.0095 213.315 78.5124 213.315 81.5979Z" fill="#EFEFEF" fill-opacity="0.62"/>
<path fill-rule="evenodd" clip-rule="evenodd" d="M240.481 81.5979C240.481 84.6846 238.27 87.1874 235.542 87.1874C232.813 87.1874 230.603 84.6846 230.603 81.5979C230.603 78.5124 232.813 76.0095 235.542 76.0095C238.27 76.0095 240.481 78.5124 240.481 81.5979Z" fill="#EFEFEF" fill-opacity="0.62"/>
<path fill-rule="evenodd" clip-rule="evenodd" d="M270.115 81.5979C270.115 84.6846 267.903 87.1874 265.174 87.1874C262.446 87.1874 260.237 84.6846 260.237 81.5979C260.237 78.5124 262.446 76.0095 265.174 76.0095C267.903 76.0095 270.115 78.5124 270.115 81.5979Z" fill="#EFEFEF" fill-opacity="0.62"/>
<path fill-rule="evenodd" clip-rule="evenodd" d="M297.281 81.5979C297.281 84.6846 295.071 87.1874 292.34 87.1874C289.613 87.1874 287.402 84.6846 287.402 81.5979C287.402 78.5124 289.613 76.0095 292.34 76.0095C295.071 76.0095 297.281 78.5124 297.281 81.5979Z" fill="#EFEFEF" fill-opacity="0.62"/>
<path fill-rule="evenodd" clip-rule="evenodd" d="M183.681 107.308C183.681 109.776 181.47 111.779 178.74 111.779C176.014 111.779 173.803 109.776 173.803 107.308C173.803 104.838 176.014 102.836 178.74 102.836C181.47 102.836 183.681 104.838 183.681 107.308Z" fill="#EFEFEF" fill-opacity="0.62"/>
<path fill-rule="evenodd" clip-rule="evenodd" d="M213.315 107.308C213.315 109.776 211.104 111.779 208.375 111.779C205.648 111.779 203.437 109.776 203.437 107.308C203.437 104.838 205.648 102.836 208.375 102.836C211.104 102.836 213.315 104.838 213.315 107.308Z" fill="#EFEFEF" fill-opacity="0.62"/>
<path fill-rule="evenodd" clip-rule="evenodd" d="M240.481 107.308C240.481 109.776 238.27 111.779 235.542 111.779C232.813 111.779 230.603 109.776 230.603 107.308C230.603 104.838 232.813 102.836 235.542 102.836C238.27 102.836 240.481 104.838 240.481 107.308Z" fill="#EFEFEF" fill-opacity="0.62"/>
<path fill-rule="evenodd" clip-rule="evenodd" d="M270.115 107.308C270.115 109.776 267.903 111.779 265.174 111.779C262.446 111.779 260.237 109.776 260.237 107.308C260.237 104.838 262.446 102.836 265.174 102.836C267.903 102.836 270.115 104.838 270.115 107.308Z" fill="#EFEFEF" fill-opacity="0.62"/>
<path fill-rule="evenodd" clip-rule="evenodd" d="M297.281 107.308C297.281 109.776 295.071 111.779 292.34 111.779C289.613 111.779 287.402 109.776 287.402 107.308C287.402 104.838 289.613 102.836 292.34 102.836C295.071 102.836 297.281 104.838 297.281 107.308Z" fill="#EFEFEF" fill-opacity="0.62"/>
<path fill-rule="evenodd" clip-rule="evenodd" d="M183.681 131.899C183.681 134.369 181.47 136.37 178.74 136.37C176.014 136.37 173.803 134.369 173.803 131.899C173.803 129.429 176.014 127.428 178.74 127.428C181.47 127.428 183.681 129.429 183.681 131.899Z" fill="#EFEFEF" fill-opacity="0.62"/>
<path fill-rule="evenodd" clip-rule="evenodd" d="M213.315 131.899C213.315 134.369 211.104 136.37 208.375 136.37C205.648 136.37 203.437 134.369 203.437 131.899C203.437 129.429 205.648 127.428 208.375 127.428C211.104 127.428 213.315 129.429 213.315 131.899Z" fill="#EFEFEF" fill-opacity="0.62"/>
<path fill-rule="evenodd" clip-rule="evenodd" d="M240.481 131.899C240.481 134.369 238.27 136.37 235.542 136.37C232.813 136.37 230.603 134.369 230.603 131.899C230.603 129.429 232.813 127.428 235.542 127.428C238.27 127.428 240.481 129.429 240.481 131.899Z" fill="#EFEFEF" fill-opacity="0.62"/>
<path fill-rule="evenodd" clip-rule="evenodd" d="M270.115 131.899C270.115 134.369 267.903 136.37 265.174 136.37C262.446 136.37 260.237 134.369 260.237 131.899C260.237 129.429 262.446 127.428 265.174 127.428C267.903 127.428 270.115 129.429 270.115 131.899Z" fill="#EFEFEF" fill-opacity="0.62"/>
<path fill-rule="evenodd" clip-rule="evenodd" d="M297.281 131.899C297.281 134.369 295.071 136.37 292.34 136.37C289.613 136.37 287.402 134.369 287.402 131.899C287.402 129.429 289.613 127.428 292.34 127.428C295.071 127.428 297.281 129.429 297.281 131.899Z" fill="#EFEFEF" fill-opacity="0.62"/>
<path fill-rule="evenodd" clip-rule="evenodd" d="M326.915 4.47115C326.915 6.94079 324.705 8.94231 321.975 8.94231C319.248 8.94231 317.037 6.94079 317.037 4.47115C317.037 2.00152 319.248 0 321.975 0C324.705 0 326.915 2.00152 326.915 4.47115Z" fill="#EFEFEF" fill-opacity="0.62"/>
<path fill-rule="evenodd" clip-rule="evenodd" d="M326.915 29.0622C326.915 31.5319 324.705 33.5334 321.975 33.5334C319.248 33.5334 317.037 31.5319 317.037 29.0622C317.037 26.5935 319.248 24.5911 321.975 24.5911C324.705 24.5911 326.915 26.5935 326.915 29.0622Z" fill="#EFEFEF" fill-opacity="0.62"/>
<path fill-rule="evenodd" clip-rule="evenodd" d="M326.915 57.008C326.915 60.0935 324.705 62.5963 321.975 62.5963C319.248 62.5963 317.037 60.0935 317.037 57.008C317.037 53.9213 319.248 51.4185 321.975 51.4185C324.705 51.4185 326.915 53.9213 326.915 57.008Z" fill="#EFEFEF" fill-opacity="0.62"/>
<path fill-rule="evenodd" clip-rule="evenodd" d="M326.915 81.5979C326.915 84.6846 324.705 87.1874 321.975 87.1874C319.248 87.1874 317.037 84.6846 317.037 81.5979C317.037 78.5124 319.248 76.0095 321.975 76.0095C324.705 76.0095 326.915 78.5124 326.915 81.5979Z" fill="#EFEFEF" fill-opacity="0.62"/>
<path fill-rule="evenodd" clip-rule="evenodd" d="M326.915 107.308C326.915 109.776 324.705 111.779 321.975 111.779C319.248 111.779 317.037 109.776 317.037 107.308C317.037 104.838 319.248 102.836 321.975 102.836C324.705 102.836 326.915 104.838 326.915 107.308Z" fill="#EFEFEF" fill-opacity="0.62"/>
<path fill-rule="evenodd" clip-rule="evenodd" d="M326.915 131.899C326.915 134.369 324.705 136.37 321.975 136.37C319.248 136.37 317.037 134.369 317.037 131.899C317.037 129.429 319.248 127.428 321.975 127.428C324.705 127.428 326.915 129.429 326.915 131.899Z" fill="#EFEFEF" fill-opacity="0.62"/>
</svg>
