<svg width="1440" height="506" viewBox="0 0 1440 506" fill="none" xmlns="http://www.w3.org/2000/svg">
<rect width="1441" height="506" fill="#FCFCFC"/>
<path opacity="0.031343" fill-rule="evenodd" clip-rule="evenodd" d="M-69 156L69.5641 76L149.564 214.564L11 294.564L-69 156Z" fill="#A59999"/>
<circle cx="1199" cy="103" r="196.5" stroke="#F9F9F9" stroke-width="15"/>
<path fill-rule="evenodd" clip-rule="evenodd" d="M1365.77 391.393C1365.77 392.715 1364.71 393.787 1363.39 393.787C1362.07 393.787 1361 392.715 1361 391.393C1361 390.071 1362.07 389 1363.39 389C1364.71 389 1365.77 390.071 1365.77 391.393Z" fill="#9FD9F1"/>
<path fill-rule="evenodd" clip-rule="evenodd" d="M1380.1 391.393C1380.1 392.715 1379.03 393.787 1377.71 393.787C1376.39 393.787 1375.32 392.715 1375.32 391.393C1375.32 390.071 1376.39 389 1377.71 389C1379.03 389 1380.1 390.071 1380.1 391.393Z" fill="#9FD9F1"/>
<path fill-rule="evenodd" clip-rule="evenodd" d="M1393.23 391.393C1393.23 392.715 1392.16 393.787 1390.84 393.787C1389.52 393.787 1388.45 392.715 1388.45 391.393C1388.45 390.071 1389.52 389 1390.84 389C1392.16 389 1393.23 390.071 1393.23 391.393Z" fill="#9FD9F1"/>
<path fill-rule="evenodd" clip-rule="evenodd" d="M1407.55 391.393C1407.55 392.715 1406.48 393.787 1405.16 393.787C1403.84 393.787 1402.77 392.715 1402.77 391.393C1402.77 390.071 1403.84 389 1405.16 389C1406.48 389 1407.55 390.071 1407.55 391.393Z" fill="#9FD9F1"/>
<path fill-rule="evenodd" clip-rule="evenodd" d="M1420.68 391.393C1420.68 392.715 1419.61 393.787 1418.29 393.787C1416.97 393.787 1415.9 392.715 1415.9 391.393C1415.9 390.071 1416.97 389 1418.29 389C1419.61 389 1420.68 390.071 1420.68 391.393Z" fill="#9FD9F1"/>
<path fill-rule="evenodd" clip-rule="evenodd" d="M1365.77 404.557C1365.77 405.879 1364.71 406.951 1363.39 406.951C1362.07 406.951 1361 405.879 1361 404.557C1361 403.236 1362.07 402.164 1363.39 402.164C1364.71 402.164 1365.77 403.236 1365.77 404.557Z" fill="#9FD9F1"/>
<path fill-rule="evenodd" clip-rule="evenodd" d="M1380.1 404.557C1380.1 405.879 1379.03 406.951 1377.71 406.951C1376.39 406.951 1375.32 405.879 1375.32 404.557C1375.32 403.236 1376.39 402.164 1377.71 402.164C1379.03 402.164 1380.1 403.236 1380.1 404.557Z" fill="#9FD9F1"/>
<path fill-rule="evenodd" clip-rule="evenodd" d="M1393.23 404.557C1393.23 405.879 1392.16 406.951 1390.84 406.951C1389.52 406.951 1388.45 405.879 1388.45 404.557C1388.45 403.236 1389.52 402.164 1390.84 402.164C1392.16 402.164 1393.23 403.236 1393.23 404.557Z" fill="#9FD9F1"/>
<path fill-rule="evenodd" clip-rule="evenodd" d="M1407.55 404.557C1407.55 405.879 1406.48 406.951 1405.16 406.951C1403.84 406.951 1402.77 405.879 1402.77 404.557C1402.77 403.236 1403.84 402.164 1405.16 402.164C1406.48 402.164 1407.55 403.236 1407.55 404.557Z" fill="#9FD9F1"/>
<path fill-rule="evenodd" clip-rule="evenodd" d="M1420.68 404.557C1420.68 405.879 1419.61 406.951 1418.29 406.951C1416.97 406.951 1415.9 405.879 1415.9 404.557C1415.9 403.236 1416.97 402.164 1418.29 402.164C1419.61 402.164 1420.68 403.236 1420.68 404.557Z" fill="#9FD9F1"/>
<path fill-rule="evenodd" clip-rule="evenodd" d="M1365.77 419.517C1365.77 421.168 1364.71 422.508 1363.39 422.508C1362.07 422.508 1361 421.168 1361 419.517C1361 417.864 1362.07 416.525 1363.39 416.525C1364.71 416.525 1365.77 417.864 1365.77 419.517Z" fill="#9FD9F1"/>
<path fill-rule="evenodd" clip-rule="evenodd" d="M1380.1 419.517C1380.1 421.168 1379.03 422.508 1377.71 422.508C1376.39 422.508 1375.32 421.168 1375.32 419.517C1375.32 417.864 1376.39 416.525 1377.71 416.525C1379.03 416.525 1380.1 417.864 1380.1 419.517Z" fill="#9FD9F1"/>
<path fill-rule="evenodd" clip-rule="evenodd" d="M1393.23 419.517C1393.23 421.168 1392.16 422.508 1390.84 422.508C1389.52 422.508 1388.45 421.168 1388.45 419.517C1388.45 417.864 1389.52 416.525 1390.84 416.525C1392.16 416.525 1393.23 417.864 1393.23 419.517Z" fill="#9FD9F1"/>
<path fill-rule="evenodd" clip-rule="evenodd" d="M1407.55 419.517C1407.55 421.168 1406.48 422.508 1405.16 422.508C1403.84 422.508 1402.77 421.168 1402.77 419.517C1402.77 417.864 1403.84 416.525 1405.16 416.525C1406.48 416.525 1407.55 417.864 1407.55 419.517Z" fill="#9FD9F1"/>
<path fill-rule="evenodd" clip-rule="evenodd" d="M1420.68 419.517C1420.68 421.168 1419.61 422.508 1418.29 422.508C1416.97 422.508 1415.9 421.168 1415.9 419.517C1415.9 417.864 1416.97 416.525 1418.29 416.525C1419.61 416.525 1420.68 417.864 1420.68 419.517Z" fill="#9FD9F1"/>
<path fill-rule="evenodd" clip-rule="evenodd" d="M1365.77 432.68C1365.77 434.332 1364.71 435.672 1363.39 435.672C1362.07 435.672 1361 434.332 1361 432.68C1361 431.028 1362.07 429.688 1363.39 429.688C1364.71 429.688 1365.77 431.028 1365.77 432.68Z" fill="#9FD9F1"/>
<path fill-rule="evenodd" clip-rule="evenodd" d="M1380.1 432.68C1380.1 434.332 1379.03 435.672 1377.71 435.672C1376.39 435.672 1375.32 434.332 1375.32 432.68C1375.32 431.028 1376.39 429.688 1377.71 429.688C1379.03 429.688 1380.1 431.028 1380.1 432.68Z" fill="#9FD9F1"/>
<path fill-rule="evenodd" clip-rule="evenodd" d="M1393.23 432.68C1393.23 434.332 1392.16 435.672 1390.84 435.672C1389.52 435.672 1388.45 434.332 1388.45 432.68C1388.45 431.028 1389.52 429.688 1390.84 429.688C1392.16 429.688 1393.23 431.028 1393.23 432.68Z" fill="#9FD9F1"/>
<path fill-rule="evenodd" clip-rule="evenodd" d="M1407.55 432.68C1407.55 434.332 1406.48 435.672 1405.16 435.672C1403.84 435.672 1402.77 434.332 1402.77 432.68C1402.77 431.028 1403.84 429.688 1405.16 429.688C1406.48 429.688 1407.55 431.028 1407.55 432.68Z" fill="#9FD9F1"/>
<path fill-rule="evenodd" clip-rule="evenodd" d="M1420.68 432.68C1420.68 434.332 1419.61 435.672 1418.29 435.672C1416.97 435.672 1415.9 434.332 1415.9 432.68C1415.9 431.028 1416.97 429.688 1418.29 429.688C1419.61 429.688 1420.68 431.028 1420.68 432.68Z" fill="#9FD9F1"/>
<path fill-rule="evenodd" clip-rule="evenodd" d="M1365.77 446.443C1365.77 447.764 1364.71 448.836 1363.39 448.836C1362.07 448.836 1361 447.764 1361 446.443C1361 445.121 1362.07 444.049 1363.39 444.049C1364.71 444.049 1365.77 445.121 1365.77 446.443Z" fill="#9FD9F1"/>
<path fill-rule="evenodd" clip-rule="evenodd" d="M1380.1 446.443C1380.1 447.764 1379.03 448.836 1377.71 448.836C1376.39 448.836 1375.32 447.764 1375.32 446.443C1375.32 445.121 1376.39 444.049 1377.71 444.049C1379.03 444.049 1380.1 445.121 1380.1 446.443Z" fill="#9FD9F1"/>
<path fill-rule="evenodd" clip-rule="evenodd" d="M1393.23 446.443C1393.23 447.764 1392.16 448.836 1390.84 448.836C1389.52 448.836 1388.45 447.764 1388.45 446.443C1388.45 445.121 1389.52 444.049 1390.84 444.049C1392.16 444.049 1393.23 445.121 1393.23 446.443Z" fill="#9FD9F1"/>
<path fill-rule="evenodd" clip-rule="evenodd" d="M1407.55 446.443C1407.55 447.764 1406.48 448.836 1405.16 448.836C1403.84 448.836 1402.77 447.764 1402.77 446.443C1402.77 445.121 1403.84 444.049 1405.16 444.049C1406.48 444.049 1407.55 445.121 1407.55 446.443Z" fill="#9FD9F1"/>
<path fill-rule="evenodd" clip-rule="evenodd" d="M1420.68 446.443C1420.68 447.764 1419.61 448.836 1418.29 448.836C1416.97 448.836 1415.9 447.764 1415.9 446.443C1415.9 445.121 1416.97 444.049 1418.29 444.049C1419.61 444.049 1420.68 445.121 1420.68 446.443Z" fill="#9FD9F1"/>
<path fill-rule="evenodd" clip-rule="evenodd" d="M1365.77 459.607C1365.77 460.929 1364.71 462 1363.39 462C1362.07 462 1361 460.929 1361 459.607C1361 458.285 1362.07 457.213 1363.39 457.213C1364.71 457.213 1365.77 458.285 1365.77 459.607Z" fill="#9FD9F1"/>
<path fill-rule="evenodd" clip-rule="evenodd" d="M1380.1 459.607C1380.1 460.929 1379.03 462 1377.71 462C1376.39 462 1375.32 460.929 1375.32 459.607C1375.32 458.285 1376.39 457.213 1377.71 457.213C1379.03 457.213 1380.1 458.285 1380.1 459.607Z" fill="#9FD9F1"/>
<path fill-rule="evenodd" clip-rule="evenodd" d="M1393.23 459.607C1393.23 460.929 1392.16 462 1390.84 462C1389.52 462 1388.45 460.929 1388.45 459.607C1388.45 458.285 1389.52 457.213 1390.84 457.213C1392.16 457.213 1393.23 458.285 1393.23 459.607Z" fill="#9FD9F1"/>
<path fill-rule="evenodd" clip-rule="evenodd" d="M1407.55 459.607C1407.55 460.929 1406.48 462 1405.16 462C1403.84 462 1402.77 460.929 1402.77 459.607C1402.77 458.285 1403.84 457.213 1405.16 457.213C1406.48 457.213 1407.55 458.285 1407.55 459.607Z" fill="#9FD9F1"/>
<path fill-rule="evenodd" clip-rule="evenodd" d="M1420.68 459.607C1420.68 460.929 1419.61 462 1418.29 462C1416.97 462 1415.9 460.929 1415.9 459.607C1415.9 458.285 1416.97 457.213 1418.29 457.213C1419.61 457.213 1420.68 458.285 1420.68 459.607Z" fill="#9FD9F1"/>
<path fill-rule="evenodd" clip-rule="evenodd" d="M1435 391.393C1435 392.715 1433.93 393.787 1432.61 393.787C1431.29 393.787 1430.23 392.715 1430.23 391.393C1430.23 390.071 1431.29 389 1432.61 389C1433.93 389 1435 390.071 1435 391.393Z" fill="#9FD9F1"/>
<path fill-rule="evenodd" clip-rule="evenodd" d="M1435 404.557C1435 405.879 1433.93 406.951 1432.61 406.951C1431.29 406.951 1430.23 405.879 1430.23 404.557C1430.23 403.236 1431.29 402.164 1432.61 402.164C1433.93 402.164 1435 403.236 1435 404.557Z" fill="#9FD9F1"/>
<path fill-rule="evenodd" clip-rule="evenodd" d="M1435 419.517C1435 421.168 1433.93 422.508 1432.61 422.508C1431.29 422.508 1430.23 421.168 1430.23 419.517C1430.23 417.864 1431.29 416.525 1432.61 416.525C1433.93 416.525 1435 417.864 1435 419.517Z" fill="#9FD9F1"/>
<path fill-rule="evenodd" clip-rule="evenodd" d="M1435 432.68C1435 434.332 1433.93 435.672 1432.61 435.672C1431.29 435.672 1430.23 434.332 1430.23 432.68C1430.23 431.028 1431.29 429.688 1432.61 429.688C1433.93 429.688 1435 431.028 1435 432.68Z" fill="#9FD9F1"/>
<path fill-rule="evenodd" clip-rule="evenodd" d="M1435 446.443C1435 447.764 1433.93 448.836 1432.61 448.836C1431.29 448.836 1430.23 447.764 1430.23 446.443C1430.23 445.121 1431.29 444.049 1432.61 444.049C1433.93 444.049 1435 445.121 1435 446.443Z" fill="#9FD9F1"/>
<path fill-rule="evenodd" clip-rule="evenodd" d="M1435 459.607C1435 460.929 1433.93 462 1432.61 462C1431.29 462 1430.23 460.929 1430.23 459.607C1430.23 458.285 1431.29 457.213 1432.61 457.213C1433.93 457.213 1435 458.285 1435 459.607Z" fill="#9FD9F1"/>
</svg>
