<svg width="1440" height="506" viewBox="0 0 1440 506" fill="none" xmlns="http://www.w3.org/2000/svg">
<rect width="1441" height="506" fill="#FCFCFC"/>
<path opacity="0.031343" fill-rule="evenodd" clip-rule="evenodd" d="M-69 156L69.5641 76L149.564 214.564L11 294.564L-69 156Z" fill="#A59999"/>
<circle cx="1199" cy="103" r="196.5" stroke="#F9F9F9" stroke-width="15"/>
<path fill-rule="evenodd" clip-rule="evenodd" d="M1365.77 391.393C1365.77 392.715 1364.71 393.787 1363.39 393.787C1362.07 393.787 1361 392.715 1361 391.393C1361 390.071 1362.07 389 1363.39 389C1364.71 389 1365.77 390.071 1365.77 391.393Z" fill="#9FD9F1"/>
<path fill-rule="evenodd" clip-rule="evenodd" d="M1380.1 391.393C1380.1 392.715 1379.03 393.787 1377.71 393.787C1376.39 393.787 1375.32 392.715 1375.32 391.393C1375.32 390.071 1376.39 389 1377.71 389C1379.03 389 1380.1 390.071 1380.1 391.393Z" fill="#9FD9F1"/>
<path fill-rule="evenodd" clip-rule="evenodd" d="M1393.23 391.393C1393.23 392.715 1392.16 393.787 1390.84 393.787C1389.52 393.787 1388.45 392.715 1388.45 391.393C1388.45 390.071 1389.52 389 1390.84 389C1392.16 389 1393.23 390.071 1393.23 391.393Z" fill="#9FD9F1"/>
<path fill-rule="evenodd" clip-rule="evenodd" d="M1407.55 391.393C1407.55 392.715 1406.48 393.787 1405.16 393.787C1403.84 393.787 1402.77 392.715 1402.77 391.393C1402.77 390.071 1403.84 389 1405.16 389C1406.48 389 1407.55 390.071 1407.55 391.393Z" fill="#9FD9F1"/>
<path fill-rule="evenodd" clip-rule="evenodd" d="M1420.68 391.393C1420.68 392.715 1419.61 393.787 1418.29 393.787C1416.97 393.787 1415.9 392.715 1415.9 391.393C1415.9 390.071 1416.97 389 1418.29 389C1419.61 389 1420.68 390.071 1420.68 391.393Z" fill="#9FD9F1"/>
<path fill-rule="evenodd" clip-rule="evenodd" d="M1365.77 404.557C1365.77 405.879 1364.71 406.951 1363.39 406.951C1362.07 406.951 1361 405.879 1361 404.557C1361 403.236 1362.07 402.164 1363.39 402.164C1364.71 402.164 1365.77 403.236 1365.77 404.557Z" fill="#9FD9F1"/>
<path fill-rule="evenodd" clip-rule="evenodd" d="M1380.1 404.557C1380.1 405.879 1379.03 406.951 1377.71 406.951C1376.39 406.951 1375.32 405.879 1375.32 404.557C1375.32 403.236 1376.39 402.164 1377.71 402.164C1379.03 402.164 1380.1 403.236 1380.1 404.557Z" fill="#9FD9F1"/>
<path fill-rule="evenodd" clip-rule="evenodd" d="M1393.23 404.557C1393.23 405.879 1392.16 406.951 1390.84 406.951C1389.52 406.951 1388.45 405.879 1388.45 404.557C1388.45 403.236 1389.52 402.164 1390.84 402.164C1392.16 402.164 1393.23 403.236 1393.23 404.557Z" fill="#9FD9F1"/>
<path fill-rule="evenodd" clip-rule="evenodd" d="M1407.55 404.557C1407.55 405.879 1406.48 406.951 1405.16 406.951C1403.84 406.951 1402.77 405.879 1402.77 404.557C1402.77 403.236 1403.84 402.164 1405.16 402.164C1406.48 402.164 1407.55 403.236 1407.55 404.557Z" fill="#9FD9F1"/>
<path fill-rule="evenodd" clip-rule="evenodd" d="M1420.68 404.557C1420.68 405.879 1419.61 406.951 1418.29 406.951C1416.97 406.951 1415.9 405.879 1415.9 404.557C1415.9 403.236 1416.97 402.164 1418.29 402.164C1419.61 402.164 1420.68 403.236 1420.68 404.557Z" fill="#9FD9F1"/>
<path fill-rule="evenodd" clip-rule="evenodd" d="M1365.77 419.517C1365.77 421.168 1364.71 422.508 1363.39 422.508C1362.07 422.508 1361 421.168 1361 419.517C1361 417.864 1362.07 416.525 1363.39 416.525C1364.71 416.525 1365.77 417.864 1365.77 419.517Z" fill="#9FD9F1"/>
<path fill-rule="evenodd" clip-rule="evenodd" d="M1380.1 419.517C1380.1 421.168 1379.03 422.508 1377.71 422.508C1376.39 422.508 1375.32 421.168 1375.32 419.517C1375.32 417.864 1376.39 416.525 1377.71 416.525C1379.03 416.525 1380.1 417.864 1380.1 419.517Z" fill="#9FD9F1"/>
<path fill-rule="evenodd" clip-rule="evenodd" d="M1393.23 419.517C1393.23 421.168 1392.16 422.508 1390.84 422.508C1389.52 422.508 1388.45 421.168 1388.45 419.517C1388.45 417.864 1389.52 416.525 1390.84 416.525C1392.16 416.525 1393.23 417.864 1393.23 419.517Z" fill="#9FD9F1"/>
<path fill-rule="evenodd" clip-rule="evenodd" d="M1407.55 419.517C1407.55 421.168 1406.48 422.508 1405.16 422.508C1403.84 422.508 1402.77 421.168 1402.77 419.517C1402.77 417.864 1403.84 416.525 1405.16 416.525C1406.48 416.525 1407.55 417.864 1407.55 419.517Z" fill="#9FD9F1"/>
<path fill-rule="evenodd" clip-rule="evenodd" d="M1420.68 419.517C1420.68 421.168 1419.61 422.508 1418.29 422.508C1416.97 422.508 1415.9 421.168 1415.9 419.517C1415.9 417.864 1416.97 416.525 1418.29 416.525C1419.61 416.525 1420.68 417.864 1420.68 419.517Z" fill="#9FD9F1"/>
<path fill-rule="evenodd" clip-rule="evenodd" d="M1365.77 432.68C1365.77 434.332 1364.71 435.672 1363.39 435.672C1362.07 435.672 1361 434.332 1361 432.68C1361 431.028 1362.07 429.688 1363.39 429.688C1364.71 429.688 1365.77 431.028 1365.77 432.68Z" fill="#9FD9F1"/>
<path fill-rule="evenodd" clip-rule="evenodd" d="M1380.1 432.68C1380.1 434.332 1379.03 435.672 1377.71 435.672C1376.39 435.672 1375.32 434.332 1375.32 432.68C1375.32 431.028 1376.39 429.688 1377.71 429.688C1379.03 429.688 1380.1 431.028 1380.1 432.68Z" fill="#9FD9F1"/>
<path fill-rule="evenodd" clip-rule="evenodd" d="M1393.23 432.68C1393.23 434.332 1392.16 435.672 1390.84 435.672C1389.52 435.672 1388.45 434.332 1388.45 432.68C1388.45 431.028 1389.52 429.688 1390.84 429.688C1392.16 429.688 1393.23 431.028 1393.23 432.68Z" fill="#9FD9F1"/>
<path fill-rule="evenodd" clip-rule="evenodd" d="M1407.55 432.68C1407.55 434.332 1406.48 435.672 1405.16 435.672C1403.84 435.672 1402.77 434.332 1402.77 432.68C1402.77 431.028 1403.84 429.688 1405.16 429.688C1406.48 429.688 1407.55 431.028 1407.55 432.68Z" fill="#9FD9F1"/>
<path fill-rule="evenodd" clip-rule="evenodd" d="M1420.68 432.68C1420.68 434.332 1419.61 435.672 1418.29 435.672C1416.97 435.672 1415.9 434.332 1415.9 432.68C1415.9 431.028 1416.97 429.688 1418.29 429.688C1419.61 429.688 1420.68 431.028 1420.68 432.68Z" fill="#9FD9F1"/>
<path fill-rule="evenodd" clip-rule="evenodd" d="M1365.77 446.443C1365.77 447.764 1364.71 448.836 1363.39 448.836C1362.07 448.836 1361 447.764 1361 446.443C1361 445.121 1362.07 444.049 1363.39 444.049C1364.71 444.049 1365.77 445.121 1365.77 446.443Z" fill="#9FD9F1"/>
<path fill-rule="evenodd" clip-rule="evenodd" d="M1380.1 446.443C1380.1 447.764 1379.03 448.836 1377.71 448.836C1376.39 448.836 1375.32 447.764 1375.32 446.443C1375.32 445.121 1376.39 444.049 1377.71 444.049C1379.03 444.049 1380.1 445.121 1380.1 446.443Z" fill="#9FD9F1"/>
<path fill-rule="evenodd" clip-rule="evenodd" d="M1393.23 446.443C1393.23 447.764 1392.16 448.836 1390.84 448.836C1389.52 448.836 1388.45 447.764 1388.45 446.443C1388.45 445.121 1389.52 444.049 1390.84 444.049C1392.16 444.049 1393.23 445.121 1393.23 446.443Z" fill="#9FD9F1"/>
<path fill-rule="evenodd" clip-rule="evenodd" d="M1407.55 446.443C1407.55 447.764 1406.48 448.836 1405.16 448.836C1403.84 448.836 1402.77 447.764 1402.77 446.443C1402.77 445.121 1403.84 444.049 1405.16 444.049C1406.48 444.049 1407.55 445.121 1407.55 446.443Z" fill="#9FD9F1"/>
<path fill-rule="evenodd" clip-rule="evenodd" d="M1420.68 446.443C1420.68 447.764 1419.61 448.836 1418.29 448.836C1416.97 448.836 1415.9 447.764 1415.9 446.443C1415.9 445.121 1416.97 444.049 1418.29 444.049C1419.61 444.049 1420.68 445.121 1420.68 446.443Z" fill="#9FD9F1"/>
<path fill-rule="evenodd" clip-rule="evenodd" d="M1365.77 459.607C1365.77 460.929 1364.71 462 1363.39 462C1362.07 462 1361 460.929 1361 459.607C1361 458.285 1362.07 457.213 1363.39 457.213C1364.71 457.213 1365.77 458.285 1365.77 459.607Z" fill="#9FD9F1"/>
<path fill-rule="evenodd" clip-rule="evenodd" d="M1380.1 459.607C1380.1 460.929 1379.03 462 1377.71 462C1376.39 462 1375.32 460.929 1375.32 459.607C1375.32 458.285 1376.39 457.213 1377.71 457.213C1379.03 457.213 1380.1 458.285 1380.1 459.607Z" fill="#9FD9F1"/>
<path fill-rule="evenodd" clip-rule="evenodd" d="M1393.23 459.607C1393.23 460.929 1392.16 462 1390.84 462C1389.52 462 1388.45 460.929 1388.45 459.607C1388.45 458.285 1389.52 457.213 1390.84 457.213C1392.16 457.213 1393.23 458.285 1393.23 459.607Z" fill="#9FD9F1"/>
<path fill-rule="evenodd" clip-rule="evenodd" d="M1407.55 459.607C1407.55 460.929 1406.48 462 1405.16 462C1403.84 462 1402.77 460.929 1402.77 459.607C1402.77 458.285 1403.84 457.213 1405.16 457.213C1406.48 457.213 1407.55 458.285 1407.55 459.607Z" fill="#9FD9F1"/>
<path fill-rule="evenodd" clip-rule="evenodd" d="M1420.68 459.607C1420.68 460.929 1419.61 462 1418.29 462C1416.97 462 1415.9 460.929 1415.9 459.607C1415.9 458.285 1416.97 457.213 1418.29 457.213C1419.61 457.213 1420.68 458.285 1420.68 459.607Z" fill="#9FD9F1"/>
<path fill-rule="evenodd" clip-rule="evenodd" d="M1435 391.393C1435 392.715 1433.93 393.787 1432.61 393.787C1431.29 393.787 1430.23 392.715 1430.23 391.393C1430.23 390.071 1431.29 389 1432.61 389C1433.93 389 1435 390.071 1435 391.393Z" fill="#9FD9F1"/>
<path fill-rule="evenodd" clip-rule="evenodd" d="M1435 404.557C1435 405.879 1433.93 406.951 1432.61 406.951C1431.29 406.951 1430.23 405.879 1430.23 404.557C1430.23 403.236 1431.29 402.164 1432.61 402.164C1433.93 402.164 1435 403.236 1435 404.557Z" fill="#9FD9F1"/>
<path fill-rule="evenodd" clip-rule="evenodd" d="M1435 419.517C1435 421.168 1433.93 422.508 1432.61 422.508C1431.29 422.508 1430.23 421.168 1430.23 419.517C1430.23 417.864 1431.29 416.525 1432.61 416.525C1433.93 416.525 1435 417.864 1435 419.517Z" fill="#9FD9F1"/>
<path fill-rule="evenodd" clip-rule="evenodd" d="M1435 432.68C1435 434.332 1433.93 435.672 1432.61 435.672C1431.29 435.672 1430.23 434.332 1430.23 432.68C1430.23 431.028 1431.29 429.688 1432.61 429.688C1433.93 429.688 1435 431.028 1435 432.68Z" fill="#9FD9F1"/>
<path fill-rule="evenodd" clip-rule="evenodd" d="M1435 446.443C1435 447.764 1433.93 448.836 1432.61 448.836C1431.29 448.836 1430.23 447.764 1430.23 446.443C1430.23 445.121 1431.29 444.049 1432.61 444.049C1433.93 444.049 1435 445.121 1435 446.443Z" fill="#9FD9F1"/>
<path fill-rule="evenodd" clip-rule="evenodd" d="M1435 459.607C1435 460.929 1433.93 462 1432.61 462C1431.29 462 1430.23 460.929 1430.23 459.607C1430.23 458.285 1431.29 457.213 1432.61 457.213C1433.93 457.213 1435 458.285 1435 459.607Z" fill="#9FD9F1"/>
<path fill-rule="evenodd" clip-rule="evenodd" d="M262.774 3.51666C262.774 5.16836 261.706 6.50814 260.386 6.50814C259.069 6.50814 258 5.16836 258 3.51666C258 1.86432 259.069 0.524536 260.386 0.524536C261.706 0.524536 262.774 1.86432 262.774 3.51666Z" fill="#9FD9F1"/>
<path fill-rule="evenodd" clip-rule="evenodd" d="M277.097 3.51666C277.097 5.16836 276.028 6.50814 274.709 6.50814C273.391 6.50814 272.323 5.16836 272.323 3.51666C272.323 1.86432 273.391 0.524536 274.709 0.524536C276.028 0.524536 277.097 1.86432 277.097 3.51666Z" fill="#9FD9F1"/>
<path fill-rule="evenodd" clip-rule="evenodd" d="M290.226 3.51666C290.226 5.16836 289.157 6.50814 287.839 6.50814C286.52 6.50814 285.452 5.16836 285.452 3.51666C285.452 1.86432 286.52 0.524536 287.839 0.524536C289.157 0.524536 290.226 1.86432 290.226 3.51666Z" fill="#9FD9F1"/>
<path fill-rule="evenodd" clip-rule="evenodd" d="M304.549 3.51666C304.549 5.16836 303.48 6.50814 302.16 6.50814C300.842 6.50814 299.774 5.16836 299.774 3.51666C299.774 1.86432 300.842 0.524536 302.16 0.524536C303.48 0.524536 304.549 1.86432 304.549 3.51666Z" fill="#9FD9F1"/>
<path fill-rule="evenodd" clip-rule="evenodd" d="M317.678 3.51666C317.678 5.16836 316.609 6.50814 315.29 6.50814C313.972 6.50814 312.903 5.16836 312.903 3.51666C312.903 1.86432 313.972 0.524536 315.29 0.524536C316.609 0.524536 317.678 1.86432 317.678 3.51666Z" fill="#9FD9F1"/>
<path fill-rule="evenodd" clip-rule="evenodd" d="M262.774 16.68C262.774 18.3323 261.706 19.6721 260.386 19.6721C259.069 19.6721 258 18.3323 258 16.68C258 15.0283 259.069 13.6885 260.386 13.6885C261.706 13.6885 262.774 15.0283 262.774 16.68Z" fill="#9FD9F1"/>
<path fill-rule="evenodd" clip-rule="evenodd" d="M277.097 16.68C277.097 18.3323 276.028 19.6721 274.709 19.6721C273.391 19.6721 272.323 18.3323 272.323 16.68C272.323 15.0283 273.391 13.6885 274.709 13.6885C276.028 13.6885 277.097 15.0283 277.097 16.68Z" fill="#9FD9F1"/>
<path fill-rule="evenodd" clip-rule="evenodd" d="M290.226 16.68C290.226 18.3323 289.157 19.6721 287.839 19.6721C286.52 19.6721 285.452 18.3323 285.452 16.68C285.452 15.0283 286.52 13.6885 287.839 13.6885C289.157 13.6885 290.226 15.0283 290.226 16.68Z" fill="#9FD9F1"/>
<path fill-rule="evenodd" clip-rule="evenodd" d="M304.549 16.68C304.549 18.3323 303.48 19.6721 302.16 19.6721C300.842 19.6721 299.774 18.3323 299.774 16.68C299.774 15.0283 300.842 13.6885 302.16 13.6885C303.48 13.6885 304.549 15.0283 304.549 16.68Z" fill="#9FD9F1"/>
<path fill-rule="evenodd" clip-rule="evenodd" d="M317.678 16.68C317.678 18.3323 316.609 19.6721 315.29 19.6721C313.972 19.6721 312.903 18.3323 312.903 16.68C312.903 15.0283 313.972 13.6885 315.29 13.6885C316.609 13.6885 317.678 15.0283 317.678 16.68Z" fill="#9FD9F1"/>
<path fill-rule="evenodd" clip-rule="evenodd" d="M262.774 30.4426C262.774 31.7641 261.706 32.8361 260.386 32.8361C259.069 32.8361 258 31.7641 258 30.4426C258 29.1206 259.069 28.0492 260.386 28.0492C261.706 28.0492 262.774 29.1206 262.774 30.4426Z" fill="#9FD9F1"/>
<path fill-rule="evenodd" clip-rule="evenodd" d="M277.097 30.4426C277.097 31.7641 276.028 32.8361 274.709 32.8361C273.391 32.8361 272.323 31.7641 272.323 30.4426C272.323 29.1206 273.391 28.0492 274.709 28.0492C276.028 28.0492 277.097 29.1206 277.097 30.4426Z" fill="#9FD9F1"/>
<path fill-rule="evenodd" clip-rule="evenodd" d="M290.226 30.4426C290.226 31.7641 289.157 32.8361 287.839 32.8361C286.52 32.8361 285.452 31.7641 285.452 30.4426C285.452 29.1206 286.52 28.0492 287.839 28.0492C289.157 28.0492 290.226 29.1206 290.226 30.4426Z" fill="#9FD9F1"/>
<path fill-rule="evenodd" clip-rule="evenodd" d="M304.549 30.4426C304.549 31.7641 303.48 32.8361 302.16 32.8361C300.842 32.8361 299.774 31.7641 299.774 30.4426C299.774 29.1206 300.842 28.0492 302.16 28.0492C303.48 28.0492 304.549 29.1206 304.549 30.4426Z" fill="#9FD9F1"/>
<path fill-rule="evenodd" clip-rule="evenodd" d="M317.678 30.4426C317.678 31.7641 316.609 32.8361 315.29 32.8361C313.972 32.8361 312.903 31.7641 312.903 30.4426C312.903 29.1206 313.972 28.0492 315.29 28.0492C316.609 28.0492 317.678 29.1206 317.678 30.4426Z" fill="#9FD9F1"/>
<path fill-rule="evenodd" clip-rule="evenodd" d="M262.774 43.6066C262.774 44.9286 261.706 46 260.386 46C259.069 46 258 44.9286 258 43.6066C258 42.2846 259.069 41.2131 260.386 41.2131C261.706 41.2131 262.774 42.2846 262.774 43.6066Z" fill="#9FD9F1"/>
<path fill-rule="evenodd" clip-rule="evenodd" d="M277.097 43.6066C277.097 44.9286 276.028 46 274.709 46C273.391 46 272.323 44.9286 272.323 43.6066C272.323 42.2846 273.391 41.2131 274.709 41.2131C276.028 41.2131 277.097 42.2846 277.097 43.6066Z" fill="#9FD9F1"/>
<path fill-rule="evenodd" clip-rule="evenodd" d="M290.226 43.6066C290.226 44.9286 289.157 46 287.839 46C286.52 46 285.452 44.9286 285.452 43.6066C285.452 42.2846 286.52 41.2131 287.839 41.2131C289.157 41.2131 290.226 42.2846 290.226 43.6066Z" fill="#9FD9F1"/>
<path fill-rule="evenodd" clip-rule="evenodd" d="M304.549 43.6066C304.549 44.9286 303.48 46 302.16 46C300.842 46 299.774 44.9286 299.774 43.6066C299.774 42.2846 300.842 41.2131 302.16 41.2131C303.48 41.2131 304.549 42.2846 304.549 43.6066Z" fill="#9FD9F1"/>
<path fill-rule="evenodd" clip-rule="evenodd" d="M317.678 43.6066C317.678 44.9286 316.609 46 315.29 46C313.972 46 312.903 44.9286 312.903 43.6066C312.903 42.2846 313.972 41.2131 315.29 41.2131C316.609 41.2131 317.678 42.2846 317.678 43.6066Z" fill="#9FD9F1"/>
<path fill-rule="evenodd" clip-rule="evenodd" d="M332 3.51666C332 5.16836 330.932 6.50814 329.612 6.50814C328.294 6.50814 327.226 5.16836 327.226 3.51666C327.226 1.86432 328.294 0.524536 329.612 0.524536C330.932 0.524536 332 1.86432 332 3.51666Z" fill="#9FD9F1"/>
<path fill-rule="evenodd" clip-rule="evenodd" d="M332 16.68C332 18.3323 330.932 19.6721 329.612 19.6721C328.294 19.6721 327.226 18.3323 327.226 16.68C327.226 15.0283 328.294 13.6885 329.612 13.6885C330.932 13.6885 332 15.0283 332 16.68Z" fill="#9FD9F1"/>
<path fill-rule="evenodd" clip-rule="evenodd" d="M332 30.4426C332 31.7641 330.932 32.8361 329.612 32.8361C328.294 32.8361 327.226 31.7641 327.226 30.4426C327.226 29.1206 328.294 28.0492 329.612 28.0492C330.932 28.0492 332 29.1206 332 30.4426Z" fill="#9FD9F1"/>
<path fill-rule="evenodd" clip-rule="evenodd" d="M332 43.6066C332 44.9286 330.932 46 329.612 46C328.294 46 327.226 44.9286 327.226 43.6066C327.226 42.2846 328.294 41.2131 329.612 41.2131C330.932 41.2131 332 42.2846 332 43.6066Z" fill="#9FD9F1"/>
<path fill-rule="evenodd" clip-rule="evenodd" d="M346.774 3.51666C346.774 5.16836 345.706 6.50814 344.386 6.50814C343.069 6.50814 342 5.16836 342 3.51666C342 1.86432 343.069 0.524536 344.386 0.524536C345.706 0.524536 346.774 1.86432 346.774 3.51666Z" fill="#9FD9F1"/>
<path fill-rule="evenodd" clip-rule="evenodd" d="M361.097 3.51666C361.097 5.16836 360.028 6.50814 358.709 6.50814C357.391 6.50814 356.323 5.16836 356.323 3.51666C356.323 1.86432 357.391 0.524536 358.709 0.524536C360.028 0.524536 361.097 1.86432 361.097 3.51666Z" fill="#9FD9F1"/>
<path fill-rule="evenodd" clip-rule="evenodd" d="M374.226 3.51666C374.226 5.16836 373.157 6.50814 371.839 6.50814C370.52 6.50814 369.452 5.16836 369.452 3.51666C369.452 1.86432 370.52 0.524536 371.839 0.524536C373.157 0.524536 374.226 1.86432 374.226 3.51666Z" fill="#9FD9F1"/>
<path fill-rule="evenodd" clip-rule="evenodd" d="M388.549 3.51666C388.549 5.16836 387.48 6.50814 386.16 6.50814C384.842 6.50814 383.774 5.16836 383.774 3.51666C383.774 1.86432 384.842 0.524536 386.16 0.524536C387.48 0.524536 388.549 1.86432 388.549 3.51666Z" fill="#9FD9F1"/>
<path fill-rule="evenodd" clip-rule="evenodd" d="M401.678 3.51666C401.678 5.16836 400.609 6.50814 399.29 6.50814C397.972 6.50814 396.903 5.16836 396.903 3.51666C396.903 1.86432 397.972 0.524536 399.29 0.524536C400.609 0.524536 401.678 1.86432 401.678 3.51666Z" fill="#9FD9F1"/>
<path fill-rule="evenodd" clip-rule="evenodd" d="M346.774 16.68C346.774 18.3323 345.706 19.6721 344.386 19.6721C343.069 19.6721 342 18.3323 342 16.68C342 15.0283 343.069 13.6885 344.386 13.6885C345.706 13.6885 346.774 15.0283 346.774 16.68Z" fill="#9FD9F1"/>
<path fill-rule="evenodd" clip-rule="evenodd" d="M361.097 16.68C361.097 18.3323 360.028 19.6721 358.709 19.6721C357.391 19.6721 356.323 18.3323 356.323 16.68C356.323 15.0283 357.391 13.6885 358.709 13.6885C360.028 13.6885 361.097 15.0283 361.097 16.68Z" fill="#9FD9F1"/>
<path fill-rule="evenodd" clip-rule="evenodd" d="M374.226 16.68C374.226 18.3323 373.157 19.6721 371.839 19.6721C370.52 19.6721 369.452 18.3323 369.452 16.68C369.452 15.0283 370.52 13.6885 371.839 13.6885C373.157 13.6885 374.226 15.0283 374.226 16.68Z" fill="#9FD9F1"/>
<path fill-rule="evenodd" clip-rule="evenodd" d="M388.549 16.68C388.549 18.3323 387.48 19.6721 386.16 19.6721C384.842 19.6721 383.774 18.3323 383.774 16.68C383.774 15.0283 384.842 13.6885 386.16 13.6885C387.48 13.6885 388.549 15.0283 388.549 16.68Z" fill="#9FD9F1"/>
<path fill-rule="evenodd" clip-rule="evenodd" d="M401.678 16.68C401.678 18.3323 400.609 19.6721 399.29 19.6721C397.972 19.6721 396.903 18.3323 396.903 16.68C396.903 15.0283 397.972 13.6885 399.29 13.6885C400.609 13.6885 401.678 15.0283 401.678 16.68Z" fill="#9FD9F1"/>
<path fill-rule="evenodd" clip-rule="evenodd" d="M346.774 30.4426C346.774 31.7641 345.706 32.8361 344.386 32.8361C343.069 32.8361 342 31.7641 342 30.4426C342 29.1206 343.069 28.0492 344.386 28.0492C345.706 28.0492 346.774 29.1206 346.774 30.4426Z" fill="#9FD9F1"/>
<path fill-rule="evenodd" clip-rule="evenodd" d="M361.097 30.4426C361.097 31.7641 360.028 32.8361 358.709 32.8361C357.391 32.8361 356.323 31.7641 356.323 30.4426C356.323 29.1206 357.391 28.0492 358.709 28.0492C360.028 28.0492 361.097 29.1206 361.097 30.4426Z" fill="#9FD9F1"/>
<path fill-rule="evenodd" clip-rule="evenodd" d="M374.226 30.4426C374.226 31.7641 373.157 32.8361 371.839 32.8361C370.52 32.8361 369.452 31.7641 369.452 30.4426C369.452 29.1206 370.52 28.0492 371.839 28.0492C373.157 28.0492 374.226 29.1206 374.226 30.4426Z" fill="#9FD9F1"/>
<path fill-rule="evenodd" clip-rule="evenodd" d="M388.549 30.4426C388.549 31.7641 387.48 32.8361 386.16 32.8361C384.842 32.8361 383.774 31.7641 383.774 30.4426C383.774 29.1206 384.842 28.0492 386.16 28.0492C387.48 28.0492 388.549 29.1206 388.549 30.4426Z" fill="#9FD9F1"/>
<path fill-rule="evenodd" clip-rule="evenodd" d="M401.678 30.4426C401.678 31.7641 400.609 32.8361 399.29 32.8361C397.972 32.8361 396.903 31.7641 396.903 30.4426C396.903 29.1206 397.972 28.0492 399.29 28.0492C400.609 28.0492 401.678 29.1206 401.678 30.4426Z" fill="#9FD9F1"/>
<path fill-rule="evenodd" clip-rule="evenodd" d="M346.774 43.6066C346.774 44.9286 345.706 46 344.386 46C343.069 46 342 44.9286 342 43.6066C342 42.2846 343.069 41.2131 344.386 41.2131C345.706 41.2131 346.774 42.2846 346.774 43.6066Z" fill="#9FD9F1"/>
<path fill-rule="evenodd" clip-rule="evenodd" d="M361.097 43.6066C361.097 44.9286 360.028 46 358.709 46C357.391 46 356.323 44.9286 356.323 43.6066C356.323 42.2846 357.391 41.2131 358.709 41.2131C360.028 41.2131 361.097 42.2846 361.097 43.6066Z" fill="#9FD9F1"/>
<path fill-rule="evenodd" clip-rule="evenodd" d="M374.226 43.6066C374.226 44.9286 373.157 46 371.839 46C370.52 46 369.452 44.9286 369.452 43.6066C369.452 42.2846 370.52 41.2131 371.839 41.2131C373.157 41.2131 374.226 42.2846 374.226 43.6066Z" fill="#9FD9F1"/>
<path fill-rule="evenodd" clip-rule="evenodd" d="M388.549 43.6066C388.549 44.9286 387.48 46 386.16 46C384.842 46 383.774 44.9286 383.774 43.6066C383.774 42.2846 384.842 41.2131 386.16 41.2131C387.48 41.2131 388.549 42.2846 388.549 43.6066Z" fill="#9FD9F1"/>
<path fill-rule="evenodd" clip-rule="evenodd" d="M401.678 43.6066C401.678 44.9286 400.609 46 399.29 46C397.972 46 396.903 44.9286 396.903 43.6066C396.903 42.2846 397.972 41.2131 399.29 41.2131C400.609 41.2131 401.678 42.2846 401.678 43.6066Z" fill="#9FD9F1"/>
<path fill-rule="evenodd" clip-rule="evenodd" d="M416 3.51666C416 5.16836 414.932 6.50814 413.612 6.50814C412.294 6.50814 411.226 5.16836 411.226 3.51666C411.226 1.86432 412.294 0.524536 413.612 0.524536C414.932 0.524536 416 1.86432 416 3.51666Z" fill="#9FD9F1"/>
<path fill-rule="evenodd" clip-rule="evenodd" d="M416 16.68C416 18.3323 414.932 19.6721 413.612 19.6721C412.294 19.6721 411.226 18.3323 411.226 16.68C411.226 15.0283 412.294 13.6885 413.612 13.6885C414.932 13.6885 416 15.0283 416 16.68Z" fill="#9FD9F1"/>
<path fill-rule="evenodd" clip-rule="evenodd" d="M416 30.4426C416 31.7641 414.932 32.8361 413.612 32.8361C412.294 32.8361 411.226 31.7641 411.226 30.4426C411.226 29.1206 412.294 28.0492 413.612 28.0492C414.932 28.0492 416 29.1206 416 30.4426Z" fill="#9FD9F1"/>
<path fill-rule="evenodd" clip-rule="evenodd" d="M416 43.6066C416 44.9286 414.932 46 413.612 46C412.294 46 411.226 44.9286 411.226 43.6066C411.226 42.2846 412.294 41.2131 413.612 41.2131C414.932 41.2131 416 42.2846 416 43.6066Z" fill="#9FD9F1"/>
</svg>
