<svg width="254" height="495" viewBox="0 0 254 495" fill="none" xmlns="http://www.w3.org/2000/svg">
<path fill-rule="evenodd" clip-rule="evenodd" d="M24.2289 346.276C24.2289 349.06 21.737 351.317 18.6585 351.317C15.5836 351.317 13.0906 349.06 13.0906 346.276C13.0906 343.491 15.5836 341.234 18.6585 341.234C21.737 341.234 24.2289 343.491 24.2289 346.276Z" fill="#DFDFDF" fill-opacity="0.38"/>
<path fill-rule="evenodd" clip-rule="evenodd" d="M24.2289 374.004C24.2289 376.788 21.737 379.045 18.6585 379.045C15.5836 379.045 13.0906 376.788 13.0906 374.004C13.0906 371.22 15.5836 368.962 18.6585 368.962C21.737 368.962 24.2289 371.22 24.2289 374.004Z" fill="#DFDFDF" fill-opacity="0.38"/>
<path fill-rule="evenodd" clip-rule="evenodd" d="M24.2289 405.514C24.2289 408.993 21.737 411.815 18.6585 411.815C15.5836 411.815 13.0906 408.993 13.0906 405.514C13.0906 402.034 15.5836 399.211 18.6585 399.211C21.737 399.211 24.2289 402.034 24.2289 405.514Z" fill="#DFDFDF" fill-opacity="0.38"/>
<path fill-rule="evenodd" clip-rule="evenodd" d="M24.2289 433.241C24.2289 436.721 21.737 439.543 18.6585 439.543C15.5836 439.543 13.0906 436.721 13.0906 433.241C13.0906 429.762 15.5836 426.94 18.6585 426.94C21.737 426.94 24.2289 429.762 24.2289 433.241Z" fill="#DFDFDF" fill-opacity="0.38"/>
<path fill-rule="evenodd" clip-rule="evenodd" d="M24.2289 462.23C24.2289 465.014 21.737 467.271 18.6585 467.271C15.5836 467.271 13.0906 465.014 13.0906 462.23C13.0906 459.445 15.5836 457.188 18.6585 457.188C21.737 457.188 24.2289 459.445 24.2289 462.23Z" fill="#DFDFDF" fill-opacity="0.38"/>
<path fill-rule="evenodd" clip-rule="evenodd" d="M24.2289 489.958C24.2289 492.743 21.737 495 18.6585 495C15.5836 495 13.0906 492.743 13.0906 489.958C13.0906 487.174 15.5836 484.917 18.6585 484.917C21.737 484.917 24.2289 487.174 24.2289 489.958Z" fill="#DFDFDF" fill-opacity="0.38"/>
<path fill-rule="evenodd" clip-rule="evenodd" d="M57.6437 346.276C57.6437 349.06 55.1518 351.317 52.0733 351.317C48.9984 351.317 46.5054 349.06 46.5054 346.276C46.5054 343.491 48.9984 341.234 52.0733 341.234C55.1518 341.234 57.6437 343.491 57.6437 346.276Z" fill="#DFDFDF" fill-opacity="0.38"/>
<path fill-rule="evenodd" clip-rule="evenodd" d="M57.6437 374.004C57.6437 376.788 55.1518 379.045 52.0733 379.045C48.9984 379.045 46.5054 376.788 46.5054 374.004C46.5054 371.22 48.9984 368.962 52.0733 368.962C55.1518 368.962 57.6437 371.22 57.6437 374.004Z" fill="#DFDFDF" fill-opacity="0.38"/>
<path fill-rule="evenodd" clip-rule="evenodd" d="M57.6437 405.514C57.6437 408.993 55.1518 411.815 52.0733 411.815C48.9984 411.815 46.5054 408.993 46.5054 405.514C46.5054 402.034 48.9984 399.211 52.0733 399.211C55.1518 399.211 57.6437 402.034 57.6437 405.514Z" fill="#DFDFDF" fill-opacity="0.38"/>
<path fill-rule="evenodd" clip-rule="evenodd" d="M57.6437 433.241C57.6437 436.721 55.1518 439.543 52.0733 439.543C48.9984 439.543 46.5054 436.721 46.5054 433.241C46.5054 429.762 48.9984 426.94 52.0733 426.94C55.1518 426.94 57.6437 429.762 57.6437 433.241Z" fill="#DFDFDF" fill-opacity="0.38"/>
<path fill-rule="evenodd" clip-rule="evenodd" d="M57.6437 462.23C57.6437 465.014 55.1518 467.271 52.0733 467.271C48.9984 467.271 46.5054 465.014 46.5054 462.23C46.5054 459.445 48.9984 457.188 52.0733 457.188C55.1518 457.188 57.6437 459.445 57.6437 462.23Z" fill="#DFDFDF" fill-opacity="0.38"/>
<path fill-rule="evenodd" clip-rule="evenodd" d="M57.6437 489.958C57.6437 492.743 55.1518 495 52.0733 495C48.9984 495 46.5054 492.743 46.5054 489.958C46.5054 487.174 48.9984 484.917 52.0733 484.917C55.1518 484.917 57.6437 487.174 57.6437 489.958Z" fill="#DFDFDF" fill-opacity="0.38"/>
<path fill-rule="evenodd" clip-rule="evenodd" d="M92.1122 346.276C92.1122 349.06 89.6191 351.317 86.5406 351.317C83.4669 351.317 80.9739 349.06 80.9739 346.276C80.9739 343.491 83.4669 341.234 86.5406 341.234C89.6191 341.234 92.1122 343.491 92.1122 346.276Z" fill="#DFDFDF" fill-opacity="0.38"/>
<path fill-rule="evenodd" clip-rule="evenodd" d="M125.527 346.276C125.527 349.06 123.034 351.317 119.956 351.317C116.881 351.317 114.388 349.06 114.388 346.276C114.388 343.491 116.881 341.234 119.956 341.234C123.034 341.234 125.527 343.491 125.527 346.276Z" fill="#DFDFDF" fill-opacity="0.38"/>
<path fill-rule="evenodd" clip-rule="evenodd" d="M156.157 346.276C156.157 349.06 153.664 351.317 150.588 351.317C147.511 351.317 145.019 349.06 145.019 346.276C145.019 343.491 147.511 341.234 150.588 341.234C153.664 341.234 156.157 343.491 156.157 346.276Z" fill="#DFDFDF" fill-opacity="0.38"/>
<path fill-rule="evenodd" clip-rule="evenodd" d="M189.572 346.276C189.572 349.06 187.078 351.317 184 351.317C180.925 351.317 178.434 349.06 178.434 346.276C178.434 343.491 180.925 341.234 184 341.234C187.078 341.234 189.572 343.491 189.572 346.276Z" fill="#DFDFDF" fill-opacity="0.38"/>
<path fill-rule="evenodd" clip-rule="evenodd" d="M220.202 346.276C220.202 349.06 217.711 351.317 214.632 351.317C211.557 351.317 209.064 349.06 209.064 346.276C209.064 343.491 211.557 341.234 214.632 341.234C217.711 341.234 220.202 343.491 220.202 346.276Z" fill="#DFDFDF" fill-opacity="0.38"/>
<path fill-rule="evenodd" clip-rule="evenodd" d="M92.1122 374.003C92.1122 376.788 89.6191 379.045 86.5406 379.045C83.4669 379.045 80.9739 376.788 80.9739 374.003C80.9739 371.22 83.4669 368.962 86.5406 368.962C89.6191 368.962 92.1122 371.22 92.1122 374.003Z" fill="#DFDFDF" fill-opacity="0.38"/>
<path fill-rule="evenodd" clip-rule="evenodd" d="M125.527 374.003C125.527 376.788 123.034 379.045 119.956 379.045C116.881 379.045 114.388 376.788 114.388 374.003C114.388 371.22 116.881 368.962 119.956 368.962C123.034 368.962 125.527 371.22 125.527 374.003Z" fill="#DFDFDF" fill-opacity="0.38"/>
<path fill-rule="evenodd" clip-rule="evenodd" d="M156.157 374.003C156.157 376.788 153.664 379.045 150.588 379.045C147.511 379.045 145.019 376.788 145.019 374.003C145.019 371.22 147.511 368.962 150.588 368.962C153.664 368.962 156.157 371.22 156.157 374.003Z" fill="#DFDFDF" fill-opacity="0.38"/>
<path fill-rule="evenodd" clip-rule="evenodd" d="M189.572 374.003C189.572 376.788 187.078 379.045 184 379.045C180.925 379.045 178.434 376.788 178.434 374.003C178.434 371.22 180.925 368.962 184 368.962C187.078 368.962 189.572 371.22 189.572 374.003Z" fill="#DFDFDF" fill-opacity="0.38"/>
<path fill-rule="evenodd" clip-rule="evenodd" d="M220.202 374.003C220.202 376.788 217.711 379.045 214.632 379.045C211.557 379.045 209.064 376.788 209.064 374.003C209.064 371.22 211.557 368.962 214.632 368.962C217.711 368.962 220.202 371.22 220.202 374.003Z" fill="#DFDFDF" fill-opacity="0.38"/>
<path fill-rule="evenodd" clip-rule="evenodd" d="M92.1122 405.514C92.1122 408.993 89.6191 411.815 86.5406 411.815C83.4669 411.815 80.9739 408.993 80.9739 405.514C80.9739 402.034 83.4669 399.211 86.5406 399.211C89.6191 399.211 92.1122 402.034 92.1122 405.514Z" fill="#DFDFDF" fill-opacity="0.38"/>
<path fill-rule="evenodd" clip-rule="evenodd" d="M125.527 405.514C125.527 408.993 123.034 411.815 119.956 411.815C116.881 411.815 114.388 408.993 114.388 405.514C114.388 402.034 116.881 399.211 119.956 399.211C123.034 399.211 125.527 402.034 125.527 405.514Z" fill="#DFDFDF" fill-opacity="0.38"/>
<path fill-rule="evenodd" clip-rule="evenodd" d="M156.157 405.514C156.157 408.993 153.664 411.815 150.588 411.815C147.511 411.815 145.019 408.993 145.019 405.514C145.019 402.034 147.511 399.211 150.588 399.211C153.664 399.211 156.157 402.034 156.157 405.514Z" fill="#DFDFDF" fill-opacity="0.38"/>
<path fill-rule="evenodd" clip-rule="evenodd" d="M189.572 405.514C189.572 408.993 187.078 411.815 184 411.815C180.925 411.815 178.434 408.993 178.434 405.514C178.434 402.034 180.925 399.211 184 399.211C187.078 399.211 189.572 402.034 189.572 405.514Z" fill="#DFDFDF" fill-opacity="0.38"/>
<path fill-rule="evenodd" clip-rule="evenodd" d="M220.202 405.514C220.202 408.993 217.711 411.815 214.632 411.815C211.557 411.815 209.064 408.993 209.064 405.514C209.064 402.034 211.557 399.211 214.632 399.211C217.711 399.211 220.202 402.034 220.202 405.514Z" fill="#DFDFDF" fill-opacity="0.38"/>
<path fill-rule="evenodd" clip-rule="evenodd" d="M92.1122 433.241C92.1122 436.721 89.6191 439.543 86.5406 439.543C83.4669 439.543 80.9739 436.721 80.9739 433.241C80.9739 429.762 83.4669 426.94 86.5406 426.94C89.6191 426.94 92.1122 429.762 92.1122 433.241Z" fill="#DFDFDF" fill-opacity="0.38"/>
<path fill-rule="evenodd" clip-rule="evenodd" d="M125.527 433.241C125.527 436.721 123.034 439.543 119.956 439.543C116.881 439.543 114.388 436.721 114.388 433.241C114.388 429.762 116.881 426.94 119.956 426.94C123.034 426.94 125.527 429.762 125.527 433.241Z" fill="#DFDFDF" fill-opacity="0.38"/>
<path fill-rule="evenodd" clip-rule="evenodd" d="M156.157 433.241C156.157 436.721 153.664 439.543 150.588 439.543C147.511 439.543 145.019 436.721 145.019 433.241C145.019 429.762 147.511 426.94 150.588 426.94C153.664 426.94 156.157 429.762 156.157 433.241Z" fill="#DFDFDF" fill-opacity="0.38"/>
<path fill-rule="evenodd" clip-rule="evenodd" d="M189.572 433.241C189.572 436.721 187.078 439.543 184 439.543C180.925 439.543 178.434 436.721 178.434 433.241C178.434 429.762 180.925 426.94 184 426.94C187.078 426.94 189.572 429.762 189.572 433.241Z" fill="#DFDFDF" fill-opacity="0.38"/>
<path fill-rule="evenodd" clip-rule="evenodd" d="M220.202 433.241C220.202 436.721 217.711 439.543 214.632 439.543C211.557 439.543 209.064 436.721 209.064 433.241C209.064 429.762 211.557 426.94 214.632 426.94C217.711 426.94 220.202 429.762 220.202 433.241Z" fill="#DFDFDF" fill-opacity="0.38"/>
<path fill-rule="evenodd" clip-rule="evenodd" d="M92.1122 462.23C92.1122 465.013 89.6191 467.271 86.5406 467.271C83.4669 467.271 80.9739 465.013 80.9739 462.23C80.9739 459.445 83.4669 457.188 86.5406 457.188C89.6191 457.188 92.1122 459.445 92.1122 462.23Z" fill="#DFDFDF" fill-opacity="0.38"/>
<path fill-rule="evenodd" clip-rule="evenodd" d="M125.527 462.23C125.527 465.013 123.034 467.271 119.956 467.271C116.881 467.271 114.388 465.013 114.388 462.23C114.388 459.445 116.881 457.188 119.956 457.188C123.034 457.188 125.527 459.445 125.527 462.23Z" fill="#DFDFDF" fill-opacity="0.38"/>
<path fill-rule="evenodd" clip-rule="evenodd" d="M156.157 462.23C156.157 465.013 153.664 467.271 150.588 467.271C147.511 467.271 145.019 465.013 145.019 462.23C145.019 459.445 147.511 457.188 150.588 457.188C153.664 457.188 156.157 459.445 156.157 462.23Z" fill="#DFDFDF" fill-opacity="0.38"/>
<path fill-rule="evenodd" clip-rule="evenodd" d="M189.572 462.23C189.572 465.013 187.078 467.271 184 467.271C180.925 467.271 178.434 465.013 178.434 462.23C178.434 459.445 180.925 457.188 184 457.188C187.078 457.188 189.572 459.445 189.572 462.23Z" fill="#DFDFDF" fill-opacity="0.38"/>
<path fill-rule="evenodd" clip-rule="evenodd" d="M220.202 462.23C220.202 465.013 217.711 467.271 214.632 467.271C211.557 467.271 209.064 465.013 209.064 462.23C209.064 459.445 211.557 457.188 214.632 457.188C217.711 457.188 220.202 459.445 220.202 462.23Z" fill="#DFDFDF" fill-opacity="0.38"/>
<path fill-rule="evenodd" clip-rule="evenodd" d="M92.1122 489.958C92.1122 492.743 89.6191 495 86.5406 495C83.4669 495 80.9739 492.743 80.9739 489.958C80.9739 487.174 83.4669 484.917 86.5406 484.917C89.6191 484.917 92.1122 487.174 92.1122 489.958Z" fill="#DFDFDF" fill-opacity="0.38"/>
<path fill-rule="evenodd" clip-rule="evenodd" d="M125.527 489.958C125.527 492.743 123.034 495 119.956 495C116.881 495 114.388 492.743 114.388 489.958C114.388 487.174 116.881 484.917 119.956 484.917C123.034 484.917 125.527 487.174 125.527 489.958Z" fill="#DFDFDF" fill-opacity="0.38"/>
<path fill-rule="evenodd" clip-rule="evenodd" d="M156.157 489.958C156.157 492.743 153.664 495 150.588 495C147.511 495 145.019 492.743 145.019 489.958C145.019 487.174 147.511 484.917 150.588 484.917C153.664 484.917 156.157 487.174 156.157 489.958Z" fill="#DFDFDF" fill-opacity="0.38"/>
<path fill-rule="evenodd" clip-rule="evenodd" d="M189.572 489.958C189.572 492.743 187.078 495 184 495C180.925 495 178.434 492.743 178.434 489.958C178.434 487.174 180.925 484.917 184 484.917C187.078 484.917 189.572 487.174 189.572 489.958Z" fill="#DFDFDF" fill-opacity="0.38"/>
<path fill-rule="evenodd" clip-rule="evenodd" d="M220.202 489.958C220.202 492.743 217.711 495 214.632 495C211.557 495 209.064 492.743 209.064 489.958C209.064 487.174 211.557 484.917 214.632 484.917C217.711 484.917 220.202 487.174 220.202 489.958Z" fill="#DFDFDF" fill-opacity="0.38"/>
<path fill-rule="evenodd" clip-rule="evenodd" d="M253.617 346.276C253.617 349.06 251.125 351.317 248.046 351.317C244.972 351.317 242.479 349.06 242.479 346.276C242.479 343.491 244.972 341.234 248.046 341.234C251.125 341.234 253.617 343.491 253.617 346.276Z" fill="#DFDFDF" fill-opacity="0.38"/>
<path fill-rule="evenodd" clip-rule="evenodd" d="M253.617 374.003C253.617 376.788 251.125 379.045 248.046 379.045C244.972 379.045 242.479 376.788 242.479 374.003C242.479 371.22 244.972 368.962 248.046 368.962C251.125 368.962 253.617 371.22 253.617 374.003Z" fill="#DFDFDF" fill-opacity="0.38"/>
<path fill-rule="evenodd" clip-rule="evenodd" d="M253.617 405.514C253.617 408.993 251.125 411.815 248.046 411.815C244.972 411.815 242.479 408.993 242.479 405.514C242.479 402.034 244.972 399.211 248.046 399.211C251.125 399.211 253.617 402.034 253.617 405.514Z" fill="#DFDFDF" fill-opacity="0.38"/>
<path fill-rule="evenodd" clip-rule="evenodd" d="M253.617 433.241C253.617 436.721 251.125 439.543 248.046 439.543C244.972 439.543 242.479 436.721 242.479 433.241C242.479 429.762 244.972 426.94 248.046 426.94C251.125 426.94 253.617 429.762 253.617 433.241Z" fill="#DFDFDF" fill-opacity="0.38"/>
<path fill-rule="evenodd" clip-rule="evenodd" d="M253.617 462.23C253.617 465.013 251.125 467.271 248.046 467.271C244.972 467.271 242.479 465.013 242.479 462.23C242.479 459.445 244.972 457.188 248.046 457.188C251.125 457.188 253.617 459.445 253.617 462.23Z" fill="#DFDFDF" fill-opacity="0.38"/>
<path fill-rule="evenodd" clip-rule="evenodd" d="M253.617 489.958C253.617 492.743 251.125 495 248.046 495C244.972 495 242.479 492.743 242.479 489.958C242.479 487.174 244.972 484.917 248.046 484.917C251.125 484.917 253.617 487.174 253.617 489.958Z" fill="#DFDFDF" fill-opacity="0.38"/>
<path fill-rule="evenodd" clip-rule="evenodd" d="M24.2289 171.446C24.2289 174.231 21.737 176.487 18.6585 176.487C15.5836 176.487 13.0906 174.231 13.0906 171.446C13.0906 168.661 15.5836 166.404 18.6585 166.404C21.737 166.404 24.2289 168.661 24.2289 171.446Z" fill="#DFDFDF" fill-opacity="0.38"/>
<path fill-rule="evenodd" clip-rule="evenodd" d="M24.2289 199.174C24.2289 201.958 21.737 204.215 18.6585 204.215C15.5836 204.215 13.0906 201.958 13.0906 199.174C13.0906 196.39 15.5836 194.132 18.6585 194.132C21.737 194.132 24.2289 196.39 24.2289 199.174Z" fill="#DFDFDF" fill-opacity="0.38"/>
<path fill-rule="evenodd" clip-rule="evenodd" d="M24.2289 230.684C24.2289 234.163 21.737 236.986 18.6585 236.986C15.5836 236.986 13.0906 234.163 13.0906 230.684C13.0906 227.204 15.5836 224.382 18.6585 224.382C21.737 224.382 24.2289 227.204 24.2289 230.684Z" fill="#DFDFDF" fill-opacity="0.38"/>
<path fill-rule="evenodd" clip-rule="evenodd" d="M24.2289 258.411C24.2289 261.892 21.737 264.714 18.6585 264.714C15.5836 264.714 13.0906 261.892 13.0906 258.411C13.0906 254.932 15.5836 252.11 18.6585 252.11C21.737 252.11 24.2289 254.932 24.2289 258.411Z" fill="#DFDFDF" fill-opacity="0.38"/>
<path fill-rule="evenodd" clip-rule="evenodd" d="M24.2289 287.4C24.2289 290.184 21.737 292.442 18.6585 292.442C15.5836 292.442 13.0906 290.184 13.0906 287.4C13.0906 284.616 15.5836 282.359 18.6585 282.359C21.737 282.359 24.2289 284.616 24.2289 287.4Z" fill="#DFDFDF" fill-opacity="0.38"/>
<path fill-rule="evenodd" clip-rule="evenodd" d="M24.2289 315.129C24.2289 317.913 21.737 320.17 18.6585 320.17C15.5836 320.17 13.0906 317.913 13.0906 315.129C13.0906 312.344 15.5836 310.087 18.6585 310.087C21.737 310.087 24.2289 312.344 24.2289 315.129Z" fill="#DFDFDF" fill-opacity="0.38"/>
<path fill-rule="evenodd" clip-rule="evenodd" d="M57.6437 171.446C57.6437 174.231 55.1518 176.487 52.0733 176.487C48.9984 176.487 46.5054 174.231 46.5054 171.446C46.5054 168.661 48.9984 166.404 52.0733 166.404C55.1518 166.404 57.6437 168.661 57.6437 171.446Z" fill="#DFDFDF" fill-opacity="0.38"/>
<path fill-rule="evenodd" clip-rule="evenodd" d="M57.6437 199.174C57.6437 201.958 55.1518 204.215 52.0733 204.215C48.9984 204.215 46.5054 201.958 46.5054 199.174C46.5054 196.39 48.9984 194.132 52.0733 194.132C55.1518 194.132 57.6437 196.39 57.6437 199.174Z" fill="#DFDFDF" fill-opacity="0.38"/>
<path fill-rule="evenodd" clip-rule="evenodd" d="M57.6437 230.684C57.6437 234.163 55.1518 236.986 52.0733 236.986C48.9984 236.986 46.5054 234.163 46.5054 230.684C46.5054 227.204 48.9984 224.382 52.0733 224.382C55.1518 224.382 57.6437 227.204 57.6437 230.684Z" fill="#DFDFDF" fill-opacity="0.38"/>
<path fill-rule="evenodd" clip-rule="evenodd" d="M57.6437 258.411C57.6437 261.892 55.1518 264.714 52.0733 264.714C48.9984 264.714 46.5054 261.892 46.5054 258.411C46.5054 254.932 48.9984 252.11 52.0733 252.11C55.1518 252.11 57.6437 254.932 57.6437 258.411Z" fill="#DFDFDF" fill-opacity="0.38"/>
<path fill-rule="evenodd" clip-rule="evenodd" d="M57.6437 287.4C57.6437 290.184 55.1518 292.442 52.0733 292.442C48.9984 292.442 46.5054 290.184 46.5054 287.4C46.5054 284.616 48.9984 282.359 52.0733 282.359C55.1518 282.359 57.6437 284.616 57.6437 287.4Z" fill="#DFDFDF" fill-opacity="0.38"/>
<path fill-rule="evenodd" clip-rule="evenodd" d="M57.6437 315.129C57.6437 317.913 55.1518 320.17 52.0733 320.17C48.9984 320.17 46.5054 317.913 46.5054 315.129C46.5054 312.344 48.9984 310.087 52.0733 310.087C55.1518 310.087 57.6437 312.344 57.6437 315.129Z" fill="#DFDFDF" fill-opacity="0.38"/>
<path fill-rule="evenodd" clip-rule="evenodd" d="M92.1122 171.446C92.1122 174.231 89.6191 176.488 86.5406 176.488C83.4669 176.488 80.9739 174.231 80.9739 171.446C80.9739 168.662 83.4669 166.405 86.5406 166.405C89.6191 166.405 92.1122 168.662 92.1122 171.446Z" fill="#DFDFDF" fill-opacity="0.38"/>
<path fill-rule="evenodd" clip-rule="evenodd" d="M125.527 171.446C125.527 174.231 123.034 176.487 119.956 176.487C116.881 176.487 114.388 174.231 114.388 171.446C114.388 168.661 116.881 166.404 119.956 166.404C123.034 166.404 125.527 168.661 125.527 171.446Z" fill="#DFDFDF" fill-opacity="0.38"/>
<path fill-rule="evenodd" clip-rule="evenodd" d="M156.157 171.446C156.157 174.231 153.664 176.487 150.588 176.487C147.511 176.487 145.019 174.231 145.019 171.446C145.019 168.661 147.511 166.404 150.588 166.404C153.664 166.404 156.157 168.661 156.157 171.446Z" fill="#DFDFDF" fill-opacity="0.38"/>
<path fill-rule="evenodd" clip-rule="evenodd" d="M189.572 171.446C189.572 174.231 187.078 176.487 184 176.487C180.925 176.487 178.434 174.231 178.434 171.446C178.434 168.661 180.925 166.404 184 166.404C187.078 166.404 189.572 168.661 189.572 171.446Z" fill="#DFDFDF" fill-opacity="0.38"/>
<path fill-rule="evenodd" clip-rule="evenodd" d="M220.202 171.446C220.202 174.231 217.711 176.487 214.632 176.487C211.557 176.487 209.064 174.231 209.064 171.446C209.064 168.661 211.557 166.404 214.632 166.404C217.711 166.404 220.202 168.661 220.202 171.446Z" fill="#DFDFDF" fill-opacity="0.38"/>
<path fill-rule="evenodd" clip-rule="evenodd" d="M92.1122 199.174C92.1122 201.959 89.6191 204.215 86.5406 204.215C83.4669 204.215 80.9739 201.959 80.9739 199.174C80.9739 196.39 83.4669 194.132 86.5406 194.132C89.6191 194.132 92.1122 196.39 92.1122 199.174Z" fill="#DFDFDF" fill-opacity="0.38"/>
<path fill-rule="evenodd" clip-rule="evenodd" d="M125.527 199.174C125.527 201.959 123.034 204.215 119.956 204.215C116.881 204.215 114.388 201.959 114.388 199.174C114.388 196.39 116.881 194.132 119.956 194.132C123.034 194.132 125.527 196.39 125.527 199.174Z" fill="#DFDFDF" fill-opacity="0.38"/>
<path fill-rule="evenodd" clip-rule="evenodd" d="M156.157 199.174C156.157 201.959 153.664 204.215 150.588 204.215C147.511 204.215 145.019 201.959 145.019 199.174C145.019 196.39 147.511 194.132 150.588 194.132C153.664 194.132 156.157 196.39 156.157 199.174Z" fill="#DFDFDF" fill-opacity="0.38"/>
<path fill-rule="evenodd" clip-rule="evenodd" d="M189.572 199.174C189.572 201.959 187.078 204.215 184 204.215C180.925 204.215 178.434 201.959 178.434 199.174C178.434 196.39 180.925 194.132 184 194.132C187.078 194.132 189.572 196.39 189.572 199.174Z" fill="#DFDFDF" fill-opacity="0.38"/>
<path fill-rule="evenodd" clip-rule="evenodd" d="M220.202 199.174C220.202 201.959 217.711 204.215 214.632 204.215C211.557 204.215 209.064 201.959 209.064 199.174C209.064 196.39 211.557 194.132 214.632 194.132C217.711 194.132 220.202 196.39 220.202 199.174Z" fill="#DFDFDF" fill-opacity="0.38"/>
<path fill-rule="evenodd" clip-rule="evenodd" d="M92.1122 230.684C92.1122 234.163 89.6191 236.986 86.5406 236.986C83.4669 236.986 80.9739 234.163 80.9739 230.684C80.9739 227.204 83.4669 224.382 86.5406 224.382C89.6191 224.382 92.1122 227.204 92.1122 230.684Z" fill="#DFDFDF" fill-opacity="0.38"/>
<path fill-rule="evenodd" clip-rule="evenodd" d="M125.527 230.684C125.527 234.163 123.034 236.986 119.956 236.986C116.881 236.986 114.388 234.163 114.388 230.684C114.388 227.204 116.881 224.382 119.956 224.382C123.034 224.382 125.527 227.204 125.527 230.684Z" fill="#DFDFDF" fill-opacity="0.38"/>
<path fill-rule="evenodd" clip-rule="evenodd" d="M156.157 230.684C156.157 234.163 153.664 236.986 150.588 236.986C147.511 236.986 145.019 234.163 145.019 230.684C145.019 227.204 147.511 224.382 150.588 224.382C153.664 224.382 156.157 227.204 156.157 230.684Z" fill="#DFDFDF" fill-opacity="0.38"/>
<path fill-rule="evenodd" clip-rule="evenodd" d="M189.572 230.684C189.572 234.163 187.078 236.986 184 236.986C180.925 236.986 178.434 234.163 178.434 230.684C178.434 227.204 180.925 224.382 184 224.382C187.078 224.382 189.572 227.204 189.572 230.684Z" fill="#DFDFDF" fill-opacity="0.38"/>
<path fill-rule="evenodd" clip-rule="evenodd" d="M220.202 230.684C220.202 234.163 217.711 236.986 214.632 236.986C211.557 236.986 209.064 234.163 209.064 230.684C209.064 227.204 211.557 224.382 214.632 224.382C217.711 224.382 220.202 227.204 220.202 230.684Z" fill="#DFDFDF" fill-opacity="0.38"/>
<path fill-rule="evenodd" clip-rule="evenodd" d="M92.1122 258.411C92.1122 261.892 89.6191 264.714 86.5406 264.714C83.4669 264.714 80.9739 261.892 80.9739 258.411C80.9739 254.932 83.4669 252.11 86.5406 252.11C89.6191 252.11 92.1122 254.932 92.1122 258.411Z" fill="#DFDFDF" fill-opacity="0.38"/>
<path fill-rule="evenodd" clip-rule="evenodd" d="M125.527 258.411C125.527 261.892 123.034 264.714 119.956 264.714C116.881 264.714 114.388 261.892 114.388 258.411C114.388 254.932 116.881 252.11 119.956 252.11C123.034 252.11 125.527 254.932 125.527 258.411Z" fill="#DFDFDF" fill-opacity="0.38"/>
<path fill-rule="evenodd" clip-rule="evenodd" d="M156.157 258.411C156.157 261.892 153.664 264.714 150.588 264.714C147.511 264.714 145.019 261.892 145.019 258.411C145.019 254.932 147.511 252.11 150.588 252.11C153.664 252.11 156.157 254.932 156.157 258.411Z" fill="#DFDFDF" fill-opacity="0.38"/>
<path fill-rule="evenodd" clip-rule="evenodd" d="M189.572 258.411C189.572 261.892 187.078 264.714 184 264.714C180.925 264.714 178.434 261.892 178.434 258.411C178.434 254.932 180.925 252.11 184 252.11C187.078 252.11 189.572 254.932 189.572 258.411Z" fill="#DFDFDF" fill-opacity="0.38"/>
<path fill-rule="evenodd" clip-rule="evenodd" d="M220.202 258.411C220.202 261.892 217.711 264.714 214.632 264.714C211.557 264.714 209.064 261.892 209.064 258.411C209.064 254.932 211.557 252.11 214.632 252.11C217.711 252.11 220.202 254.932 220.202 258.411Z" fill="#DFDFDF" fill-opacity="0.38"/>
<path fill-rule="evenodd" clip-rule="evenodd" d="M92.1122 287.4C92.1122 290.184 89.6191 292.442 86.5406 292.442C83.4669 292.442 80.9739 290.184 80.9739 287.4C80.9739 284.616 83.4669 282.359 86.5406 282.359C89.6191 282.359 92.1122 284.616 92.1122 287.4Z" fill="#DFDFDF" fill-opacity="0.38"/>
<path fill-rule="evenodd" clip-rule="evenodd" d="M125.527 287.4C125.527 290.184 123.034 292.442 119.956 292.442C116.881 292.442 114.388 290.184 114.388 287.4C114.388 284.616 116.881 282.359 119.956 282.359C123.034 282.359 125.527 284.616 125.527 287.4Z" fill="#DFDFDF" fill-opacity="0.38"/>
<path fill-rule="evenodd" clip-rule="evenodd" d="M156.157 287.4C156.157 290.184 153.664 292.442 150.588 292.442C147.511 292.442 145.019 290.184 145.019 287.4C145.019 284.616 147.511 282.359 150.588 282.359C153.664 282.359 156.157 284.616 156.157 287.4Z" fill="#DFDFDF" fill-opacity="0.38"/>
<path fill-rule="evenodd" clip-rule="evenodd" d="M189.572 287.4C189.572 290.184 187.078 292.442 184 292.442C180.925 292.442 178.434 290.184 178.434 287.4C178.434 284.616 180.925 282.359 184 282.359C187.078 282.359 189.572 284.616 189.572 287.4Z" fill="#DFDFDF" fill-opacity="0.38"/>
<path fill-rule="evenodd" clip-rule="evenodd" d="M220.202 287.4C220.202 290.184 217.711 292.442 214.632 292.442C211.557 292.442 209.064 290.184 209.064 287.4C209.064 284.616 211.557 282.359 214.632 282.359C217.711 282.359 220.202 284.616 220.202 287.4Z" fill="#DFDFDF" fill-opacity="0.38"/>
<path fill-rule="evenodd" clip-rule="evenodd" d="M92.1122 315.129C92.1122 317.914 89.6191 320.17 86.5406 320.17C83.4669 320.17 80.9739 317.914 80.9739 315.129C80.9739 312.344 83.4669 310.087 86.5406 310.087C89.6191 310.087 92.1122 312.344 92.1122 315.129Z" fill="#DFDFDF" fill-opacity="0.38"/>
<path fill-rule="evenodd" clip-rule="evenodd" d="M125.527 315.129C125.527 317.914 123.034 320.17 119.956 320.17C116.881 320.17 114.388 317.914 114.388 315.129C114.388 312.344 116.881 310.087 119.956 310.087C123.034 310.087 125.527 312.344 125.527 315.129Z" fill="#DFDFDF" fill-opacity="0.38"/>
<path fill-rule="evenodd" clip-rule="evenodd" d="M156.157 315.129C156.157 317.914 153.664 320.17 150.588 320.17C147.511 320.17 145.019 317.914 145.019 315.129C145.019 312.344 147.511 310.087 150.588 310.087C153.664 310.087 156.157 312.344 156.157 315.129Z" fill="#DFDFDF" fill-opacity="0.38"/>
<path fill-rule="evenodd" clip-rule="evenodd" d="M189.572 315.129C189.572 317.914 187.078 320.17 184 320.17C180.925 320.17 178.434 317.914 178.434 315.129C178.434 312.344 180.925 310.087 184 310.087C187.078 310.087 189.572 312.344 189.572 315.129Z" fill="#DFDFDF" fill-opacity="0.38"/>
<path fill-rule="evenodd" clip-rule="evenodd" d="M220.202 315.129C220.202 317.914 217.711 320.17 214.632 320.17C211.557 320.17 209.064 317.914 209.064 315.129C209.064 312.344 211.557 310.087 214.632 310.087C217.711 310.087 220.202 312.344 220.202 315.129Z" fill="#DFDFDF" fill-opacity="0.38"/>
<path fill-rule="evenodd" clip-rule="evenodd" d="M253.617 171.446C253.617 174.231 251.125 176.487 248.046 176.487C244.972 176.487 242.479 174.231 242.479 171.446C242.479 168.661 244.972 166.404 248.046 166.404C251.125 166.404 253.617 168.661 253.617 171.446Z" fill="#DFDFDF" fill-opacity="0.38"/>
<path fill-rule="evenodd" clip-rule="evenodd" d="M253.617 199.174C253.617 201.959 251.125 204.215 248.046 204.215C244.972 204.215 242.479 201.959 242.479 199.174C242.479 196.39 244.972 194.132 248.046 194.132C251.125 194.132 253.617 196.39 253.617 199.174Z" fill="#DFDFDF" fill-opacity="0.38"/>
<path fill-rule="evenodd" clip-rule="evenodd" d="M253.617 230.684C253.617 234.163 251.125 236.986 248.046 236.986C244.972 236.986 242.479 234.163 242.479 230.684C242.479 227.204 244.972 224.382 248.046 224.382C251.125 224.382 253.617 227.204 253.617 230.684Z" fill="#DFDFDF" fill-opacity="0.38"/>
<path fill-rule="evenodd" clip-rule="evenodd" d="M253.617 258.411C253.617 261.892 251.125 264.714 248.046 264.714C244.972 264.714 242.479 261.892 242.479 258.411C242.479 254.932 244.972 252.11 248.046 252.11C251.125 252.11 253.617 254.932 253.617 258.411Z" fill="#DFDFDF" fill-opacity="0.38"/>
<path fill-rule="evenodd" clip-rule="evenodd" d="M253.617 287.4C253.617 290.184 251.125 292.442 248.046 292.442C244.972 292.442 242.479 290.184 242.479 287.4C242.479 284.616 244.972 282.359 248.046 282.359C251.125 282.359 253.617 284.616 253.617 287.4Z" fill="#DFDFDF" fill-opacity="0.38"/>
<path fill-rule="evenodd" clip-rule="evenodd" d="M253.617 315.129C253.617 317.914 251.125 320.17 248.046 320.17C244.972 320.17 242.479 317.914 242.479 315.129C242.479 312.344 244.972 310.087 248.046 310.087C251.125 310.087 253.617 312.344 253.617 315.129Z" fill="#DFDFDF" fill-opacity="0.38"/>
<path fill-rule="evenodd" clip-rule="evenodd" d="M24.2289 5.04151C24.2289 7.82617 21.737 10.083 18.6585 10.083C15.5836 10.083 13.0906 7.82617 13.0906 5.04151C13.0906 2.25684 15.5836 0 18.6585 0C21.737 0 24.2289 2.25684 24.2289 5.04151Z" fill="#DFDFDF" fill-opacity="0.38"/>
<path fill-rule="evenodd" clip-rule="evenodd" d="M24.2289 32.7697C24.2289 35.5543 21.737 37.8112 18.6585 37.8112C15.5836 37.8112 13.0906 35.5543 13.0906 32.7697C13.0906 29.9861 15.5836 27.7281 18.6585 27.7281C21.737 27.7281 24.2289 29.9861 24.2289 32.7697Z" fill="#DFDFDF" fill-opacity="0.38"/>
<path fill-rule="evenodd" clip-rule="evenodd" d="M24.2289 64.28C24.2289 67.7591 21.737 70.5812 18.6585 70.5812C15.5836 70.5812 13.0906 67.7591 13.0906 64.28C13.0906 60.7995 15.5836 57.9774 18.6585 57.9774C21.737 57.9774 24.2289 60.7995 24.2289 64.28Z" fill="#DFDFDF" fill-opacity="0.38"/>
<path fill-rule="evenodd" clip-rule="evenodd" d="M24.2289 92.0067C24.2289 95.4872 21.737 98.3093 18.6585 98.3093C15.5836 98.3093 13.0906 95.4872 13.0906 92.0067C13.0906 88.5276 15.5836 85.7055 18.6585 85.7055C21.737 85.7055 24.2289 88.5276 24.2289 92.0067Z" fill="#DFDFDF" fill-opacity="0.38"/>
<path fill-rule="evenodd" clip-rule="evenodd" d="M24.2289 120.996C24.2289 123.779 21.737 126.037 18.6585 126.037C15.5836 126.037 13.0906 123.779 13.0906 120.996C13.0906 118.211 15.5836 115.954 18.6585 115.954C21.737 115.954 24.2289 118.211 24.2289 120.996Z" fill="#DFDFDF" fill-opacity="0.38"/>
<path fill-rule="evenodd" clip-rule="evenodd" d="M24.2289 148.724C24.2289 151.509 21.737 153.766 18.6585 153.766C15.5836 153.766 13.0906 151.509 13.0906 148.724C13.0906 145.94 15.5836 143.683 18.6585 143.683C21.737 143.683 24.2289 145.94 24.2289 148.724Z" fill="#DFDFDF" fill-opacity="0.38"/>
<path fill-rule="evenodd" clip-rule="evenodd" d="M57.6437 5.04151C57.6437 7.82617 55.1518 10.083 52.0733 10.083C48.9984 10.083 46.5054 7.82617 46.5054 5.04151C46.5054 2.25684 48.9984 0 52.0733 0C55.1518 0 57.6437 2.25684 57.6437 5.04151Z" fill="#DFDFDF" fill-opacity="0.38"/>
<path fill-rule="evenodd" clip-rule="evenodd" d="M57.6437 32.7697C57.6437 35.5543 55.1518 37.8112 52.0733 37.8112C48.9984 37.8112 46.5054 35.5543 46.5054 32.7697C46.5054 29.9861 48.9984 27.7281 52.0733 27.7281C55.1518 27.7281 57.6437 29.9861 57.6437 32.7697Z" fill="#DFDFDF" fill-opacity="0.38"/>
<path fill-rule="evenodd" clip-rule="evenodd" d="M57.6437 64.28C57.6437 67.7591 55.1518 70.5812 52.0733 70.5812C48.9984 70.5812 46.5054 67.7591 46.5054 64.28C46.5054 60.7995 48.9984 57.9774 52.0733 57.9774C55.1518 57.9774 57.6437 60.7995 57.6437 64.28Z" fill="#DFDFDF" fill-opacity="0.38"/>
<path fill-rule="evenodd" clip-rule="evenodd" d="M57.6437 92.0067C57.6437 95.4872 55.1518 98.3093 52.0733 98.3093C48.9984 98.3093 46.5054 95.4872 46.5054 92.0067C46.5054 88.5276 48.9984 85.7055 52.0733 85.7055C55.1518 85.7055 57.6437 88.5276 57.6437 92.0067Z" fill="#DFDFDF" fill-opacity="0.38"/>
<path fill-rule="evenodd" clip-rule="evenodd" d="M57.6437 120.996C57.6437 123.779 55.1518 126.037 52.0733 126.037C48.9984 126.037 46.5054 123.779 46.5054 120.996C46.5054 118.211 48.9984 115.954 52.0733 115.954C55.1518 115.954 57.6437 118.211 57.6437 120.996Z" fill="#DFDFDF" fill-opacity="0.38"/>
<path fill-rule="evenodd" clip-rule="evenodd" d="M57.6437 148.724C57.6437 151.509 55.1518 153.766 52.0733 153.766C48.9984 153.766 46.5054 151.509 46.5054 148.724C46.5054 145.94 48.9984 143.683 52.0733 143.683C55.1518 143.683 57.6437 145.94 57.6437 148.724Z" fill="#DFDFDF" fill-opacity="0.38"/>
<path fill-rule="evenodd" clip-rule="evenodd" d="M92.1122 5.04151C92.1122 7.82617 89.6191 10.083 86.5406 10.083C83.4669 10.083 80.9739 7.82617 80.9739 5.04151C80.9739 2.25684 83.4669 0 86.5406 0C89.6191 0 92.1122 2.25684 92.1122 5.04151Z" fill="#DFDFDF" fill-opacity="0.38"/>
<path fill-rule="evenodd" clip-rule="evenodd" d="M125.527 5.04151C125.527 7.82617 123.034 10.083 119.956 10.083C116.881 10.083 114.388 7.82617 114.388 5.04151C114.388 2.25684 116.881 0 119.956 0C123.034 0 125.527 2.25684 125.527 5.04151Z" fill="#DFDFDF" fill-opacity="0.38"/>
<path fill-rule="evenodd" clip-rule="evenodd" d="M156.157 5.04151C156.157 7.82617 153.664 10.083 150.588 10.083C147.511 10.083 145.019 7.82617 145.019 5.04151C145.019 2.25684 147.511 0 150.588 0C153.664 0 156.157 2.25684 156.157 5.04151Z" fill="#DFDFDF" fill-opacity="0.38"/>
<path fill-rule="evenodd" clip-rule="evenodd" d="M189.572 5.04151C189.572 7.82617 187.078 10.083 184 10.083C180.925 10.083 178.434 7.82617 178.434 5.04151C178.434 2.25684 180.925 0 184 0C187.078 0 189.572 2.25684 189.572 5.04151Z" fill="#DFDFDF" fill-opacity="0.38"/>
<path fill-rule="evenodd" clip-rule="evenodd" d="M220.202 5.04151C220.202 7.82617 217.711 10.083 214.632 10.083C211.557 10.083 209.064 7.82617 209.064 5.04151C209.064 2.25684 211.557 0 214.632 0C217.711 0 220.202 2.25684 220.202 5.04151Z" fill="#DFDFDF" fill-opacity="0.38"/>
<path fill-rule="evenodd" clip-rule="evenodd" d="M92.1122 32.7697C92.1122 35.5543 89.6191 37.8112 86.5406 37.8112C83.4669 37.8112 80.9739 35.5543 80.9739 32.7697C80.9739 29.9861 83.4669 27.7281 86.5406 27.7281C89.6191 27.7281 92.1122 29.9861 92.1122 32.7697Z" fill="#DFDFDF" fill-opacity="0.38"/>
<path fill-rule="evenodd" clip-rule="evenodd" d="M125.527 32.7697C125.527 35.5543 123.034 37.8112 119.956 37.8112C116.881 37.8112 114.388 35.5543 114.388 32.7697C114.388 29.9861 116.881 27.7281 119.956 27.7281C123.034 27.7281 125.527 29.9861 125.527 32.7697Z" fill="#DFDFDF" fill-opacity="0.38"/>
<path fill-rule="evenodd" clip-rule="evenodd" d="M156.157 32.7697C156.157 35.5543 153.664 37.8112 150.588 37.8112C147.511 37.8112 145.019 35.5543 145.019 32.7697C145.019 29.9861 147.511 27.7281 150.588 27.7281C153.664 27.7281 156.157 29.9861 156.157 32.7697Z" fill="#DFDFDF" fill-opacity="0.38"/>
<path fill-rule="evenodd" clip-rule="evenodd" d="M189.572 32.7697C189.572 35.5543 187.078 37.8112 184 37.8112C180.925 37.8112 178.434 35.5543 178.434 32.7697C178.434 29.9861 180.925 27.7281 184 27.7281C187.078 27.7281 189.572 29.9861 189.572 32.7697Z" fill="#DFDFDF" fill-opacity="0.38"/>
<path fill-rule="evenodd" clip-rule="evenodd" d="M220.202 32.7697C220.202 35.5543 217.711 37.8112 214.632 37.8112C211.557 37.8112 209.064 35.5543 209.064 32.7697C209.064 29.9861 211.557 27.7281 214.632 27.7281C217.711 27.7281 220.202 29.9861 220.202 32.7697Z" fill="#DFDFDF" fill-opacity="0.38"/>
<path fill-rule="evenodd" clip-rule="evenodd" d="M92.1122 64.28C92.1122 67.7591 89.6191 70.5812 86.5406 70.5812C83.4669 70.5812 80.9739 67.7591 80.9739 64.28C80.9739 60.7995 83.4669 57.9774 86.5406 57.9774C89.6191 57.9774 92.1122 60.7995 92.1122 64.28Z" fill="#DFDFDF" fill-opacity="0.38"/>
<path fill-rule="evenodd" clip-rule="evenodd" d="M125.527 64.28C125.527 67.7591 123.034 70.5812 119.956 70.5812C116.881 70.5812 114.388 67.7591 114.388 64.28C114.388 60.7995 116.881 57.9774 119.956 57.9774C123.034 57.9774 125.527 60.7995 125.527 64.28Z" fill="#DFDFDF" fill-opacity="0.38"/>
<path fill-rule="evenodd" clip-rule="evenodd" d="M156.157 64.28C156.157 67.7591 153.664 70.5812 150.588 70.5812C147.511 70.5812 145.019 67.7591 145.019 64.28C145.019 60.7995 147.511 57.9774 150.588 57.9774C153.664 57.9774 156.157 60.7995 156.157 64.28Z" fill="#DFDFDF" fill-opacity="0.38"/>
<path fill-rule="evenodd" clip-rule="evenodd" d="M189.572 64.28C189.572 67.7591 187.078 70.5812 184 70.5812C180.925 70.5812 178.434 67.7591 178.434 64.28C178.434 60.7995 180.925 57.9774 184 57.9774C187.078 57.9774 189.572 60.7995 189.572 64.28Z" fill="#DFDFDF" fill-opacity="0.38"/>
<path fill-rule="evenodd" clip-rule="evenodd" d="M220.202 64.28C220.202 67.7591 217.711 70.5812 214.632 70.5812C211.557 70.5812 209.064 67.7591 209.064 64.28C209.064 60.7995 211.557 57.9774 214.632 57.9774C217.711 57.9774 220.202 60.7995 220.202 64.28Z" fill="#DFDFDF" fill-opacity="0.38"/>
<path fill-rule="evenodd" clip-rule="evenodd" d="M92.1122 92.0067C92.1122 95.4872 89.6191 98.3093 86.5406 98.3093C83.4669 98.3093 80.9739 95.4872 80.9739 92.0067C80.9739 88.5276 83.4669 85.7055 86.5406 85.7055C89.6191 85.7055 92.1122 88.5276 92.1122 92.0067Z" fill="#DFDFDF" fill-opacity="0.38"/>
<path fill-rule="evenodd" clip-rule="evenodd" d="M125.527 92.0067C125.527 95.4872 123.034 98.3093 119.956 98.3093C116.881 98.3093 114.388 95.4872 114.388 92.0067C114.388 88.5276 116.881 85.7055 119.956 85.7055C123.034 85.7055 125.527 88.5276 125.527 92.0067Z" fill="#DFDFDF" fill-opacity="0.38"/>
<path fill-rule="evenodd" clip-rule="evenodd" d="M156.157 92.0067C156.157 95.4872 153.664 98.3093 150.588 98.3093C147.511 98.3093 145.019 95.4872 145.019 92.0067C145.019 88.5276 147.511 85.7055 150.588 85.7055C153.664 85.7055 156.157 88.5276 156.157 92.0067Z" fill="#DFDFDF" fill-opacity="0.38"/>
<path fill-rule="evenodd" clip-rule="evenodd" d="M189.572 92.0067C189.572 95.4872 187.078 98.3093 184 98.3093C180.925 98.3093 178.434 95.4872 178.434 92.0067C178.434 88.5276 180.925 85.7055 184 85.7055C187.078 85.7055 189.572 88.5276 189.572 92.0067Z" fill="#DFDFDF" fill-opacity="0.38"/>
<path fill-rule="evenodd" clip-rule="evenodd" d="M220.202 92.0067C220.202 95.4872 217.711 98.3093 214.632 98.3093C211.557 98.3093 209.064 95.4872 209.064 92.0067C209.064 88.5276 211.557 85.7055 214.632 85.7055C217.711 85.7055 220.202 88.5276 220.202 92.0067Z" fill="#DFDFDF" fill-opacity="0.38"/>
<path fill-rule="evenodd" clip-rule="evenodd" d="M92.1122 120.996C92.1122 123.779 89.6191 126.037 86.5406 126.037C83.4669 126.037 80.9739 123.779 80.9739 120.996C80.9739 118.211 83.4669 115.954 86.5406 115.954C89.6191 115.954 92.1122 118.211 92.1122 120.996Z" fill="#DFDFDF" fill-opacity="0.38"/>
<path fill-rule="evenodd" clip-rule="evenodd" d="M125.527 120.996C125.527 123.779 123.034 126.037 119.956 126.037C116.881 126.037 114.388 123.779 114.388 120.996C114.388 118.211 116.881 115.954 119.956 115.954C123.034 115.954 125.527 118.211 125.527 120.996Z" fill="#DFDFDF" fill-opacity="0.38"/>
<path fill-rule="evenodd" clip-rule="evenodd" d="M156.157 120.996C156.157 123.779 153.664 126.037 150.588 126.037C147.511 126.037 145.019 123.779 145.019 120.996C145.019 118.211 147.511 115.954 150.588 115.954C153.664 115.954 156.157 118.211 156.157 120.996Z" fill="#DFDFDF" fill-opacity="0.38"/>
<path fill-rule="evenodd" clip-rule="evenodd" d="M189.572 120.996C189.572 123.779 187.078 126.037 184 126.037C180.925 126.037 178.434 123.779 178.434 120.996C178.434 118.211 180.925 115.954 184 115.954C187.078 115.954 189.572 118.211 189.572 120.996Z" fill="#DFDFDF" fill-opacity="0.38"/>
<path fill-rule="evenodd" clip-rule="evenodd" d="M220.202 120.996C220.202 123.779 217.711 126.037 214.632 126.037C211.557 126.037 209.064 123.779 209.064 120.996C209.064 118.211 211.557 115.954 214.632 115.954C217.711 115.954 220.202 118.211 220.202 120.996Z" fill="#DFDFDF" fill-opacity="0.38"/>
<path fill-rule="evenodd" clip-rule="evenodd" d="M92.1122 148.724C92.1122 151.509 89.6191 153.766 86.5406 153.766C83.4669 153.766 80.9739 151.509 80.9739 148.724C80.9739 145.94 83.4669 143.683 86.5406 143.683C89.6191 143.683 92.1122 145.94 92.1122 148.724Z" fill="#DFDFDF" fill-opacity="0.38"/>
<path fill-rule="evenodd" clip-rule="evenodd" d="M125.527 148.724C125.527 151.509 123.034 153.766 119.956 153.766C116.881 153.766 114.388 151.509 114.388 148.724C114.388 145.94 116.881 143.683 119.956 143.683C123.034 143.683 125.527 145.94 125.527 148.724Z" fill="#DFDFDF" fill-opacity="0.38"/>
<path fill-rule="evenodd" clip-rule="evenodd" d="M156.157 148.724C156.157 151.509 153.664 153.766 150.588 153.766C147.511 153.766 145.019 151.509 145.019 148.724C145.019 145.94 147.511 143.683 150.588 143.683C153.664 143.683 156.157 145.94 156.157 148.724Z" fill="#DFDFDF" fill-opacity="0.38"/>
<path fill-rule="evenodd" clip-rule="evenodd" d="M189.572 148.724C189.572 151.509 187.078 153.766 184 153.766C180.925 153.766 178.434 151.509 178.434 148.724C178.434 145.94 180.925 143.683 184 143.683C187.078 143.683 189.572 145.94 189.572 148.724Z" fill="#DFDFDF" fill-opacity="0.38"/>
<path fill-rule="evenodd" clip-rule="evenodd" d="M220.202 148.724C220.202 151.509 217.711 153.766 214.632 153.766C211.557 153.766 209.064 151.509 209.064 148.724C209.064 145.94 211.557 143.683 214.632 143.683C217.711 143.683 220.202 145.94 220.202 148.724Z" fill="#DFDFDF" fill-opacity="0.38"/>
<path fill-rule="evenodd" clip-rule="evenodd" d="M253.617 5.04151C253.617 7.82617 251.125 10.083 248.046 10.083C244.972 10.083 242.479 7.82617 242.479 5.04151C242.479 2.25684 244.972 0 248.046 0C251.125 0 253.617 2.25684 253.617 5.04151Z" fill="#DFDFDF" fill-opacity="0.38"/>
<path fill-rule="evenodd" clip-rule="evenodd" d="M253.617 32.7697C253.617 35.5543 251.125 37.8112 248.046 37.8112C244.972 37.8112 242.479 35.5543 242.479 32.7697C242.479 29.9861 244.972 27.7281 248.046 27.7281C251.125 27.7281 253.617 29.9861 253.617 32.7697Z" fill="#DFDFDF" fill-opacity="0.38"/>
<path fill-rule="evenodd" clip-rule="evenodd" d="M253.617 64.28C253.617 67.7591 251.125 70.5812 248.046 70.5812C244.972 70.5812 242.479 67.7591 242.479 64.28C242.479 60.7995 244.972 57.9774 248.046 57.9774C251.125 57.9774 253.617 60.7995 253.617 64.28Z" fill="#DFDFDF" fill-opacity="0.38"/>
<path fill-rule="evenodd" clip-rule="evenodd" d="M253.617 92.0067C253.617 95.4872 251.125 98.3093 248.046 98.3093C244.972 98.3093 242.479 95.4872 242.479 92.0067C242.479 88.5276 244.972 85.7055 248.046 85.7055C251.125 85.7055 253.617 88.5276 253.617 92.0067Z" fill="#DFDFDF" fill-opacity="0.38"/>
<path fill-rule="evenodd" clip-rule="evenodd" d="M253.617 120.996C253.617 123.779 251.125 126.037 248.046 126.037C244.972 126.037 242.479 123.779 242.479 120.996C242.479 118.211 244.972 115.954 248.046 115.954C251.125 115.954 253.617 118.211 253.617 120.996Z" fill="#DFDFDF" fill-opacity="0.38"/>
<path fill-rule="evenodd" clip-rule="evenodd" d="M253.617 148.724C253.617 151.509 251.125 153.766 248.046 153.766C244.972 153.766 242.479 151.509 242.479 148.724C242.479 145.94 244.972 143.683 248.046 143.683C251.125 143.683 253.617 145.94 253.617 148.724Z" fill="#DFDFDF" fill-opacity="0.38"/>
</svg>
