<svg width="350" height="495" viewBox="0 0 350 495" fill="none" xmlns="http://www.w3.org/2000/svg">
<path fill-rule="evenodd" clip-rule="evenodd" d="M11.1383 346.276C11.1383 349.061 8.64525 351.318 5.56674 351.318C2.49304 351.318 0 349.061 0 346.276C0 343.491 2.49304 341.235 5.56674 341.235C8.64525 341.235 11.1383 343.491 11.1383 346.276Z" fill="#DFDFDF" fill-opacity="0.38"/>
<path fill-rule="evenodd" clip-rule="evenodd" d="M44.5528 346.276C44.5528 349.06 42.0598 351.317 38.9825 351.317C35.9076 351.317 33.4146 349.06 33.4146 346.276C33.4146 343.491 35.9076 341.234 38.9825 341.234C42.0598 341.234 44.5528 343.491 44.5528 346.276Z" fill="#DFDFDF" fill-opacity="0.38"/>
<path fill-rule="evenodd" clip-rule="evenodd" d="M75.1835 346.276C75.1835 349.06 72.6899 351.317 69.6143 351.317C66.5375 351.317 64.0452 349.06 64.0452 346.276C64.0452 343.491 66.5375 341.234 69.6143 341.234C72.6899 341.234 75.1835 343.491 75.1835 346.276Z" fill="#DFDFDF" fill-opacity="0.38"/>
<path fill-rule="evenodd" clip-rule="evenodd" d="M108.598 346.276C108.598 349.06 106.104 351.317 103.026 351.317C99.9509 351.317 97.4597 349.06 97.4597 346.276C97.4597 343.491 99.9509 341.234 103.026 341.234C106.104 341.234 108.598 343.491 108.598 346.276Z" fill="#DFDFDF" fill-opacity="0.38"/>
<path fill-rule="evenodd" clip-rule="evenodd" d="M139.229 346.276C139.229 349.06 136.737 351.317 133.659 351.317C130.584 351.317 128.091 349.06 128.091 346.276C128.091 343.491 130.584 341.234 133.659 341.234C136.737 341.234 139.229 343.491 139.229 346.276Z" fill="#DFDFDF" fill-opacity="0.38"/>
<path fill-rule="evenodd" clip-rule="evenodd" d="M11.1383 374.003C11.1383 376.788 8.64525 379.045 5.56674 379.045C2.49304 379.045 0 376.788 0 374.003C0 371.22 2.49304 368.962 5.56674 368.962C8.64525 368.962 11.1383 371.22 11.1383 374.003Z" fill="#DFDFDF" fill-opacity="0.38"/>
<path fill-rule="evenodd" clip-rule="evenodd" d="M44.5528 374.003C44.5528 376.788 42.0598 379.045 38.9825 379.045C35.9076 379.045 33.4146 376.788 33.4146 374.003C33.4146 371.22 35.9076 368.962 38.9825 368.962C42.0598 368.962 44.5528 371.22 44.5528 374.003Z" fill="#DFDFDF" fill-opacity="0.38"/>
<path fill-rule="evenodd" clip-rule="evenodd" d="M75.1835 374.003C75.1835 376.788 72.6899 379.045 69.6143 379.045C66.5375 379.045 64.0452 376.788 64.0452 374.003C64.0452 371.22 66.5375 368.962 69.6143 368.962C72.6899 368.962 75.1835 371.22 75.1835 374.003Z" fill="#DFDFDF" fill-opacity="0.38"/>
<path fill-rule="evenodd" clip-rule="evenodd" d="M108.598 374.003C108.598 376.788 106.104 379.045 103.026 379.045C99.9509 379.045 97.4597 376.788 97.4597 374.003C97.4597 371.22 99.9509 368.962 103.026 368.962C106.104 368.962 108.598 371.22 108.598 374.003Z" fill="#DFDFDF" fill-opacity="0.38"/>
<path fill-rule="evenodd" clip-rule="evenodd" d="M139.229 374.003C139.229 376.788 136.737 379.045 133.659 379.045C130.584 379.045 128.091 376.788 128.091 374.003C128.091 371.22 130.584 368.962 133.659 368.962C136.737 368.962 139.229 371.22 139.229 374.003Z" fill="#DFDFDF" fill-opacity="0.38"/>
<path fill-rule="evenodd" clip-rule="evenodd" d="M11.1383 405.514C11.1383 408.993 8.64525 411.815 5.56674 411.815C2.49304 411.815 0 408.993 0 405.514C0 402.034 2.49304 399.211 5.56674 399.211C8.64525 399.211 11.1383 402.034 11.1383 405.514Z" fill="#DFDFDF" fill-opacity="0.38"/>
<path fill-rule="evenodd" clip-rule="evenodd" d="M44.5528 405.514C44.5528 408.993 42.0598 411.815 38.9825 411.815C35.9076 411.815 33.4146 408.993 33.4146 405.514C33.4146 402.034 35.9076 399.211 38.9825 399.211C42.0598 399.211 44.5528 402.034 44.5528 405.514Z" fill="#DFDFDF" fill-opacity="0.38"/>
<path fill-rule="evenodd" clip-rule="evenodd" d="M75.1835 405.514C75.1835 408.993 72.6899 411.815 69.6143 411.815C66.5375 411.815 64.0452 408.993 64.0452 405.514C64.0452 402.034 66.5375 399.211 69.6143 399.211C72.6899 399.211 75.1835 402.034 75.1835 405.514Z" fill="#DFDFDF" fill-opacity="0.38"/>
<path fill-rule="evenodd" clip-rule="evenodd" d="M108.598 405.514C108.598 408.993 106.104 411.815 103.026 411.815C99.9509 411.815 97.4597 408.993 97.4597 405.514C97.4597 402.034 99.9509 399.211 103.026 399.211C106.104 399.211 108.598 402.034 108.598 405.514Z" fill="#DFDFDF" fill-opacity="0.38"/>
<path fill-rule="evenodd" clip-rule="evenodd" d="M139.229 405.514C139.229 408.993 136.737 411.815 133.659 411.815C130.584 411.815 128.091 408.993 128.091 405.514C128.091 402.034 130.584 399.211 133.659 399.211C136.737 399.211 139.229 402.034 139.229 405.514Z" fill="#DFDFDF" fill-opacity="0.38"/>
<path fill-rule="evenodd" clip-rule="evenodd" d="M11.1383 433.241C11.1383 436.721 8.64525 439.543 5.56674 439.543C2.49304 439.543 0 436.721 0 433.241C0 429.762 2.49304 426.94 5.56674 426.94C8.64525 426.94 11.1383 429.762 11.1383 433.241Z" fill="#DFDFDF" fill-opacity="0.38"/>
<path fill-rule="evenodd" clip-rule="evenodd" d="M44.5528 433.241C44.5528 436.721 42.0598 439.543 38.9825 439.543C35.9076 439.543 33.4146 436.721 33.4146 433.241C33.4146 429.762 35.9076 426.94 38.9825 426.94C42.0598 426.94 44.5528 429.762 44.5528 433.241Z" fill="#DFDFDF" fill-opacity="0.38"/>
<path fill-rule="evenodd" clip-rule="evenodd" d="M75.1835 433.241C75.1835 436.721 72.6899 439.543 69.6143 439.543C66.5375 439.543 64.0452 436.721 64.0452 433.241C64.0452 429.762 66.5375 426.94 69.6143 426.94C72.6899 426.94 75.1835 429.762 75.1835 433.241Z" fill="#DFDFDF" fill-opacity="0.38"/>
<path fill-rule="evenodd" clip-rule="evenodd" d="M108.598 433.241C108.598 436.721 106.104 439.543 103.026 439.543C99.9509 439.543 97.4597 436.721 97.4597 433.241C97.4597 429.762 99.9509 426.94 103.026 426.94C106.104 426.94 108.598 429.762 108.598 433.241Z" fill="#DFDFDF" fill-opacity="0.38"/>
<path fill-rule="evenodd" clip-rule="evenodd" d="M139.229 433.241C139.229 436.721 136.737 439.543 133.659 439.543C130.584 439.543 128.091 436.721 128.091 433.241C128.091 429.762 130.584 426.94 133.659 426.94C136.737 426.94 139.229 429.762 139.229 433.241Z" fill="#DFDFDF" fill-opacity="0.38"/>
<path fill-rule="evenodd" clip-rule="evenodd" d="M11.1383 462.23C11.1383 465.014 8.64525 467.271 5.56674 467.271C2.49304 467.271 0 465.014 0 462.23C0 459.445 2.49304 457.188 5.56674 457.188C8.64525 457.188 11.1383 459.445 11.1383 462.23Z" fill="#DFDFDF" fill-opacity="0.38"/>
<path fill-rule="evenodd" clip-rule="evenodd" d="M44.5528 462.23C44.5528 465.014 42.0598 467.271 38.9825 467.271C35.9076 467.271 33.4146 465.014 33.4146 462.23C33.4146 459.445 35.9076 457.188 38.9825 457.188C42.0598 457.188 44.5528 459.445 44.5528 462.23Z" fill="#DFDFDF" fill-opacity="0.38"/>
<path fill-rule="evenodd" clip-rule="evenodd" d="M75.1835 462.23C75.1835 465.014 72.6899 467.271 69.6143 467.271C66.5375 467.271 64.0452 465.014 64.0452 462.23C64.0452 459.445 66.5375 457.188 69.6143 457.188C72.6899 457.188 75.1835 459.445 75.1835 462.23Z" fill="#DFDFDF" fill-opacity="0.38"/>
<path fill-rule="evenodd" clip-rule="evenodd" d="M108.598 462.23C108.598 465.014 106.104 467.271 103.026 467.271C99.9509 467.271 97.4597 465.014 97.4597 462.23C97.4597 459.445 99.9509 457.188 103.026 457.188C106.104 457.188 108.598 459.445 108.598 462.23Z" fill="#DFDFDF" fill-opacity="0.38"/>
<path fill-rule="evenodd" clip-rule="evenodd" d="M139.229 462.23C139.229 465.014 136.737 467.271 133.659 467.271C130.584 467.271 128.091 465.014 128.091 462.23C128.091 459.445 130.584 457.188 133.659 457.188C136.737 457.188 139.229 459.445 139.229 462.23Z" fill="#DFDFDF" fill-opacity="0.38"/>
<path fill-rule="evenodd" clip-rule="evenodd" d="M11.1383 489.958C11.1383 492.743 8.64525 495 5.56674 495C2.49304 495 0 492.743 0 489.958C0 487.174 2.49304 484.917 5.56674 484.917C8.64525 484.917 11.1383 487.174 11.1383 489.958Z" fill="#DFDFDF" fill-opacity="0.38"/>
<path fill-rule="evenodd" clip-rule="evenodd" d="M44.5528 489.958C44.5528 492.743 42.0598 495 38.9825 495C35.9076 495 33.4146 492.743 33.4146 489.958C33.4146 487.174 35.9076 484.917 38.9825 484.917C42.0598 484.917 44.5528 487.174 44.5528 489.958Z" fill="#DFDFDF" fill-opacity="0.38"/>
<path fill-rule="evenodd" clip-rule="evenodd" d="M75.1835 489.958C75.1835 492.743 72.6899 495 69.6143 495C66.5375 495 64.0452 492.743 64.0452 489.958C64.0452 487.174 66.5375 484.917 69.6143 484.917C72.6899 484.917 75.1835 487.174 75.1835 489.958Z" fill="#DFDFDF" fill-opacity="0.38"/>
<path fill-rule="evenodd" clip-rule="evenodd" d="M108.598 489.958C108.598 492.743 106.104 495 103.026 495C99.9509 495 97.4597 492.743 97.4597 489.958C97.4597 487.174 99.9509 484.917 103.026 484.917C106.104 484.917 108.598 487.174 108.598 489.958Z" fill="#DFDFDF" fill-opacity="0.38"/>
<path fill-rule="evenodd" clip-rule="evenodd" d="M139.229 489.958C139.229 492.743 136.737 495 133.659 495C130.584 495 128.091 492.743 128.091 489.958C128.091 487.174 130.584 484.917 133.659 484.917C136.737 484.917 139.229 487.174 139.229 489.958Z" fill="#DFDFDF" fill-opacity="0.38"/>
<path fill-rule="evenodd" clip-rule="evenodd" d="M172.644 346.276C172.644 349.06 170.152 351.317 167.073 351.317C163.998 351.317 161.505 349.06 161.505 346.276C161.505 343.491 163.998 341.234 167.073 341.234C170.152 341.234 172.644 343.491 172.644 346.276Z" fill="#DFDFDF" fill-opacity="0.38"/>
<path fill-rule="evenodd" clip-rule="evenodd" d="M172.644 374.003C172.644 376.788 170.152 379.045 167.073 379.045C163.998 379.045 161.505 376.788 161.505 374.003C161.505 371.22 163.998 368.962 167.073 368.962C170.152 368.962 172.644 371.22 172.644 374.003Z" fill="#DFDFDF" fill-opacity="0.38"/>
<path fill-rule="evenodd" clip-rule="evenodd" d="M172.644 405.514C172.644 408.993 170.152 411.815 167.073 411.815C163.998 411.815 161.505 408.993 161.505 405.514C161.505 402.034 163.998 399.211 167.073 399.211C170.152 399.211 172.644 402.034 172.644 405.514Z" fill="#DFDFDF" fill-opacity="0.38"/>
<path fill-rule="evenodd" clip-rule="evenodd" d="M172.644 433.241C172.644 436.721 170.152 439.543 167.073 439.543C163.998 439.543 161.505 436.721 161.505 433.241C161.505 429.762 163.998 426.94 167.073 426.94C170.152 426.94 172.644 429.762 172.644 433.241Z" fill="#DFDFDF" fill-opacity="0.38"/>
<path fill-rule="evenodd" clip-rule="evenodd" d="M172.644 462.23C172.644 465.014 170.152 467.271 167.073 467.271C163.998 467.271 161.505 465.014 161.505 462.23C161.505 459.445 163.998 457.188 167.073 457.188C170.152 457.188 172.644 459.445 172.644 462.23Z" fill="#DFDFDF" fill-opacity="0.38"/>
<path fill-rule="evenodd" clip-rule="evenodd" d="M172.644 489.958C172.644 492.743 170.152 495 167.073 495C163.998 495 161.505 492.743 161.505 489.958C161.505 487.174 163.998 484.917 167.073 484.917C170.152 484.917 172.644 487.174 172.644 489.958Z" fill="#DFDFDF" fill-opacity="0.38"/>
<path fill-rule="evenodd" clip-rule="evenodd" d="M207.112 346.276C207.112 349.06 204.619 351.317 201.541 351.317C198.467 351.317 195.974 349.06 195.974 346.276C195.974 343.491 198.467 341.234 201.541 341.234C204.619 341.234 207.112 343.491 207.112 346.276Z" fill="#DFDFDF" fill-opacity="0.38"/>
<path fill-rule="evenodd" clip-rule="evenodd" d="M240.527 346.276C240.527 349.06 238.034 351.317 234.956 351.317C231.881 351.317 229.388 349.06 229.388 346.276C229.388 343.491 231.881 341.234 234.956 341.234C238.034 341.234 240.527 343.491 240.527 346.276Z" fill="#DFDFDF" fill-opacity="0.38"/>
<path fill-rule="evenodd" clip-rule="evenodd" d="M271.157 346.276C271.157 349.06 268.664 351.317 265.588 351.317C262.511 351.317 260.019 349.06 260.019 346.276C260.019 343.491 262.511 341.234 265.588 341.234C268.664 341.234 271.157 343.491 271.157 346.276Z" fill="#DFDFDF" fill-opacity="0.38"/>
<path fill-rule="evenodd" clip-rule="evenodd" d="M304.572 346.276C304.572 349.06 302.078 351.317 299 351.317C295.925 351.317 293.434 349.06 293.434 346.276C293.434 343.491 295.925 341.234 299 341.234C302.078 341.234 304.572 343.491 304.572 346.276Z" fill="#DFDFDF" fill-opacity="0.38"/>
<path fill-rule="evenodd" clip-rule="evenodd" d="M335.202 346.276C335.202 349.06 332.711 351.317 329.632 351.317C326.557 351.317 324.064 349.06 324.064 346.276C324.064 343.491 326.557 341.234 329.632 341.234C332.711 341.234 335.202 343.491 335.202 346.276Z" fill="#DFDFDF" fill-opacity="0.38"/>
<path fill-rule="evenodd" clip-rule="evenodd" d="M207.112 374.003C207.112 376.788 204.619 379.045 201.541 379.045C198.467 379.045 195.974 376.788 195.974 374.003C195.974 371.22 198.467 368.962 201.541 368.962C204.619 368.962 207.112 371.22 207.112 374.003Z" fill="#DFDFDF" fill-opacity="0.38"/>
<path fill-rule="evenodd" clip-rule="evenodd" d="M240.527 374.003C240.527 376.788 238.034 379.045 234.956 379.045C231.881 379.045 229.388 376.788 229.388 374.003C229.388 371.22 231.881 368.962 234.956 368.962C238.034 368.962 240.527 371.22 240.527 374.003Z" fill="#DFDFDF" fill-opacity="0.38"/>
<path fill-rule="evenodd" clip-rule="evenodd" d="M271.157 374.003C271.157 376.788 268.664 379.045 265.588 379.045C262.511 379.045 260.019 376.788 260.019 374.003C260.019 371.22 262.511 368.962 265.588 368.962C268.664 368.962 271.157 371.22 271.157 374.003Z" fill="#DFDFDF" fill-opacity="0.38"/>
<path fill-rule="evenodd" clip-rule="evenodd" d="M304.572 374.003C304.572 376.788 302.078 379.045 299 379.045C295.925 379.045 293.434 376.788 293.434 374.003C293.434 371.22 295.925 368.962 299 368.962C302.078 368.962 304.572 371.22 304.572 374.003Z" fill="#DFDFDF" fill-opacity="0.38"/>
<path fill-rule="evenodd" clip-rule="evenodd" d="M335.202 374.003C335.202 376.788 332.711 379.045 329.632 379.045C326.557 379.045 324.064 376.788 324.064 374.003C324.064 371.22 326.557 368.962 329.632 368.962C332.711 368.962 335.202 371.22 335.202 374.003Z" fill="#DFDFDF" fill-opacity="0.38"/>
<path fill-rule="evenodd" clip-rule="evenodd" d="M207.112 405.514C207.112 408.993 204.619 411.815 201.541 411.815C198.467 411.815 195.974 408.993 195.974 405.514C195.974 402.034 198.467 399.211 201.541 399.211C204.619 399.211 207.112 402.034 207.112 405.514Z" fill="#DFDFDF" fill-opacity="0.38"/>
<path fill-rule="evenodd" clip-rule="evenodd" d="M240.527 405.514C240.527 408.993 238.034 411.815 234.956 411.815C231.881 411.815 229.388 408.993 229.388 405.514C229.388 402.034 231.881 399.211 234.956 399.211C238.034 399.211 240.527 402.034 240.527 405.514Z" fill="#DFDFDF" fill-opacity="0.38"/>
<path fill-rule="evenodd" clip-rule="evenodd" d="M271.157 405.514C271.157 408.993 268.664 411.815 265.588 411.815C262.511 411.815 260.019 408.993 260.019 405.514C260.019 402.034 262.511 399.211 265.588 399.211C268.664 399.211 271.157 402.034 271.157 405.514Z" fill="#DFDFDF" fill-opacity="0.38"/>
<path fill-rule="evenodd" clip-rule="evenodd" d="M304.572 405.514C304.572 408.993 302.078 411.815 299 411.815C295.925 411.815 293.434 408.993 293.434 405.514C293.434 402.034 295.925 399.211 299 399.211C302.078 399.211 304.572 402.034 304.572 405.514Z" fill="#DFDFDF" fill-opacity="0.38"/>
<path fill-rule="evenodd" clip-rule="evenodd" d="M335.202 405.514C335.202 408.993 332.711 411.815 329.632 411.815C326.557 411.815 324.064 408.993 324.064 405.514C324.064 402.034 326.557 399.211 329.632 399.211C332.711 399.211 335.202 402.034 335.202 405.514Z" fill="#DFDFDF" fill-opacity="0.38"/>
<path fill-rule="evenodd" clip-rule="evenodd" d="M207.112 433.241C207.112 436.721 204.619 439.543 201.541 439.543C198.467 439.543 195.974 436.721 195.974 433.241C195.974 429.762 198.467 426.94 201.541 426.94C204.619 426.94 207.112 429.762 207.112 433.241Z" fill="#DFDFDF" fill-opacity="0.38"/>
<path fill-rule="evenodd" clip-rule="evenodd" d="M240.527 433.241C240.527 436.721 238.034 439.543 234.956 439.543C231.881 439.543 229.388 436.721 229.388 433.241C229.388 429.762 231.881 426.94 234.956 426.94C238.034 426.94 240.527 429.762 240.527 433.241Z" fill="#DFDFDF" fill-opacity="0.38"/>
<path fill-rule="evenodd" clip-rule="evenodd" d="M271.157 433.241C271.157 436.721 268.664 439.543 265.588 439.543C262.511 439.543 260.019 436.721 260.019 433.241C260.019 429.762 262.511 426.94 265.588 426.94C268.664 426.94 271.157 429.762 271.157 433.241Z" fill="#DFDFDF" fill-opacity="0.38"/>
<path fill-rule="evenodd" clip-rule="evenodd" d="M304.572 433.241C304.572 436.721 302.078 439.543 299 439.543C295.925 439.543 293.434 436.721 293.434 433.241C293.434 429.762 295.925 426.94 299 426.94C302.078 426.94 304.572 429.762 304.572 433.241Z" fill="#DFDFDF" fill-opacity="0.38"/>
<path fill-rule="evenodd" clip-rule="evenodd" d="M335.202 433.241C335.202 436.721 332.711 439.543 329.632 439.543C326.557 439.543 324.064 436.721 324.064 433.241C324.064 429.762 326.557 426.94 329.632 426.94C332.711 426.94 335.202 429.762 335.202 433.241Z" fill="#DFDFDF" fill-opacity="0.38"/>
<path fill-rule="evenodd" clip-rule="evenodd" d="M207.112 462.23C207.112 465.014 204.619 467.271 201.541 467.271C198.467 467.271 195.974 465.014 195.974 462.23C195.974 459.445 198.467 457.188 201.541 457.188C204.619 457.188 207.112 459.445 207.112 462.23Z" fill="#DFDFDF" fill-opacity="0.38"/>
<path fill-rule="evenodd" clip-rule="evenodd" d="M240.527 462.23C240.527 465.014 238.034 467.271 234.956 467.271C231.881 467.271 229.388 465.014 229.388 462.23C229.388 459.445 231.881 457.188 234.956 457.188C238.034 457.188 240.527 459.445 240.527 462.23Z" fill="#DFDFDF" fill-opacity="0.38"/>
<path fill-rule="evenodd" clip-rule="evenodd" d="M271.157 462.23C271.157 465.014 268.664 467.271 265.588 467.271C262.511 467.271 260.019 465.014 260.019 462.23C260.019 459.445 262.511 457.188 265.588 457.188C268.664 457.188 271.157 459.445 271.157 462.23Z" fill="#DFDFDF" fill-opacity="0.38"/>
<path fill-rule="evenodd" clip-rule="evenodd" d="M304.572 462.23C304.572 465.014 302.078 467.271 299 467.271C295.925 467.271 293.434 465.014 293.434 462.23C293.434 459.445 295.925 457.188 299 457.188C302.078 457.188 304.572 459.445 304.572 462.23Z" fill="#DFDFDF" fill-opacity="0.38"/>
<path fill-rule="evenodd" clip-rule="evenodd" d="M335.202 462.23C335.202 465.014 332.711 467.271 329.632 467.271C326.557 467.271 324.064 465.014 324.064 462.23C324.064 459.445 326.557 457.188 329.632 457.188C332.711 457.188 335.202 459.445 335.202 462.23Z" fill="#DFDFDF" fill-opacity="0.38"/>
<path fill-rule="evenodd" clip-rule="evenodd" d="M207.112 489.958C207.112 492.743 204.619 495 201.541 495C198.467 495 195.974 492.743 195.974 489.958C195.974 487.174 198.467 484.917 201.541 484.917C204.619 484.917 207.112 487.174 207.112 489.958Z" fill="#DFDFDF" fill-opacity="0.38"/>
<path fill-rule="evenodd" clip-rule="evenodd" d="M240.527 489.958C240.527 492.743 238.034 495 234.956 495C231.881 495 229.388 492.743 229.388 489.958C229.388 487.174 231.881 484.917 234.956 484.917C238.034 484.917 240.527 487.174 240.527 489.958Z" fill="#DFDFDF" fill-opacity="0.38"/>
<path fill-rule="evenodd" clip-rule="evenodd" d="M271.157 489.958C271.157 492.743 268.664 495 265.588 495C262.511 495 260.019 492.743 260.019 489.958C260.019 487.174 262.511 484.917 265.588 484.917C268.664 484.917 271.157 487.174 271.157 489.958Z" fill="#DFDFDF" fill-opacity="0.38"/>
<path fill-rule="evenodd" clip-rule="evenodd" d="M304.572 489.958C304.572 492.743 302.078 495 299 495C295.925 495 293.434 492.743 293.434 489.958C293.434 487.174 295.925 484.917 299 484.917C302.078 484.917 304.572 487.174 304.572 489.958Z" fill="#DFDFDF" fill-opacity="0.38"/>
<path fill-rule="evenodd" clip-rule="evenodd" d="M335.202 489.958C335.202 492.743 332.711 495 329.632 495C326.557 495 324.064 492.743 324.064 489.958C324.064 487.174 326.557 484.917 329.632 484.917C332.711 484.917 335.202 487.174 335.202 489.958Z" fill="#DFDFDF" fill-opacity="0.38"/>
<path fill-rule="evenodd" clip-rule="evenodd" d="M11.1383 171.446C11.1383 174.231 8.64525 176.488 5.56674 176.488C2.49304 176.488 0 174.231 0 171.446C0 168.662 2.49304 166.405 5.56674 166.405C8.64525 166.405 11.1383 168.662 11.1383 171.446Z" fill="#DFDFDF" fill-opacity="0.38"/>
<path fill-rule="evenodd" clip-rule="evenodd" d="M44.5528 171.446C44.5528 174.23 42.0598 176.487 38.9825 176.487C35.9076 176.487 33.4146 174.23 33.4146 171.446C33.4146 168.661 35.9076 166.404 38.9825 166.404C42.0598 166.404 44.5528 168.661 44.5528 171.446Z" fill="#DFDFDF" fill-opacity="0.38"/>
<path fill-rule="evenodd" clip-rule="evenodd" d="M75.1835 171.446C75.1835 174.23 72.6899 176.487 69.6143 176.487C66.5375 176.487 64.0452 174.23 64.0452 171.446C64.0452 168.661 66.5375 166.404 69.6143 166.404C72.6899 166.404 75.1835 168.661 75.1835 171.446Z" fill="#DFDFDF" fill-opacity="0.38"/>
<path fill-rule="evenodd" clip-rule="evenodd" d="M108.598 171.446C108.598 174.23 106.104 176.487 103.026 176.487C99.9509 176.487 97.4597 174.23 97.4597 171.446C97.4597 168.661 99.9509 166.404 103.026 166.404C106.104 166.404 108.598 168.661 108.598 171.446Z" fill="#DFDFDF" fill-opacity="0.38"/>
<path fill-rule="evenodd" clip-rule="evenodd" d="M139.229 171.446C139.229 174.23 136.737 176.487 133.659 176.487C130.584 176.487 128.091 174.23 128.091 171.446C128.091 168.661 130.584 166.404 133.659 166.404C136.737 166.404 139.229 168.661 139.229 171.446Z" fill="#DFDFDF" fill-opacity="0.38"/>
<path fill-rule="evenodd" clip-rule="evenodd" d="M11.1383 199.174C11.1383 201.958 8.64525 204.215 5.56674 204.215C2.49304 204.215 0 201.958 0 199.174C0 196.39 2.49304 194.132 5.56674 194.132C8.64525 194.132 11.1383 196.39 11.1383 199.174Z" fill="#DFDFDF" fill-opacity="0.38"/>
<path fill-rule="evenodd" clip-rule="evenodd" d="M44.5528 199.174C44.5528 201.958 42.0598 204.215 38.9825 204.215C35.9076 204.215 33.4146 201.958 33.4146 199.174C33.4146 196.39 35.9076 194.132 38.9825 194.132C42.0598 194.132 44.5528 196.39 44.5528 199.174Z" fill="#DFDFDF" fill-opacity="0.38"/>
<path fill-rule="evenodd" clip-rule="evenodd" d="M75.1835 199.174C75.1835 201.958 72.6899 204.215 69.6143 204.215C66.5375 204.215 64.0452 201.958 64.0452 199.174C64.0452 196.39 66.5375 194.132 69.6143 194.132C72.6899 194.132 75.1835 196.39 75.1835 199.174Z" fill="#DFDFDF" fill-opacity="0.38"/>
<path fill-rule="evenodd" clip-rule="evenodd" d="M108.598 199.174C108.598 201.958 106.104 204.215 103.026 204.215C99.9509 204.215 97.4597 201.958 97.4597 199.174C97.4597 196.39 99.9509 194.132 103.026 194.132C106.104 194.132 108.598 196.39 108.598 199.174Z" fill="#DFDFDF" fill-opacity="0.38"/>
<path fill-rule="evenodd" clip-rule="evenodd" d="M139.229 199.174C139.229 201.958 136.737 204.215 133.659 204.215C130.584 204.215 128.091 201.958 128.091 199.174C128.091 196.39 130.584 194.132 133.659 194.132C136.737 194.132 139.229 196.39 139.229 199.174Z" fill="#DFDFDF" fill-opacity="0.38"/>
<path fill-rule="evenodd" clip-rule="evenodd" d="M11.1383 230.684C11.1383 234.163 8.64525 236.986 5.56674 236.986C2.49304 236.986 0 234.163 0 230.684C0 227.204 2.49304 224.382 5.56674 224.382C8.64525 224.382 11.1383 227.204 11.1383 230.684Z" fill="#DFDFDF" fill-opacity="0.38"/>
<path fill-rule="evenodd" clip-rule="evenodd" d="M44.5528 230.684C44.5528 234.163 42.0598 236.986 38.9825 236.986C35.9076 236.986 33.4146 234.163 33.4146 230.684C33.4146 227.204 35.9076 224.382 38.9825 224.382C42.0598 224.382 44.5528 227.204 44.5528 230.684Z" fill="#DFDFDF" fill-opacity="0.38"/>
<path fill-rule="evenodd" clip-rule="evenodd" d="M75.1835 230.684C75.1835 234.163 72.6899 236.986 69.6143 236.986C66.5375 236.986 64.0452 234.163 64.0452 230.684C64.0452 227.204 66.5375 224.382 69.6143 224.382C72.6899 224.382 75.1835 227.204 75.1835 230.684Z" fill="#DFDFDF" fill-opacity="0.38"/>
<path fill-rule="evenodd" clip-rule="evenodd" d="M108.598 230.684C108.598 234.163 106.104 236.986 103.026 236.986C99.9509 236.986 97.4597 234.163 97.4597 230.684C97.4597 227.204 99.9509 224.382 103.026 224.382C106.104 224.382 108.598 227.204 108.598 230.684Z" fill="#DFDFDF" fill-opacity="0.38"/>
<path fill-rule="evenodd" clip-rule="evenodd" d="M139.229 230.684C139.229 234.163 136.737 236.986 133.659 236.986C130.584 236.986 128.091 234.163 128.091 230.684C128.091 227.204 130.584 224.382 133.659 224.382C136.737 224.382 139.229 227.204 139.229 230.684Z" fill="#DFDFDF" fill-opacity="0.38"/>
<path fill-rule="evenodd" clip-rule="evenodd" d="M11.1383 258.411C11.1383 261.892 8.64525 264.714 5.56674 264.714C2.49304 264.714 0 261.892 0 258.411C0 254.932 2.49304 252.11 5.56674 252.11C8.64525 252.11 11.1383 254.932 11.1383 258.411Z" fill="#DFDFDF" fill-opacity="0.38"/>
<path fill-rule="evenodd" clip-rule="evenodd" d="M44.5528 258.411C44.5528 261.892 42.0598 264.714 38.9825 264.714C35.9076 264.714 33.4146 261.892 33.4146 258.411C33.4146 254.932 35.9076 252.11 38.9825 252.11C42.0598 252.11 44.5528 254.932 44.5528 258.411Z" fill="#DFDFDF" fill-opacity="0.38"/>
<path fill-rule="evenodd" clip-rule="evenodd" d="M75.1835 258.411C75.1835 261.892 72.6899 264.714 69.6143 264.714C66.5375 264.714 64.0452 261.892 64.0452 258.411C64.0452 254.932 66.5375 252.11 69.6143 252.11C72.6899 252.11 75.1835 254.932 75.1835 258.411Z" fill="#DFDFDF" fill-opacity="0.38"/>
<path fill-rule="evenodd" clip-rule="evenodd" d="M108.598 258.411C108.598 261.892 106.104 264.714 103.026 264.714C99.9509 264.714 97.4597 261.892 97.4597 258.411C97.4597 254.932 99.9509 252.11 103.026 252.11C106.104 252.11 108.598 254.932 108.598 258.411Z" fill="#DFDFDF" fill-opacity="0.38"/>
<path fill-rule="evenodd" clip-rule="evenodd" d="M139.229 258.411C139.229 261.892 136.737 264.714 133.659 264.714C130.584 264.714 128.091 261.892 128.091 258.411C128.091 254.932 130.584 252.11 133.659 252.11C136.737 252.11 139.229 254.932 139.229 258.411Z" fill="#DFDFDF" fill-opacity="0.38"/>
<path fill-rule="evenodd" clip-rule="evenodd" d="M11.1383 287.4C11.1383 290.184 8.64525 292.442 5.56674 292.442C2.49304 292.442 0 290.184 0 287.4C0 284.615 2.49304 282.359 5.56674 282.359C8.64525 282.359 11.1383 284.615 11.1383 287.4Z" fill="#DFDFDF" fill-opacity="0.38"/>
<path fill-rule="evenodd" clip-rule="evenodd" d="M44.5528 287.4C44.5528 290.184 42.0598 292.442 38.9825 292.442C35.9076 292.442 33.4146 290.184 33.4146 287.4C33.4146 284.615 35.9076 282.359 38.9825 282.359C42.0598 282.359 44.5528 284.615 44.5528 287.4Z" fill="#DFDFDF" fill-opacity="0.38"/>
<path fill-rule="evenodd" clip-rule="evenodd" d="M75.1835 287.4C75.1835 290.184 72.6899 292.442 69.6143 292.442C66.5375 292.442 64.0452 290.184 64.0452 287.4C64.0452 284.615 66.5375 282.359 69.6143 282.359C72.6899 282.359 75.1835 284.615 75.1835 287.4Z" fill="#DFDFDF" fill-opacity="0.38"/>
<path fill-rule="evenodd" clip-rule="evenodd" d="M108.598 287.4C108.598 290.184 106.104 292.442 103.026 292.442C99.9509 292.442 97.4597 290.184 97.4597 287.4C97.4597 284.615 99.9509 282.359 103.026 282.359C106.104 282.359 108.598 284.615 108.598 287.4Z" fill="#DFDFDF" fill-opacity="0.38"/>
<path fill-rule="evenodd" clip-rule="evenodd" d="M139.229 287.4C139.229 290.184 136.737 292.442 133.659 292.442C130.584 292.442 128.091 290.184 128.091 287.4C128.091 284.615 130.584 282.359 133.659 282.359C136.737 282.359 139.229 284.615 139.229 287.4Z" fill="#DFDFDF" fill-opacity="0.38"/>
<path fill-rule="evenodd" clip-rule="evenodd" d="M11.1383 315.129C11.1383 317.913 8.64525 320.17 5.56674 320.17C2.49304 320.17 0 317.913 0 315.129C0 312.344 2.49304 310.087 5.56674 310.087C8.64525 310.087 11.1383 312.344 11.1383 315.129Z" fill="#DFDFDF" fill-opacity="0.38"/>
<path fill-rule="evenodd" clip-rule="evenodd" d="M44.5528 315.129C44.5528 317.913 42.0598 320.17 38.9825 320.17C35.9076 320.17 33.4146 317.913 33.4146 315.129C33.4146 312.344 35.9076 310.087 38.9825 310.087C42.0598 310.087 44.5528 312.344 44.5528 315.129Z" fill="#DFDFDF" fill-opacity="0.38"/>
<path fill-rule="evenodd" clip-rule="evenodd" d="M75.1835 315.129C75.1835 317.913 72.6899 320.17 69.6143 320.17C66.5375 320.17 64.0452 317.913 64.0452 315.129C64.0452 312.344 66.5375 310.087 69.6143 310.087C72.6899 310.087 75.1835 312.344 75.1835 315.129Z" fill="#DFDFDF" fill-opacity="0.38"/>
<path fill-rule="evenodd" clip-rule="evenodd" d="M108.598 315.129C108.598 317.913 106.104 320.17 103.026 320.17C99.9509 320.17 97.4597 317.913 97.4597 315.129C97.4597 312.344 99.9509 310.087 103.026 310.087C106.104 310.087 108.598 312.344 108.598 315.129Z" fill="#DFDFDF" fill-opacity="0.38"/>
<path fill-rule="evenodd" clip-rule="evenodd" d="M139.229 315.129C139.229 317.913 136.737 320.17 133.659 320.17C130.584 320.17 128.091 317.913 128.091 315.129C128.091 312.344 130.584 310.087 133.659 310.087C136.737 310.087 139.229 312.344 139.229 315.129Z" fill="#DFDFDF" fill-opacity="0.38"/>
<path fill-rule="evenodd" clip-rule="evenodd" d="M172.644 171.446C172.644 174.23 170.152 176.487 167.073 176.487C163.998 176.487 161.505 174.23 161.505 171.446C161.505 168.661 163.998 166.404 167.073 166.404C170.152 166.404 172.644 168.661 172.644 171.446Z" fill="#DFDFDF" fill-opacity="0.38"/>
<path fill-rule="evenodd" clip-rule="evenodd" d="M172.644 199.174C172.644 201.958 170.152 204.215 167.073 204.215C163.998 204.215 161.505 201.958 161.505 199.174C161.505 196.39 163.998 194.132 167.073 194.132C170.152 194.132 172.644 196.39 172.644 199.174Z" fill="#DFDFDF" fill-opacity="0.38"/>
<path fill-rule="evenodd" clip-rule="evenodd" d="M172.644 230.684C172.644 234.163 170.152 236.986 167.073 236.986C163.998 236.986 161.505 234.163 161.505 230.684C161.505 227.204 163.998 224.382 167.073 224.382C170.152 224.382 172.644 227.204 172.644 230.684Z" fill="#DFDFDF" fill-opacity="0.38"/>
<path fill-rule="evenodd" clip-rule="evenodd" d="M172.644 258.411C172.644 261.892 170.152 264.714 167.073 264.714C163.998 264.714 161.505 261.892 161.505 258.411C161.505 254.932 163.998 252.11 167.073 252.11C170.152 252.11 172.644 254.932 172.644 258.411Z" fill="#DFDFDF" fill-opacity="0.38"/>
<path fill-rule="evenodd" clip-rule="evenodd" d="M172.644 287.4C172.644 290.184 170.152 292.442 167.073 292.442C163.998 292.442 161.505 290.184 161.505 287.4C161.505 284.615 163.998 282.359 167.073 282.359C170.152 282.359 172.644 284.615 172.644 287.4Z" fill="#DFDFDF" fill-opacity="0.38"/>
<path fill-rule="evenodd" clip-rule="evenodd" d="M172.644 315.129C172.644 317.913 170.152 320.17 167.073 320.17C163.998 320.17 161.505 317.913 161.505 315.129C161.505 312.344 163.998 310.087 167.073 310.087C170.152 310.087 172.644 312.344 172.644 315.129Z" fill="#DFDFDF" fill-opacity="0.38"/>
<path fill-rule="evenodd" clip-rule="evenodd" d="M207.112 171.446C207.112 174.231 204.619 176.488 201.541 176.488C198.467 176.488 195.974 174.231 195.974 171.446C195.974 168.661 198.467 166.405 201.541 166.405C204.619 166.405 207.112 168.661 207.112 171.446Z" fill="#DFDFDF" fill-opacity="0.38"/>
<path fill-rule="evenodd" clip-rule="evenodd" d="M240.527 171.446C240.527 174.23 238.034 176.487 234.956 176.487C231.881 176.487 229.388 174.23 229.388 171.446C229.388 168.661 231.881 166.404 234.956 166.404C238.034 166.404 240.527 168.661 240.527 171.446Z" fill="#DFDFDF" fill-opacity="0.38"/>
<path fill-rule="evenodd" clip-rule="evenodd" d="M271.157 171.446C271.157 174.23 268.664 176.487 265.588 176.487C262.511 176.487 260.019 174.23 260.019 171.446C260.019 168.661 262.511 166.404 265.588 166.404C268.664 166.404 271.157 168.661 271.157 171.446Z" fill="#DFDFDF" fill-opacity="0.38"/>
<path fill-rule="evenodd" clip-rule="evenodd" d="M304.572 171.446C304.572 174.23 302.078 176.487 299 176.487C295.925 176.487 293.434 174.23 293.434 171.446C293.434 168.661 295.925 166.404 299 166.404C302.078 166.404 304.572 168.661 304.572 171.446Z" fill="#DFDFDF" fill-opacity="0.38"/>
<path fill-rule="evenodd" clip-rule="evenodd" d="M335.202 171.446C335.202 174.23 332.711 176.487 329.632 176.487C326.557 176.487 324.064 174.23 324.064 171.446C324.064 168.661 326.557 166.404 329.632 166.404C332.711 166.404 335.202 168.661 335.202 171.446Z" fill="#DFDFDF" fill-opacity="0.38"/>
<path fill-rule="evenodd" clip-rule="evenodd" d="M207.112 199.174C207.112 201.958 204.619 204.215 201.541 204.215C198.467 204.215 195.974 201.958 195.974 199.174C195.974 196.39 198.467 194.132 201.541 194.132C204.619 194.132 207.112 196.39 207.112 199.174Z" fill="#DFDFDF" fill-opacity="0.38"/>
<path fill-rule="evenodd" clip-rule="evenodd" d="M240.527 199.174C240.527 201.958 238.034 204.215 234.956 204.215C231.881 204.215 229.388 201.958 229.388 199.174C229.388 196.39 231.881 194.132 234.956 194.132C238.034 194.132 240.527 196.39 240.527 199.174Z" fill="#DFDFDF" fill-opacity="0.38"/>
<path fill-rule="evenodd" clip-rule="evenodd" d="M271.157 199.174C271.157 201.958 268.664 204.215 265.588 204.215C262.511 204.215 260.019 201.958 260.019 199.174C260.019 196.39 262.511 194.132 265.588 194.132C268.664 194.132 271.157 196.39 271.157 199.174Z" fill="#DFDFDF" fill-opacity="0.38"/>
<path fill-rule="evenodd" clip-rule="evenodd" d="M304.572 199.174C304.572 201.958 302.078 204.215 299 204.215C295.925 204.215 293.434 201.958 293.434 199.174C293.434 196.39 295.925 194.132 299 194.132C302.078 194.132 304.572 196.39 304.572 199.174Z" fill="#DFDFDF" fill-opacity="0.38"/>
<path fill-rule="evenodd" clip-rule="evenodd" d="M335.202 199.174C335.202 201.958 332.711 204.215 329.632 204.215C326.557 204.215 324.064 201.958 324.064 199.174C324.064 196.39 326.557 194.132 329.632 194.132C332.711 194.132 335.202 196.39 335.202 199.174Z" fill="#DFDFDF" fill-opacity="0.38"/>
<path fill-rule="evenodd" clip-rule="evenodd" d="M207.112 230.684C207.112 234.163 204.619 236.986 201.541 236.986C198.467 236.986 195.974 234.163 195.974 230.684C195.974 227.204 198.467 224.382 201.541 224.382C204.619 224.382 207.112 227.204 207.112 230.684Z" fill="#DFDFDF" fill-opacity="0.38"/>
<path fill-rule="evenodd" clip-rule="evenodd" d="M240.527 230.684C240.527 234.163 238.034 236.986 234.956 236.986C231.881 236.986 229.388 234.163 229.388 230.684C229.388 227.204 231.881 224.382 234.956 224.382C238.034 224.382 240.527 227.204 240.527 230.684Z" fill="#DFDFDF" fill-opacity="0.38"/>
<path fill-rule="evenodd" clip-rule="evenodd" d="M271.157 230.684C271.157 234.163 268.664 236.986 265.588 236.986C262.511 236.986 260.019 234.163 260.019 230.684C260.019 227.204 262.511 224.382 265.588 224.382C268.664 224.382 271.157 227.204 271.157 230.684Z" fill="#DFDFDF" fill-opacity="0.38"/>
<path fill-rule="evenodd" clip-rule="evenodd" d="M304.572 230.684C304.572 234.163 302.078 236.986 299 236.986C295.925 236.986 293.434 234.163 293.434 230.684C293.434 227.204 295.925 224.382 299 224.382C302.078 224.382 304.572 227.204 304.572 230.684Z" fill="#DFDFDF" fill-opacity="0.38"/>
<path fill-rule="evenodd" clip-rule="evenodd" d="M335.202 230.684C335.202 234.163 332.711 236.986 329.632 236.986C326.557 236.986 324.064 234.163 324.064 230.684C324.064 227.204 326.557 224.382 329.632 224.382C332.711 224.382 335.202 227.204 335.202 230.684Z" fill="#DFDFDF" fill-opacity="0.38"/>
<path fill-rule="evenodd" clip-rule="evenodd" d="M207.112 258.411C207.112 261.892 204.619 264.714 201.541 264.714C198.467 264.714 195.974 261.892 195.974 258.411C195.974 254.932 198.467 252.11 201.541 252.11C204.619 252.11 207.112 254.932 207.112 258.411Z" fill="#DFDFDF" fill-opacity="0.38"/>
<path fill-rule="evenodd" clip-rule="evenodd" d="M240.527 258.411C240.527 261.892 238.034 264.714 234.956 264.714C231.881 264.714 229.388 261.892 229.388 258.411C229.388 254.932 231.881 252.11 234.956 252.11C238.034 252.11 240.527 254.932 240.527 258.411Z" fill="#DFDFDF" fill-opacity="0.38"/>
<path fill-rule="evenodd" clip-rule="evenodd" d="M271.157 258.411C271.157 261.892 268.664 264.714 265.588 264.714C262.511 264.714 260.019 261.892 260.019 258.411C260.019 254.932 262.511 252.11 265.588 252.11C268.664 252.11 271.157 254.932 271.157 258.411Z" fill="#DFDFDF" fill-opacity="0.38"/>
<path fill-rule="evenodd" clip-rule="evenodd" d="M304.572 258.411C304.572 261.892 302.078 264.714 299 264.714C295.925 264.714 293.434 261.892 293.434 258.411C293.434 254.932 295.925 252.11 299 252.11C302.078 252.11 304.572 254.932 304.572 258.411Z" fill="#DFDFDF" fill-opacity="0.38"/>
<path fill-rule="evenodd" clip-rule="evenodd" d="M335.202 258.411C335.202 261.892 332.711 264.714 329.632 264.714C326.557 264.714 324.064 261.892 324.064 258.411C324.064 254.932 326.557 252.11 329.632 252.11C332.711 252.11 335.202 254.932 335.202 258.411Z" fill="#DFDFDF" fill-opacity="0.38"/>
<path fill-rule="evenodd" clip-rule="evenodd" d="M207.112 287.4C207.112 290.184 204.619 292.442 201.541 292.442C198.467 292.442 195.974 290.184 195.974 287.4C195.974 284.615 198.467 282.359 201.541 282.359C204.619 282.359 207.112 284.615 207.112 287.4Z" fill="#DFDFDF" fill-opacity="0.38"/>
<path fill-rule="evenodd" clip-rule="evenodd" d="M240.527 287.4C240.527 290.184 238.034 292.442 234.956 292.442C231.881 292.442 229.388 290.184 229.388 287.4C229.388 284.615 231.881 282.359 234.956 282.359C238.034 282.359 240.527 284.615 240.527 287.4Z" fill="#DFDFDF" fill-opacity="0.38"/>
<path fill-rule="evenodd" clip-rule="evenodd" d="M271.157 287.4C271.157 290.184 268.664 292.442 265.588 292.442C262.511 292.442 260.019 290.184 260.019 287.4C260.019 284.615 262.511 282.359 265.588 282.359C268.664 282.359 271.157 284.615 271.157 287.4Z" fill="#DFDFDF" fill-opacity="0.38"/>
<path fill-rule="evenodd" clip-rule="evenodd" d="M304.572 287.4C304.572 290.184 302.078 292.442 299 292.442C295.925 292.442 293.434 290.184 293.434 287.4C293.434 284.615 295.925 282.359 299 282.359C302.078 282.359 304.572 284.615 304.572 287.4Z" fill="#DFDFDF" fill-opacity="0.38"/>
<path fill-rule="evenodd" clip-rule="evenodd" d="M335.202 287.4C335.202 290.184 332.711 292.442 329.632 292.442C326.557 292.442 324.064 290.184 324.064 287.4C324.064 284.615 326.557 282.359 329.632 282.359C332.711 282.359 335.202 284.615 335.202 287.4Z" fill="#DFDFDF" fill-opacity="0.38"/>
<path fill-rule="evenodd" clip-rule="evenodd" d="M207.112 315.129C207.112 317.913 204.619 320.17 201.541 320.17C198.467 320.17 195.974 317.913 195.974 315.129C195.974 312.344 198.467 310.087 201.541 310.087C204.619 310.087 207.112 312.344 207.112 315.129Z" fill="#DFDFDF" fill-opacity="0.38"/>
<path fill-rule="evenodd" clip-rule="evenodd" d="M240.527 315.129C240.527 317.913 238.034 320.17 234.956 320.17C231.881 320.17 229.388 317.913 229.388 315.129C229.388 312.344 231.881 310.087 234.956 310.087C238.034 310.087 240.527 312.344 240.527 315.129Z" fill="#DFDFDF" fill-opacity="0.38"/>
<path fill-rule="evenodd" clip-rule="evenodd" d="M271.157 315.129C271.157 317.913 268.664 320.17 265.588 320.17C262.511 320.17 260.019 317.913 260.019 315.129C260.019 312.344 262.511 310.087 265.588 310.087C268.664 310.087 271.157 312.344 271.157 315.129Z" fill="#DFDFDF" fill-opacity="0.38"/>
<path fill-rule="evenodd" clip-rule="evenodd" d="M304.572 315.129C304.572 317.913 302.078 320.17 299 320.17C295.925 320.17 293.434 317.913 293.434 315.129C293.434 312.344 295.925 310.087 299 310.087C302.078 310.087 304.572 312.344 304.572 315.129Z" fill="#DFDFDF" fill-opacity="0.38"/>
<path fill-rule="evenodd" clip-rule="evenodd" d="M335.202 315.129C335.202 317.913 332.711 320.17 329.632 320.17C326.557 320.17 324.064 317.913 324.064 315.129C324.064 312.344 326.557 310.087 329.632 310.087C332.711 310.087 335.202 312.344 335.202 315.129Z" fill="#DFDFDF" fill-opacity="0.38"/>
<path fill-rule="evenodd" clip-rule="evenodd" d="M11.1383 5.04151C11.1383 7.82617 8.64525 10.083 5.56674 10.083C2.49304 10.083 0 7.82617 0 5.04151C0 2.25684 2.49304 0 5.56674 0C8.64525 0 11.1383 2.25684 11.1383 5.04151Z" fill="#DFDFDF" fill-opacity="0.38"/>
<path fill-rule="evenodd" clip-rule="evenodd" d="M44.5528 5.04151C44.5528 7.82617 42.0598 10.083 38.9825 10.083C35.9076 10.083 33.4146 7.82617 33.4146 5.04151C33.4146 2.25684 35.9076 0 38.9825 0C42.0598 0 44.5528 2.25684 44.5528 5.04151Z" fill="#DFDFDF" fill-opacity="0.38"/>
<path fill-rule="evenodd" clip-rule="evenodd" d="M75.1835 5.04151C75.1835 7.82617 72.6899 10.083 69.6143 10.083C66.5375 10.083 64.0452 7.82617 64.0452 5.04151C64.0452 2.25684 66.5375 0 69.6143 0C72.6899 0 75.1835 2.25684 75.1835 5.04151Z" fill="#DFDFDF" fill-opacity="0.38"/>
<path fill-rule="evenodd" clip-rule="evenodd" d="M108.598 5.04151C108.598 7.82617 106.104 10.083 103.026 10.083C99.9509 10.083 97.4597 7.82617 97.4597 5.04151C97.4597 2.25684 99.9509 0 103.026 0C106.104 0 108.598 2.25684 108.598 5.04151Z" fill="#DFDFDF" fill-opacity="0.38"/>
<path fill-rule="evenodd" clip-rule="evenodd" d="M139.229 5.04151C139.229 7.82617 136.737 10.083 133.659 10.083C130.584 10.083 128.091 7.82617 128.091 5.04151C128.091 2.25684 130.584 0 133.659 0C136.737 0 139.229 2.25684 139.229 5.04151Z" fill="#DFDFDF" fill-opacity="0.38"/>
<path fill-rule="evenodd" clip-rule="evenodd" d="M11.1383 32.7695C11.1383 35.5542 8.64525 37.811 5.56674 37.811C2.49304 37.811 0 35.5542 0 32.7695C0 29.986 2.49304 27.728 5.56674 27.728C8.64525 27.728 11.1383 29.986 11.1383 32.7695Z" fill="#DFDFDF" fill-opacity="0.38"/>
<path fill-rule="evenodd" clip-rule="evenodd" d="M44.5528 32.7695C44.5528 35.5542 42.0598 37.811 38.9825 37.811C35.9076 37.811 33.4146 35.5542 33.4146 32.7695C33.4146 29.986 35.9076 27.728 38.9825 27.728C42.0598 27.728 44.5528 29.986 44.5528 32.7695Z" fill="#DFDFDF" fill-opacity="0.38"/>
<path fill-rule="evenodd" clip-rule="evenodd" d="M75.1835 32.7695C75.1835 35.5542 72.6899 37.811 69.6143 37.811C66.5375 37.811 64.0452 35.5542 64.0452 32.7695C64.0452 29.986 66.5375 27.728 69.6143 27.728C72.6899 27.728 75.1835 29.986 75.1835 32.7695Z" fill="#DFDFDF" fill-opacity="0.38"/>
<path fill-rule="evenodd" clip-rule="evenodd" d="M108.598 32.7695C108.598 35.5542 106.104 37.811 103.026 37.811C99.9509 37.811 97.4597 35.5542 97.4597 32.7695C97.4597 29.986 99.9509 27.728 103.026 27.728C106.104 27.728 108.598 29.986 108.598 32.7695Z" fill="#DFDFDF" fill-opacity="0.38"/>
<path fill-rule="evenodd" clip-rule="evenodd" d="M139.229 32.7695C139.229 35.5542 136.737 37.811 133.659 37.811C130.584 37.811 128.091 35.5542 128.091 32.7695C128.091 29.986 130.584 27.728 133.659 27.728C136.737 27.728 139.229 29.986 139.229 32.7695Z" fill="#DFDFDF" fill-opacity="0.38"/>
<path fill-rule="evenodd" clip-rule="evenodd" d="M11.1383 64.2799C11.1383 67.759 8.64525 70.5811 5.56674 70.5811C2.49304 70.5811 0 67.759 0 64.2799C0 60.7994 2.49304 57.9773 5.56674 57.9773C8.64525 57.9773 11.1383 60.7994 11.1383 64.2799Z" fill="#DFDFDF" fill-opacity="0.38"/>
<path fill-rule="evenodd" clip-rule="evenodd" d="M44.5528 64.2799C44.5528 67.759 42.0598 70.5811 38.9825 70.5811C35.9076 70.5811 33.4146 67.759 33.4146 64.2799C33.4146 60.7994 35.9076 57.9773 38.9825 57.9773C42.0598 57.9773 44.5528 60.7994 44.5528 64.2799Z" fill="#DFDFDF" fill-opacity="0.38"/>
<path fill-rule="evenodd" clip-rule="evenodd" d="M75.1835 64.2799C75.1835 67.759 72.6899 70.5811 69.6143 70.5811C66.5375 70.5811 64.0452 67.759 64.0452 64.2799C64.0452 60.7994 66.5375 57.9773 69.6143 57.9773C72.6899 57.9773 75.1835 60.7994 75.1835 64.2799Z" fill="#DFDFDF" fill-opacity="0.38"/>
<path fill-rule="evenodd" clip-rule="evenodd" d="M108.598 64.2799C108.598 67.759 106.104 70.5811 103.026 70.5811C99.9509 70.5811 97.4597 67.759 97.4597 64.2799C97.4597 60.7994 99.9509 57.9773 103.026 57.9773C106.104 57.9773 108.598 60.7994 108.598 64.2799Z" fill="#DFDFDF" fill-opacity="0.38"/>
<path fill-rule="evenodd" clip-rule="evenodd" d="M139.229 64.2799C139.229 67.759 136.737 70.5811 133.659 70.5811C130.584 70.5811 128.091 67.759 128.091 64.2799C128.091 60.7994 130.584 57.9773 133.659 57.9773C136.737 57.9773 139.229 60.7994 139.229 64.2799Z" fill="#DFDFDF" fill-opacity="0.38"/>
<path fill-rule="evenodd" clip-rule="evenodd" d="M11.1383 92.0068C11.1383 95.4872 8.64525 98.3093 5.56674 98.3093C2.49304 98.3093 0 95.4872 0 92.0068C0 88.5277 2.49304 85.7056 5.56674 85.7056C8.64525 85.7056 11.1383 88.5277 11.1383 92.0068Z" fill="#DFDFDF" fill-opacity="0.38"/>
<path fill-rule="evenodd" clip-rule="evenodd" d="M44.5528 92.0068C44.5528 95.4872 42.0598 98.3093 38.9825 98.3093C35.9076 98.3093 33.4146 95.4872 33.4146 92.0068C33.4146 88.5277 35.9076 85.7056 38.9825 85.7056C42.0598 85.7056 44.5528 88.5277 44.5528 92.0068Z" fill="#DFDFDF" fill-opacity="0.38"/>
<path fill-rule="evenodd" clip-rule="evenodd" d="M75.1835 92.0068C75.1835 95.4872 72.6899 98.3093 69.6143 98.3093C66.5375 98.3093 64.0452 95.4872 64.0452 92.0068C64.0452 88.5277 66.5375 85.7056 69.6143 85.7056C72.6899 85.7056 75.1835 88.5277 75.1835 92.0068Z" fill="#DFDFDF" fill-opacity="0.38"/>
<path fill-rule="evenodd" clip-rule="evenodd" d="M108.598 92.0068C108.598 95.4872 106.104 98.3093 103.026 98.3093C99.9509 98.3093 97.4597 95.4872 97.4597 92.0068C97.4597 88.5277 99.9509 85.7056 103.026 85.7056C106.104 85.7056 108.598 88.5277 108.598 92.0068Z" fill="#DFDFDF" fill-opacity="0.38"/>
<path fill-rule="evenodd" clip-rule="evenodd" d="M139.229 92.0068C139.229 95.4872 136.737 98.3093 133.659 98.3093C130.584 98.3093 128.091 95.4872 128.091 92.0068C128.091 88.5277 130.584 85.7056 133.659 85.7056C136.737 85.7056 139.229 88.5277 139.229 92.0068Z" fill="#DFDFDF" fill-opacity="0.38"/>
<path fill-rule="evenodd" clip-rule="evenodd" d="M11.1383 120.996C11.1383 123.779 8.64525 126.037 5.56674 126.037C2.49304 126.037 0 123.779 0 120.996C0 118.211 2.49304 115.954 5.56674 115.954C8.64525 115.954 11.1383 118.211 11.1383 120.996Z" fill="#DFDFDF" fill-opacity="0.38"/>
<path fill-rule="evenodd" clip-rule="evenodd" d="M44.5528 120.996C44.5528 123.779 42.0598 126.037 38.9825 126.037C35.9076 126.037 33.4146 123.779 33.4146 120.996C33.4146 118.211 35.9076 115.954 38.9825 115.954C42.0598 115.954 44.5528 118.211 44.5528 120.996Z" fill="#DFDFDF" fill-opacity="0.38"/>
<path fill-rule="evenodd" clip-rule="evenodd" d="M75.1835 120.996C75.1835 123.779 72.6899 126.037 69.6143 126.037C66.5375 126.037 64.0452 123.779 64.0452 120.996C64.0452 118.211 66.5375 115.954 69.6143 115.954C72.6899 115.954 75.1835 118.211 75.1835 120.996Z" fill="#DFDFDF" fill-opacity="0.38"/>
<path fill-rule="evenodd" clip-rule="evenodd" d="M108.598 120.996C108.598 123.779 106.104 126.037 103.026 126.037C99.9509 126.037 97.4597 123.779 97.4597 120.996C97.4597 118.211 99.9509 115.954 103.026 115.954C106.104 115.954 108.598 118.211 108.598 120.996Z" fill="#DFDFDF" fill-opacity="0.38"/>
<path fill-rule="evenodd" clip-rule="evenodd" d="M139.229 120.996C139.229 123.779 136.737 126.037 133.659 126.037C130.584 126.037 128.091 123.779 128.091 120.996C128.091 118.211 130.584 115.954 133.659 115.954C136.737 115.954 139.229 118.211 139.229 120.996Z" fill="#DFDFDF" fill-opacity="0.38"/>
<path fill-rule="evenodd" clip-rule="evenodd" d="M11.1383 148.724C11.1383 151.509 8.64525 153.766 5.56674 153.766C2.49304 153.766 0 151.509 0 148.724C0 145.94 2.49304 143.683 5.56674 143.683C8.64525 143.683 11.1383 145.94 11.1383 148.724Z" fill="#DFDFDF" fill-opacity="0.38"/>
<path fill-rule="evenodd" clip-rule="evenodd" d="M44.5528 148.724C44.5528 151.509 42.0598 153.766 38.9825 153.766C35.9076 153.766 33.4146 151.509 33.4146 148.724C33.4146 145.94 35.9076 143.683 38.9825 143.683C42.0598 143.683 44.5528 145.94 44.5528 148.724Z" fill="#DFDFDF" fill-opacity="0.38"/>
<path fill-rule="evenodd" clip-rule="evenodd" d="M75.1835 148.724C75.1835 151.509 72.6899 153.766 69.6143 153.766C66.5375 153.766 64.0452 151.509 64.0452 148.724C64.0452 145.94 66.5375 143.683 69.6143 143.683C72.6899 143.683 75.1835 145.94 75.1835 148.724Z" fill="#DFDFDF" fill-opacity="0.38"/>
<path fill-rule="evenodd" clip-rule="evenodd" d="M108.598 148.724C108.598 151.509 106.104 153.766 103.026 153.766C99.9509 153.766 97.4597 151.509 97.4597 148.724C97.4597 145.94 99.9509 143.683 103.026 143.683C106.104 143.683 108.598 145.94 108.598 148.724Z" fill="#DFDFDF" fill-opacity="0.38"/>
<path fill-rule="evenodd" clip-rule="evenodd" d="M139.229 148.724C139.229 151.509 136.737 153.766 133.659 153.766C130.584 153.766 128.091 151.509 128.091 148.724C128.091 145.94 130.584 143.683 133.659 143.683C136.737 143.683 139.229 145.94 139.229 148.724Z" fill="#DFDFDF" fill-opacity="0.38"/>
<path fill-rule="evenodd" clip-rule="evenodd" d="M172.644 5.04151C172.644 7.82617 170.152 10.083 167.073 10.083C163.998 10.083 161.505 7.82617 161.505 5.04151C161.505 2.25684 163.998 0 167.073 0C170.152 0 172.644 2.25684 172.644 5.04151Z" fill="#DFDFDF" fill-opacity="0.38"/>
<path fill-rule="evenodd" clip-rule="evenodd" d="M172.644 32.7695C172.644 35.5542 170.152 37.811 167.073 37.811C163.998 37.811 161.505 35.5542 161.505 32.7695C161.505 29.986 163.998 27.728 167.073 27.728C170.152 27.728 172.644 29.986 172.644 32.7695Z" fill="#DFDFDF" fill-opacity="0.38"/>
<path fill-rule="evenodd" clip-rule="evenodd" d="M172.644 64.2799C172.644 67.759 170.152 70.5811 167.073 70.5811C163.998 70.5811 161.505 67.759 161.505 64.2799C161.505 60.7994 163.998 57.9773 167.073 57.9773C170.152 57.9773 172.644 60.7994 172.644 64.2799Z" fill="#DFDFDF" fill-opacity="0.38"/>
<path fill-rule="evenodd" clip-rule="evenodd" d="M172.644 92.0068C172.644 95.4872 170.152 98.3093 167.073 98.3093C163.998 98.3093 161.505 95.4872 161.505 92.0068C161.505 88.5277 163.998 85.7056 167.073 85.7056C170.152 85.7056 172.644 88.5277 172.644 92.0068Z" fill="#DFDFDF" fill-opacity="0.38"/>
<path fill-rule="evenodd" clip-rule="evenodd" d="M172.644 120.996C172.644 123.779 170.152 126.037 167.073 126.037C163.998 126.037 161.505 123.779 161.505 120.996C161.505 118.211 163.998 115.954 167.073 115.954C170.152 115.954 172.644 118.211 172.644 120.996Z" fill="#DFDFDF" fill-opacity="0.38"/>
<path fill-rule="evenodd" clip-rule="evenodd" d="M172.644 148.724C172.644 151.509 170.152 153.766 167.073 153.766C163.998 153.766 161.505 151.509 161.505 148.724C161.505 145.94 163.998 143.683 167.073 143.683C170.152 143.683 172.644 145.94 172.644 148.724Z" fill="#DFDFDF" fill-opacity="0.38"/>
<path fill-rule="evenodd" clip-rule="evenodd" d="M207.112 5.04151C207.112 7.82617 204.619 10.083 201.541 10.083C198.467 10.083 195.974 7.82617 195.974 5.04151C195.974 2.25684 198.467 0 201.541 0C204.619 0 207.112 2.25684 207.112 5.04151Z" fill="#DFDFDF" fill-opacity="0.38"/>
<path fill-rule="evenodd" clip-rule="evenodd" d="M240.527 5.04151C240.527 7.82617 238.034 10.083 234.956 10.083C231.881 10.083 229.388 7.82617 229.388 5.04151C229.388 2.25684 231.881 0 234.956 0C238.034 0 240.527 2.25684 240.527 5.04151Z" fill="#DFDFDF" fill-opacity="0.38"/>
<path fill-rule="evenodd" clip-rule="evenodd" d="M271.157 5.04151C271.157 7.82617 268.664 10.083 265.588 10.083C262.511 10.083 260.019 7.82617 260.019 5.04151C260.019 2.25684 262.511 0 265.588 0C268.664 0 271.157 2.25684 271.157 5.04151Z" fill="#DFDFDF" fill-opacity="0.38"/>
<path fill-rule="evenodd" clip-rule="evenodd" d="M304.572 5.04151C304.572 7.82617 302.078 10.083 299 10.083C295.925 10.083 293.434 7.82617 293.434 5.04151C293.434 2.25684 295.925 0 299 0C302.078 0 304.572 2.25684 304.572 5.04151Z" fill="#DFDFDF" fill-opacity="0.38"/>
<path fill-rule="evenodd" clip-rule="evenodd" d="M335.202 5.04151C335.202 7.82617 332.711 10.083 329.632 10.083C326.557 10.083 324.064 7.82617 324.064 5.04151C324.064 2.25684 326.557 0 329.632 0C332.711 0 335.202 2.25684 335.202 5.04151Z" fill="#DFDFDF" fill-opacity="0.38"/>
<path fill-rule="evenodd" clip-rule="evenodd" d="M207.112 32.7695C207.112 35.5542 204.619 37.811 201.541 37.811C198.467 37.811 195.974 35.5542 195.974 32.7695C195.974 29.986 198.467 27.728 201.541 27.728C204.619 27.728 207.112 29.986 207.112 32.7695Z" fill="#DFDFDF" fill-opacity="0.38"/>
<path fill-rule="evenodd" clip-rule="evenodd" d="M240.527 32.7695C240.527 35.5542 238.034 37.811 234.956 37.811C231.881 37.811 229.388 35.5542 229.388 32.7695C229.388 29.986 231.881 27.728 234.956 27.728C238.034 27.728 240.527 29.986 240.527 32.7695Z" fill="#DFDFDF" fill-opacity="0.38"/>
<path fill-rule="evenodd" clip-rule="evenodd" d="M271.157 32.7695C271.157 35.5542 268.664 37.811 265.588 37.811C262.511 37.811 260.019 35.5542 260.019 32.7695C260.019 29.986 262.511 27.728 265.588 27.728C268.664 27.728 271.157 29.986 271.157 32.7695Z" fill="#DFDFDF" fill-opacity="0.38"/>
<path fill-rule="evenodd" clip-rule="evenodd" d="M304.572 32.7695C304.572 35.5542 302.078 37.811 299 37.811C295.925 37.811 293.434 35.5542 293.434 32.7695C293.434 29.986 295.925 27.728 299 27.728C302.078 27.728 304.572 29.986 304.572 32.7695Z" fill="#DFDFDF" fill-opacity="0.38"/>
<path fill-rule="evenodd" clip-rule="evenodd" d="M335.202 32.7695C335.202 35.5542 332.711 37.811 329.632 37.811C326.557 37.811 324.064 35.5542 324.064 32.7695C324.064 29.986 326.557 27.728 329.632 27.728C332.711 27.728 335.202 29.986 335.202 32.7695Z" fill="#DFDFDF" fill-opacity="0.38"/>
<path fill-rule="evenodd" clip-rule="evenodd" d="M207.112 64.2799C207.112 67.759 204.619 70.5811 201.541 70.5811C198.467 70.5811 195.974 67.759 195.974 64.2799C195.974 60.7994 198.467 57.9773 201.541 57.9773C204.619 57.9773 207.112 60.7994 207.112 64.2799Z" fill="#DFDFDF" fill-opacity="0.38"/>
<path fill-rule="evenodd" clip-rule="evenodd" d="M240.527 64.2799C240.527 67.759 238.034 70.5811 234.956 70.5811C231.881 70.5811 229.388 67.759 229.388 64.2799C229.388 60.7994 231.881 57.9773 234.956 57.9773C238.034 57.9773 240.527 60.7994 240.527 64.2799Z" fill="#DFDFDF" fill-opacity="0.38"/>
<path fill-rule="evenodd" clip-rule="evenodd" d="M271.157 64.2799C271.157 67.759 268.664 70.5811 265.588 70.5811C262.511 70.5811 260.019 67.759 260.019 64.2799C260.019 60.7994 262.511 57.9773 265.588 57.9773C268.664 57.9773 271.157 60.7994 271.157 64.2799Z" fill="#DFDFDF" fill-opacity="0.38"/>
<path fill-rule="evenodd" clip-rule="evenodd" d="M304.572 64.2799C304.572 67.759 302.078 70.5811 299 70.5811C295.925 70.5811 293.434 67.759 293.434 64.2799C293.434 60.7994 295.925 57.9773 299 57.9773C302.078 57.9773 304.572 60.7994 304.572 64.2799Z" fill="#DFDFDF" fill-opacity="0.38"/>
<path fill-rule="evenodd" clip-rule="evenodd" d="M335.202 64.2799C335.202 67.759 332.711 70.5811 329.632 70.5811C326.557 70.5811 324.064 67.759 324.064 64.2799C324.064 60.7994 326.557 57.9773 329.632 57.9773C332.711 57.9773 335.202 60.7994 335.202 64.2799Z" fill="#DFDFDF" fill-opacity="0.38"/>
<path fill-rule="evenodd" clip-rule="evenodd" d="M207.112 92.0068C207.112 95.4872 204.619 98.3093 201.541 98.3093C198.467 98.3093 195.974 95.4872 195.974 92.0068C195.974 88.5277 198.467 85.7056 201.541 85.7056C204.619 85.7056 207.112 88.5277 207.112 92.0068Z" fill="#DFDFDF" fill-opacity="0.38"/>
<path fill-rule="evenodd" clip-rule="evenodd" d="M240.527 92.0068C240.527 95.4872 238.034 98.3093 234.956 98.3093C231.881 98.3093 229.388 95.4872 229.388 92.0068C229.388 88.5277 231.881 85.7056 234.956 85.7056C238.034 85.7056 240.527 88.5277 240.527 92.0068Z" fill="#DFDFDF" fill-opacity="0.38"/>
<path fill-rule="evenodd" clip-rule="evenodd" d="M271.157 92.0068C271.157 95.4872 268.664 98.3093 265.588 98.3093C262.511 98.3093 260.019 95.4872 260.019 92.0068C260.019 88.5277 262.511 85.7056 265.588 85.7056C268.664 85.7056 271.157 88.5277 271.157 92.0068Z" fill="#DFDFDF" fill-opacity="0.38"/>
<path fill-rule="evenodd" clip-rule="evenodd" d="M304.572 92.0068C304.572 95.4872 302.078 98.3093 299 98.3093C295.925 98.3093 293.434 95.4872 293.434 92.0068C293.434 88.5277 295.925 85.7056 299 85.7056C302.078 85.7056 304.572 88.5277 304.572 92.0068Z" fill="#DFDFDF" fill-opacity="0.38"/>
<path fill-rule="evenodd" clip-rule="evenodd" d="M335.202 92.0068C335.202 95.4872 332.711 98.3093 329.632 98.3093C326.557 98.3093 324.064 95.4872 324.064 92.0068C324.064 88.5277 326.557 85.7056 329.632 85.7056C332.711 85.7056 335.202 88.5277 335.202 92.0068Z" fill="#DFDFDF" fill-opacity="0.38"/>
<path fill-rule="evenodd" clip-rule="evenodd" d="M207.112 120.996C207.112 123.779 204.619 126.037 201.541 126.037C198.467 126.037 195.974 123.779 195.974 120.996C195.974 118.211 198.467 115.954 201.541 115.954C204.619 115.954 207.112 118.211 207.112 120.996Z" fill="#DFDFDF" fill-opacity="0.38"/>
<path fill-rule="evenodd" clip-rule="evenodd" d="M240.527 120.996C240.527 123.779 238.034 126.037 234.956 126.037C231.881 126.037 229.388 123.779 229.388 120.996C229.388 118.211 231.881 115.954 234.956 115.954C238.034 115.954 240.527 118.211 240.527 120.996Z" fill="#DFDFDF" fill-opacity="0.38"/>
<path fill-rule="evenodd" clip-rule="evenodd" d="M271.157 120.996C271.157 123.779 268.664 126.037 265.588 126.037C262.511 126.037 260.019 123.779 260.019 120.996C260.019 118.211 262.511 115.954 265.588 115.954C268.664 115.954 271.157 118.211 271.157 120.996Z" fill="#DFDFDF" fill-opacity="0.38"/>
<path fill-rule="evenodd" clip-rule="evenodd" d="M304.572 120.996C304.572 123.779 302.078 126.037 299 126.037C295.925 126.037 293.434 123.779 293.434 120.996C293.434 118.211 295.925 115.954 299 115.954C302.078 115.954 304.572 118.211 304.572 120.996Z" fill="#DFDFDF" fill-opacity="0.38"/>
<path fill-rule="evenodd" clip-rule="evenodd" d="M335.202 120.996C335.202 123.779 332.711 126.037 329.632 126.037C326.557 126.037 324.064 123.779 324.064 120.996C324.064 118.211 326.557 115.954 329.632 115.954C332.711 115.954 335.202 118.211 335.202 120.996Z" fill="#DFDFDF" fill-opacity="0.38"/>
<path fill-rule="evenodd" clip-rule="evenodd" d="M207.112 148.724C207.112 151.509 204.619 153.766 201.541 153.766C198.467 153.766 195.974 151.509 195.974 148.724C195.974 145.94 198.467 143.683 201.541 143.683C204.619 143.683 207.112 145.94 207.112 148.724Z" fill="#DFDFDF" fill-opacity="0.38"/>
<path fill-rule="evenodd" clip-rule="evenodd" d="M240.527 148.724C240.527 151.509 238.034 153.766 234.956 153.766C231.881 153.766 229.388 151.509 229.388 148.724C229.388 145.94 231.881 143.683 234.956 143.683C238.034 143.683 240.527 145.94 240.527 148.724Z" fill="#DFDFDF" fill-opacity="0.38"/>
<path fill-rule="evenodd" clip-rule="evenodd" d="M271.157 148.724C271.157 151.509 268.664 153.766 265.588 153.766C262.511 153.766 260.019 151.509 260.019 148.724C260.019 145.94 262.511 143.683 265.588 143.683C268.664 143.683 271.157 145.94 271.157 148.724Z" fill="#DFDFDF" fill-opacity="0.38"/>
<path fill-rule="evenodd" clip-rule="evenodd" d="M304.572 148.724C304.572 151.509 302.078 153.766 299 153.766C295.925 153.766 293.434 151.509 293.434 148.724C293.434 145.94 295.925 143.683 299 143.683C302.078 143.683 304.572 145.94 304.572 148.724Z" fill="#DFDFDF" fill-opacity="0.38"/>
<path fill-rule="evenodd" clip-rule="evenodd" d="M335.202 148.724C335.202 151.509 332.711 153.766 329.632 153.766C326.557 153.766 324.064 151.509 324.064 148.724C324.064 145.94 326.557 143.683 329.632 143.683C332.711 143.683 335.202 145.94 335.202 148.724Z" fill="#DFDFDF" fill-opacity="0.38"/>
</svg>
