<svg width="111" height="112" viewBox="0 0 111 112" fill="none" xmlns="http://www.w3.org/2000/svg">
<path d="M17.9614 89.8071H7.98285C6.39496 89.8071 4.87211 89.1763 3.7493 88.0535C2.62649 86.9307 1.9957 85.4079 1.9957 83.82V39.9142C1.9957 38.3264 2.62649 36.8035 3.7493 35.6807C4.87211 34.5579 6.39496 33.9271 7.98285 33.9271H17.9614V89.8071Z" fill="#ABBAC2"/>
<path d="M7.98291 89.8072H86.0022C90.1871 89.8072 94.2006 88.1447 97.1599 85.1855C100.119 82.2263 101.782 78.2128 101.782 74.0278V7.98287C101.782 6.39498 101.151 4.87213 100.028 3.74932C98.9051 2.62651 97.3823 1.99573 95.7944 1.99573H19.9572C18.3693 1.99573 16.8465 2.62651 15.7236 3.74932C14.6008 4.87213 13.9701 6.39498 13.9701 7.98287V83.82C13.9701 85.4079 13.3393 86.9308 12.2165 88.0536C11.0937 89.1764 9.5708 89.8072 7.98291 89.8072Z" fill="#FBFBFB"/>
<path d="M95.7945 1.99573H19.9574C18.3695 1.99573 16.8466 2.62651 15.7238 3.74932C14.601 4.87213 13.9702 6.39498 13.9702 7.98287V17.9614H101.782V7.98287C101.782 6.39498 101.151 4.87213 100.028 3.74932C98.9053 2.62651 97.3824 1.99573 95.7945 1.99573Z" fill="#4299FF"/>
<path d="M51.8884 41.9101C51.8883 39.6971 51.3625 37.5157 50.3543 35.5458C49.3461 33.5758 47.8842 31.8735 46.0893 30.5792C44.2943 29.2848 42.2175 28.4354 40.0299 28.1009C37.8423 27.7664 35.6066 27.9564 33.5068 28.6553L37.9184 41.9101L47.7972 51.7889C49.0963 50.493 50.1265 48.9531 50.8286 47.2577C51.5307 45.5624 51.8909 43.745 51.8884 41.9101Z" fill="#FFC119"/>
<path d="M33.507 28.6553C30.8851 29.5281 28.581 31.159 26.8861 33.3415C25.1912 35.524 24.1816 38.1602 23.9851 40.9166C23.7886 43.6729 24.4139 46.4257 25.7821 48.8266C27.1502 51.2275 29.1997 53.1687 31.6712 54.4047L37.9185 41.9101L33.507 28.6553Z" fill="#88BF40"/>
<path d="M31.6714 54.4047C34.2938 55.7164 37.2624 56.1696 40.1567 55.7001C43.0511 55.2306 45.7242 53.8622 47.7975 51.7888L37.9187 41.91L31.6714 54.4047Z" fill="#EF5249"/>
<path d="M94.3165 82.1349L107.603 103.138C108.169 104.033 108.356 105.115 108.123 106.148C107.891 107.181 107.258 108.079 106.363 108.644C105.469 109.21 104.386 109.397 103.354 109.165C102.322 108.932 101.424 108.299 100.858 107.405L87.9634 87.0211L94.3165 82.1349Z" fill="#E2DED8"/>
<path d="M81.8244 91.8056C93.9487 91.8056 103.777 81.977 103.777 69.8528C103.777 57.7285 93.9487 47.8999 81.8244 47.8999C69.7002 47.8999 59.8716 57.7285 59.8716 69.8528C59.8716 81.977 69.7002 91.8056 81.8244 91.8056Z" fill="#4299FF"/>
<path d="M81.8245 83.82C89.5399 83.82 95.7945 77.5654 95.7945 69.85C95.7945 62.1346 89.5399 55.88 81.8245 55.88C74.1091 55.88 67.8545 62.1346 67.8545 69.85C67.8545 77.5654 74.1091 83.82 81.8245 83.82Z" fill="white"/>
<path d="M81.8244 76.835C85.6821 76.835 88.8094 73.7077 88.8094 69.85C88.8094 65.9923 85.6821 62.865 81.8244 62.865C77.9666 62.865 74.8394 65.9923 74.8394 69.85C74.8394 73.7077 77.9666 76.835 81.8244 76.835Z" fill="#A1DBE8"/>
<path d="M88.9529 67.3947C89.721 66.6267 89.0984 64.7588 87.5623 63.2227C86.0262 61.6865 84.1583 61.0639 83.3902 61.832C82.6221 62.6 83.2448 64.4679 84.7809 66.004C86.317 67.5401 88.1849 68.1628 88.9529 67.3947Z" fill="#E9F0F1"/>
<path d="M103.777 49.8929V7.98286C103.775 5.8664 102.933 3.83731 101.436 2.34075C99.9399 0.844189 97.9108 0.002377 95.7943 0H19.9571C17.8407 0.002377 15.8116 0.844189 14.315 2.34075C12.8185 3.83731 11.9767 5.8664 11.9743 7.98286V31.9314H7.98286C5.8664 31.9338 3.83731 32.7756 2.34075 34.2722C0.844189 35.7688 0.002377 37.7978 0 39.9143V83.82C0.002377 85.9365 0.844189 87.9656 2.34075 89.4621C3.83731 90.9587 5.8664 91.8005 7.98286 91.8029H59.8715V87.8115H14.893C15.5971 86.5992 15.9672 85.2219 15.9657 83.82V19.9572H99.7858V49.8929H103.777ZM3.99143 83.82V39.9143C3.99268 38.8561 4.41361 37.8416 5.16188 37.0933C5.91014 36.3451 6.92465 35.9241 7.98286 35.9229H11.9743V83.82C11.9743 84.8786 11.5538 85.8939 10.8052 86.6424C10.0567 87.3909 9.04145 87.8115 7.98286 87.8115C6.92427 87.8115 5.90903 87.3909 5.16049 86.6424C4.41195 85.8939 3.99143 84.8786 3.99143 83.82ZM15.9657 15.9657V7.98286C15.967 6.92465 16.3879 5.91015 17.1362 5.16188C17.8844 4.41361 18.8989 3.99268 19.9571 3.99143H95.7943C96.8525 3.99268 97.867 4.41361 98.6153 5.16188C99.3636 5.91015 99.7845 6.92465 99.7858 7.98286V15.9657H15.9657Z" fill="#111111"/>
<path d="M95.3168 61.3184C93.6286 58.6518 91.1876 56.5457 88.3026 55.2662C85.4175 53.9867 82.2179 53.5913 79.1082 54.13C75.9984 54.6687 73.1182 56.1173 70.8317 58.2926C68.5451 60.468 66.9549 63.2725 66.262 66.3516C65.5691 69.4306 65.8046 72.646 66.9388 75.5912C68.0731 78.5363 70.055 81.0791 72.6342 82.8981C75.2134 84.717 78.274 85.7304 81.429 85.8101C84.584 85.8899 87.6919 85.0324 90.3597 83.3461C93.9343 81.0792 96.4638 77.4869 97.3931 73.3573C98.3224 69.2277 97.5757 64.8981 95.3168 61.3184ZM88.226 79.9734C86.2246 81.2396 83.8927 81.8839 81.5252 81.8249C79.1576 81.7658 76.8607 81.006 74.925 79.6415C72.9892 78.277 71.5016 76.3692 70.6501 74.1592C69.7987 71.9493 69.6217 69.5365 70.1415 67.2259C70.6614 64.9154 71.8547 62.8109 73.5706 61.1786C75.2865 59.5462 77.4479 58.4594 79.7816 58.0554C82.1152 57.6515 84.5161 57.9487 86.6809 58.9093C88.8456 59.8699 90.6768 61.4509 91.943 63.4523C93.6369 66.137 94.1969 69.3839 93.5001 72.4808C92.8032 75.5778 90.9065 78.272 88.226 79.9724V79.9734Z" fill="#111111"/>
<path d="M99.282 86.2508C103.26 82.0112 105.555 76.4667 105.737 70.6562C105.92 64.8457 103.978 59.1679 100.274 54.6868C96.5711 50.2057 91.3609 47.2286 85.62 46.3135C79.8792 45.3984 74.0016 46.608 69.0886 49.7157C64.1756 52.8234 60.5643 57.6159 58.9315 63.1952C57.2986 68.7746 57.7562 74.7578 60.2185 80.024C62.6807 85.2902 66.9788 89.4778 72.3072 91.8022C77.6356 94.1267 83.6288 94.4285 89.1637 92.6511L99.172 108.472C100.032 109.788 101.376 110.713 102.912 111.046C104.449 111.38 106.055 111.096 107.384 110.255C108.712 109.415 109.657 108.085 110.014 106.554C110.371 105.023 110.111 103.413 109.291 102.072L99.282 86.2508ZM64.9587 80.5221C62.8485 77.1864 61.7749 73.2998 61.8736 69.3539C61.9722 65.408 63.2388 61.5799 65.5131 58.3539C67.7874 55.1278 70.9672 52.6485 74.6505 51.2297C78.3338 49.8108 82.3552 49.516 86.206 50.3826C90.0569 51.2492 93.5643 53.2382 96.2847 56.0982C99.0051 58.9581 100.816 62.5605 101.489 66.4499C102.162 70.3392 101.667 74.3408 100.066 77.9486C98.4646 81.5564 95.8296 84.6084 92.4938 86.7185C88.0191 89.5421 82.6071 90.4755 77.445 89.3138C72.283 88.1522 67.7925 84.9904 64.9587 80.5221ZM106.177 105.71C106.09 106.095 105.891 106.445 105.605 106.717C105.319 106.988 104.959 107.169 104.571 107.236C104.182 107.304 103.782 107.254 103.422 107.094C103.061 106.934 102.756 106.671 102.545 106.338L92.8965 91.0857C93.4817 90.7801 94.06 90.4508 94.6278 90.0918C95.1955 89.7328 95.7421 89.3521 96.2692 88.9543L105.917 104.205C106.058 104.426 106.153 104.673 106.198 104.932C106.242 105.19 106.235 105.454 106.177 105.71Z" fill="#111111"/>
<path d="M19.957 7.98291H23.9485V11.9743H19.957V7.98291Z" fill="#111111"/>
<path d="M27.9399 7.98291H31.9314V11.9743H27.9399V7.98291Z" fill="#111111"/>
<path d="M35.9229 7.98291H39.9143V11.9743H35.9229V7.98291Z" fill="#111111"/>
<path d="M21.9526 95.7943H63.8627V99.7857H21.9526V95.7943Z" fill="#111111"/>
<path d="M67.8545 95.7943H71.8459V99.7857H67.8545V95.7943Z" fill="#111111"/>
<path d="M85.8156 29.9358V25.9443H59.8713C59.4972 25.9443 59.1307 26.0494 58.8136 26.2477L50.1494 31.6628C47.547 28.5725 43.8648 26.5898 39.8523 26.1182C35.8397 25.6466 31.7983 26.7216 28.5502 29.1243C25.3022 31.5271 23.0917 35.0771 22.3685 39.052C21.6452 43.0269 22.4637 47.1281 24.6572 50.5209C26.8508 53.9137 30.2546 56.3433 34.1761 57.3153C38.0976 58.2873 42.2421 57.7286 45.7663 55.753C49.2905 53.7774 51.9295 50.5332 53.1464 46.6807C54.3633 42.8281 54.0666 38.6567 52.3167 35.0151L60.4436 29.9358H85.8156ZM25.9441 41.9101C25.9459 39.7381 26.538 37.6074 27.657 35.7458C28.776 33.8842 30.3799 32.3618 32.2972 31.3412L35.7648 41.7566L30.8563 51.5718C29.3348 50.4617 28.0969 49.0081 27.2433 47.3291C26.3897 45.6502 25.9446 43.7935 25.9441 41.9101ZM34.4234 53.3627L38.4647 45.2801L44.851 51.6664C43.3595 52.7301 41.6434 53.4366 39.8352 53.7311C38.027 54.0256 36.1754 53.9002 34.4234 53.3647V53.3627ZM49.8927 41.9101C49.8946 44.3959 49.1182 46.82 47.6725 48.8422L39.6632 40.8324L36.0831 30.0765C38.0263 29.7758 40.0137 29.9587 41.8694 30.6089C43.7251 31.2591 45.3919 32.3567 46.7225 33.8045L42.8478 36.2263L44.9633 39.611L48.9028 37.1488C49.5569 38.6509 49.8939 40.2718 49.8927 41.9101Z" fill="#111111"/>
<path d="M89.8071 25.9443H93.7986V29.9358H89.8071V25.9443Z" fill="#111111"/>
<path d="M65.8584 33.9271H93.7984V37.9186H65.8584V33.9271Z" fill="#111111"/>
<path d="M27.9399 63.8629H31.9314V67.8543H27.9399V63.8629Z" fill="#111111"/>
<path d="M35.9229 63.8629H51.8886V67.8543H35.9229V63.8629Z" fill="#111111"/>
<path d="M23.9487 71.8457H47.8973V75.8371H23.9487V71.8457Z" fill="#111111"/>
</svg>
