<svg width="111" height="112" viewBox="0 0 111 112" fill="none" xmlns="http://www.w3.org/2000/svg">
<path d="M9.18115 99.1477V103.279C9.18115 107.082 19.0456 110.164 31.2139 110.164C43.3822 110.164 53.2467 107.082 53.2467 103.279V99.1477H9.18115Z" fill="#798B9B"/>
<path d="M1.83643 78.9508V93.6393C1.83643 98.7094 14.9891 102.82 31.2135 102.82C47.4378 102.82 60.5905 98.7094 60.5905 93.6393V78.9508H1.83643Z" fill="#F5F5F4"/>
<path d="M1.83643 64.2627V78.9512C1.83643 84.0213 14.9891 88.1315 31.2135 88.1315C47.4378 88.1315 60.5905 84.0213 60.5905 78.9512V64.2627H1.83643Z" fill="#798B9B"/>
<path d="M1.83643 49.5739V64.2624C1.83643 69.3324 14.9891 73.4427 31.2135 73.4427C47.4378 73.4427 60.5905 69.3324 60.5905 64.2624V49.5739H1.83643Z" fill="#F5F5F4"/>
<path d="M1.83643 34.885V49.5735C1.83643 54.6436 14.9891 58.7539 31.2135 58.7539C47.4378 58.7539 60.5905 54.6436 60.5905 49.5735V34.885H1.83643Z" fill="#798B9B"/>
<path d="M31.2135 44.0657C47.438 44.0657 60.5905 39.9556 60.5905 34.8854C60.5905 29.8152 47.438 25.7051 31.2135 25.7051C14.989 25.7051 1.83643 29.8152 1.83643 34.8854C1.83643 39.9556 14.989 44.0657 31.2135 44.0657Z" fill="#F5F5F4"/>
<path d="M86.2946 42.2295H95.4749C97.2463 42.2286 98.9983 41.8616 100.621 41.1514C102.244 40.4413 103.702 39.4034 104.905 38.1028C106.108 36.8022 107.028 35.2671 107.609 33.5938C108.191 31.9205 108.42 30.1451 108.282 28.3791C108.145 26.613 107.643 24.8945 106.81 23.3314C105.977 21.7682 104.83 20.3942 103.44 19.2955C102.051 18.1968 100.449 17.3972 98.7359 16.9469C97.0227 16.4966 95.235 16.4052 93.4848 16.6786C93.9695 13.5831 93.3068 10.4171 91.6214 7.77572C89.936 5.13438 87.3438 3.19959 84.3322 2.335C81.3206 1.47042 78.0969 1.73559 75.267 3.08067C72.4372 4.42576 70.196 6.75812 68.9649 9.63937C67.7251 9.23192 66.4128 9.09347 65.1153 9.23324C63.8178 9.37301 62.5651 9.78779 61.4405 10.4499C60.316 11.1121 59.3456 12.0063 58.5939 13.0731C57.8423 14.1399 57.3267 15.3546 57.0816 16.6364C53.8457 17.0606 50.8924 18.7 48.8211 21.222C46.7497 23.744 45.7155 26.9596 45.9282 30.2162C46.141 33.4728 47.5848 36.5265 49.9667 38.7576C52.3485 40.9887 55.49 42.2299 58.7536 42.2295H86.2946Z" fill="#4299FF"/>
<path d="M60.5903 84.4587H67.9346V91.803H60.5903V84.4587Z" fill="#798B9B"/>
<path d="M95.4777 14.6885C95.4773 11.4391 94.3996 8.28152 92.4132 5.70996C90.4268 3.1384 87.6439 1.29801 84.4999 0.476834C81.356 -0.344337 78.0285 -0.0999428 75.0383 1.17177C72.0481 2.44348 69.5639 4.67072 67.9746 7.50491C65.3502 7.05203 62.6506 7.56502 60.3752 8.94896C58.0998 10.3329 56.4027 12.4941 55.5979 15.0328C52.0627 15.8119 48.9397 17.8691 46.8282 20.8096C44.7167 23.7501 43.7655 27.3668 44.157 30.9656C44.5485 34.5645 46.2552 37.892 48.9496 40.3096C51.644 42.7273 55.1363 44.0648 58.7564 44.0656H69.7728V40.3934H58.7564C55.9594 40.3935 53.2672 39.3296 51.2259 37.4176C49.1846 35.5056 47.9471 32.8886 47.7645 30.0976C47.5819 27.3067 48.4678 24.5507 50.2426 22.389C52.0173 20.2273 54.5479 18.8216 57.321 18.4573C57.7046 18.4074 58.0627 18.2376 58.3441 17.9722C58.6255 17.7068 58.8159 17.3593 58.8881 16.9792C59.0844 15.9539 59.4971 14.9822 60.0985 14.1289C60.7 13.2756 61.4765 12.5604 62.3762 12.0309C63.2759 11.5013 64.2782 11.1697 65.3162 11.0581C66.3541 10.9465 67.404 11.0575 68.3957 11.3836C68.8322 11.527 69.3065 11.5015 69.7251 11.3122C70.1438 11.1229 70.4762 10.7836 70.6568 10.3611C71.6545 8.02735 73.4272 6.10957 75.6756 4.93191C77.9239 3.75425 80.5099 3.38894 82.9964 3.89774C85.483 4.40653 87.7176 5.75821 89.3227 7.72433C90.9277 9.69045 91.8048 12.1504 91.8055 14.6885C91.8054 15.2603 91.7612 15.8313 91.6733 16.3963C91.6289 16.6818 91.6525 16.9737 91.7421 17.2483C91.8318 17.523 91.985 17.7726 92.1893 17.9769C92.3936 18.1812 92.6432 18.3344 92.9178 18.424C93.1925 18.5137 93.4844 18.5373 93.7699 18.4928C95.27 18.2583 96.8024 18.3364 98.2709 18.7223C99.7394 19.1081 101.112 19.7934 102.303 20.735C103.494 21.6766 104.478 22.8543 105.192 24.1941C105.907 25.5339 106.336 27.0069 106.454 28.5206C106.572 30.0343 106.376 31.5561 105.878 32.9905C105.38 34.4248 104.591 35.7407 103.56 36.8556C102.53 37.9704 101.28 38.8602 99.8887 39.469C98.4978 40.0778 96.996 40.3926 95.4777 40.3934H86.2973V44.0656H95.4777C99.3733 44.0656 103.109 42.518 105.864 39.7634C108.619 37.0088 110.166 33.2727 110.166 29.377C110.166 25.4814 108.619 21.7453 105.864 18.9907C103.109 16.2361 99.3733 14.6885 95.4777 14.6885Z" fill="#111111"/>
<path d="M29.3774 49.5739H33.0496V53.246H29.3774V49.5739Z" fill="#111111"/>
<path d="M36.7222 49.5739H40.3943V53.246H36.7222V49.5739Z" fill="#111111"/>
<path d="M22.0332 49.5739H25.7053V53.246H22.0332V49.5739Z" fill="#111111"/>
<path d="M29.3774 64.2627H33.0496V67.9348H29.3774V64.2627Z" fill="#111111"/>
<path d="M36.7222 64.2627H40.3943V67.9348H36.7222V64.2627Z" fill="#111111"/>
<path d="M22.0332 64.2627H25.7053V67.9348H22.0332V64.2627Z" fill="#111111"/>
<path d="M29.3774 78.9508H33.0496V82.6229H29.3774V78.9508Z" fill="#111111"/>
<path d="M36.7222 78.9508H40.3943V82.6229H36.7222V78.9508Z" fill="#111111"/>
<path d="M22.0332 78.9508H25.7053V82.6229H22.0332V78.9508Z" fill="#111111"/>
<path d="M7.34426 100.988V103.279C7.34426 105.196 8.68757 107.9 15.0858 109.9C19.4198 111.254 25.1472 112 31.2131 112C37.279 112 43.0064 111.254 47.3404 109.9C53.7386 107.9 55.0819 105.196 55.0819 103.279V100.981C61.0751 98.5793 62.4262 95.7219 62.4262 93.6394H67.9344C68.4213 93.6394 68.8884 93.4459 69.2327 93.1016C69.577 92.7573 69.7705 92.2902 69.7705 91.8033V89.8114C72.3357 89.3745 74.664 88.0449 76.3439 86.0576C78.0238 84.0702 78.9471 81.5531 78.9508 78.9508V42.9901L85.7573 36.1836C85.9278 36.0131 86.063 35.8107 86.1553 35.5879C86.2476 35.3652 86.295 35.1264 86.295 34.8853V29.3771H82.6229V34.1249L78.9508 37.7971V20.1968H75.2786V34.1247L71.6065 30.4526V25.705H67.9344V31.2132C67.9344 31.4543 67.9819 31.693 68.0741 31.9158C68.1664 32.1386 68.3016 32.341 68.4721 32.5115L75.2786 39.318V78.9508C75.2766 80.5786 74.7347 82.1597 73.738 83.4466C72.7413 84.7335 71.3459 85.6535 69.7705 86.0626V84.459C69.7705 83.9721 69.577 83.5051 69.2327 83.1607C68.8884 82.8164 68.4213 82.623 67.9344 82.623H62.4262V47.7377H58.7541V49.5738C58.7541 52.137 49.2951 56.9181 31.2131 56.9181C13.1311 56.9181 3.67213 52.137 3.67213 49.5738V40.3623C5.14098 41.328 7.15193 42.2727 9.8918 43.1292C15.6137 44.9171 23.1854 45.9017 31.2131 45.9017C36.2453 45.9222 41.2695 45.5014 46.2282 44.6442L45.575 41.0306C40.8319 41.8491 36.0262 42.2503 31.2131 42.2296C13.1311 42.2296 3.67213 37.4484 3.67213 34.8853C3.67213 32.3221 13.1311 27.541 31.2131 27.541C34.2164 27.5374 37.2179 27.6867 40.2059 27.9886L40.5809 24.3357C37.4683 24.0211 34.3416 23.8653 31.2131 23.8689C23.1854 23.8689 15.6137 24.8535 9.8918 26.6414C1.71649 29.1965 0 32.5347 0 34.8853V93.6394C0 96.7255 2.86059 99.1834 7.34426 100.988ZM31.2131 108.328C17.8879 108.328 11.0164 104.789 11.0164 103.279V102.225C16.7187 103.834 23.9863 104.656 31.2131 104.656C38.726 104.656 45.839 103.793 51.4098 102.217V103.279C51.4098 104.789 44.5383 108.328 31.2131 108.328ZM58.7541 93.6394C58.7541 96.2025 49.2951 100.984 31.2131 100.984C13.1311 100.984 3.67213 96.2025 3.67213 93.6394V84.4287C9.22163 88.0816 20.2656 89.9672 31.2131 89.9672C39.2408 89.9672 46.8125 88.9826 52.5344 87.1948C55.2752 86.3382 57.2873 85.3936 58.7541 84.4278V93.6394ZM66.0983 86.2951V89.9672H62.4262V86.2951H66.0983ZM3.67213 55.0517C9.22163 58.7046 20.2656 60.5902 31.2131 60.5902C39.2408 60.5902 46.8125 59.6056 52.5344 57.8177C55.2752 56.9612 57.2873 56.0166 58.7541 55.0508V64.2623C58.7541 66.8255 49.2951 71.6066 31.2131 71.6066C13.1311 71.6066 3.67213 66.8255 3.67213 64.2623V55.0517ZM3.67213 69.7402C9.22163 73.3931 20.2656 75.2787 31.2131 75.2787C39.2408 75.2787 46.8125 74.2941 52.5344 72.5063C55.2752 71.6497 57.2873 70.7051 58.7541 69.7393V78.9508C58.7541 81.514 49.2951 86.2951 31.2131 86.2951C13.1311 86.2951 3.67213 81.514 3.67213 78.9508V69.7402Z" fill="#111111"/>
<path d="M29.3774 93.6394H33.0496V97.3115H29.3774V93.6394Z" fill="#111111"/>
<path d="M36.7222 93.6394H40.3943V97.3115H36.7222V93.6394Z" fill="#111111"/>
<path d="M22.0332 93.6394H25.7053V97.3115H22.0332V93.6394Z" fill="#111111"/>
<path d="M75.2793 12.8522H78.9514V16.5243H75.2793V12.8522Z" fill="#111111"/>
<path d="M67.9341 18.3605H71.6062V22.0326H67.9341V18.3605Z" fill="#111111"/>
<path d="M82.6235 22.0327H86.2957V25.7048H82.6235V22.0327Z" fill="#111111"/>
</svg>
