<svg width="80" height="60" viewBox="0 0 80 60" fill="none" xmlns="http://www.w3.org/2000/svg">
<path d="M9.84531 57.375H10.0524L10.1989 57.2286L13.1546 54.2728L14.0082 53.4192H12.8011H3.125H2.625V53.9192V56.875V57.375H3.125H9.84531ZM23.0573 57.375H23.2645L23.4109 57.2285L26.3665 54.2728L27.22 53.4192H26.013H17.2206H17.0135L16.8671 53.5657L13.9113 56.5214L13.0577 57.375H14.2648H23.0573ZM36.2692 57.375H36.4763L36.6228 57.2286L39.5786 54.2728L40.4321 53.4192H39.225H30.4327H30.2255L30.0791 53.5657L27.1233 56.5214L26.2698 57.375H27.4769H36.2692ZM49.4811 57.375H49.6882L49.8346 57.2286L52.7904 54.2728L53.644 53.4192H52.4369H43.6445H43.4374L43.291 53.5657L40.3352 56.5214L39.4816 57.375H40.6887H49.4811ZM62.6931 57.375H62.9002L63.0467 57.2285L66.0023 54.2728L66.8558 53.4192H65.6488H56.8564H56.6493L56.5029 53.5657L53.5471 56.5214L52.6935 57.375H53.9006H62.6931ZM76.875 57.375H77.375V56.875V53.9192V53.4192H76.875H70.0684H69.8613L69.7149 53.5657L66.7591 56.5214L65.9055 57.375H67.1127H76.875ZM76.875 51.2942H77.375V50.7942V3.125V2.625H76.875H3.125H2.625V3.125V10.7667V11.0221L2.83189 11.1718L39.7069 37.8537L40 38.0658L40.2931 37.8537L64.779 20.136C65.2541 19.7922 65.9186 19.8985 66.2627 20.3739C66.6068 20.8495 66.5003 21.5137 66.0249 21.8575L66.0249 21.8576L40.6229 40.2378C40.6229 40.2378 40.6229 40.2379 40.6228 40.2379C40.4369 40.3723 40.2186 40.4395 40 40.4395C39.7812 40.4395 39.563 40.3724 39.3772 40.2379L39.3772 40.2379L3.41811 14.2188L2.625 13.645V14.6239V43.2812V43.7812H3.125H15.4688C16.0555 43.7812 16.5312 44.257 16.5312 44.8438C16.5312 45.4305 16.0555 45.9062 15.4688 45.9062H3.125H2.625V46.4062V50.7942V51.2942H3.125H76.875ZM1.5625 0.5H78.4375C79.0242 0.5 79.5 0.975706 79.5 1.5625V58.4375C79.5 59.0243 79.0242 59.5 78.4375 59.5H1.5625C0.975797 59.5 0.5 59.0243 0.5 58.4375V1.5625C0.5 0.975706 0.975797 0.5 1.5625 0.5Z" fill="#4299FF" stroke="#4299FF"/>
<path d="M71.0465 16.7052C70.8496 16.5082 70.5736 16.3938 70.2954 16.3938C70.0173 16.3938 69.7413 16.5081 69.5444 16.7051C69.5443 16.7051 69.5443 16.7051 69.5443 16.7052M71.0465 16.7052L69.5443 16.7052M71.0465 16.7052C71.2435 16.9022 71.3579 17.1782 71.3579 17.4563C71.3579 17.7343 71.2435 18.0103 71.0465 18.2074M71.0465 16.7052V18.2074M69.5443 16.7052C69.3473 16.9023 69.2329 17.1783 69.2329 17.4563C69.2329 17.7344 69.3473 18.0104 69.5443 18.2074C69.7413 18.4044 70.0173 18.5188 70.2954 18.5188C70.5735 18.5188 70.8495 18.4045 71.0464 18.2075M69.5443 16.7052L71.0464 18.2075M71.0464 18.2075C71.0465 18.2075 71.0465 18.2075 71.0465 18.2074M71.0464 18.2075L71.0465 18.2074" fill="#4299FF" stroke="#4299FF"/>
<path d="M28.6218 17.0305C28.6218 10.7591 33.7247 5.65625 39.9959 5.65625C46.2672 5.65625 51.3701 10.7591 51.3701 17.0305V19.5338C51.3701 21.7548 49.5624 23.5625 47.3414 23.5625C45.1203 23.5625 43.3126 21.7548 43.3126 19.5338V16.7062C43.3126 14.6207 41.6167 12.925 39.5314 12.925C37.2735 12.925 35.4376 14.7611 35.4376 17.0187C35.4376 19.2764 37.2735 21.1125 39.5314 21.1125H41.4746C42.0613 21.1125 42.5371 21.5882 42.5371 22.175C42.5371 22.7618 42.0613 23.2375 41.4746 23.2375H39.5314C36.1028 23.2375 33.3126 20.4473 33.3126 17.0187C33.3126 13.5902 36.1028 10.8 39.5314 10.8C42.7876 10.8 45.4376 13.45 45.4376 16.7062V19.5338C45.4376 20.5841 46.2915 21.4373 47.3415 21.4373C48.3917 21.4373 49.2453 20.5838 49.2453 19.5336V17.0303C49.2453 11.9298 45.0966 7.78109 39.996 7.78109C34.8957 7.78109 30.747 11.93 30.747 17.0303V17.1883C30.747 22.2888 34.8957 26.4375 39.996 26.4375H47.5782C48.1649 26.4375 48.6407 26.9132 48.6407 27.5C48.6407 28.0868 48.1649 28.5625 47.5782 28.5625H39.996C33.7247 28.5625 28.6218 23.4596 28.6218 17.1884V17.0305Z" fill="#4299FF" stroke="#4299FF"/>
<path d="M22.3135 45.5949L22.3134 45.595C22.1166 45.7919 21.8407 45.9062 21.5625 45.9062C21.2844 45.9062 21.0085 45.7919 20.8113 45.5948C20.6143 45.3979 20.5 45.122 20.5 44.8438C20.5 44.5656 20.6144 44.2896 20.8114 44.0926C21.0083 43.8956 21.2844 43.7812 21.5625 43.7812C21.8407 43.7812 22.1166 43.8956 22.3134 44.0925L22.3136 44.0927C22.5106 44.2897 22.625 44.5656 22.625 44.8438C22.625 45.1218 22.5106 45.3978 22.3135 45.5949Z" fill="#4299FF" stroke="#4299FF"/>
</svg>
