<svg width="174" height="186" viewBox="0 0 174 186" fill="none" xmlns="http://www.w3.org/2000/svg">
<path fill-rule="evenodd" clip-rule="evenodd" d="M49.2639 50.6593C25.1721 75.9119 8.0185 112.023 33.9319 133.418C62.8724 157.304 122.566 151.759 153.426 106.692C173.152 77.9031 183.59 32.3895 161.74 6.86006C143.032 -14.9993 78.8205 19.6739 49.2639 50.6593Z" fill="#11A8F0"/>
<g clip-path="url(#clip0)">
<path d="M94.7991 157.878L94.7975 157.877L94.7944 157.876C94.7966 157.877 94.7983 157.877 94.7991 157.878ZM94.7991 157.878L94.7994 157.878L94.7991 157.878ZM95.0612 157.847L95.0525 157.85L95.0481 157.851L95.0398 157.854C95.029 157.858 95.0197 157.861 95.0118 157.863L94.9614 157.871C94.9458 157.874 94.9244 157.876 94.8969 157.877L94.8839 157.877C94.879 157.878 94.8744 157.878 94.8699 157.878C94.8585 157.877 94.8447 157.876 94.8282 157.874L94.795 157.869L94.7942 157.869L94.7899 157.868C94.7752 157.866 94.7614 157.863 94.7482 157.86C94.7473 157.86 94.7464 157.859 94.7455 157.859L94.7369 157.856L94.7283 157.853C94.7099 157.847 94.6911 157.84 94.6723 157.831C94.6611 157.826 94.6509 157.821 94.6416 157.816C94.6309 157.81 94.6189 157.803 94.6057 157.794L94.5933 157.785L94.5848 157.778L94.5762 157.772C94.5516 157.754 94.539 157.743 94.5343 157.738C94.5287 157.733 94.5231 157.727 94.5176 157.722C94.5118 157.716 94.5043 157.707 94.4948 157.696C94.4894 157.688 94.4815 157.677 94.4723 157.664C94.4571 157.643 94.4508 157.633 94.4492 157.63L94.4299 157.596L94.4092 157.563C94.4081 157.561 94.407 157.559 94.406 157.557L82.6089 136.32L82.6085 136.319C82.4723 136.074 82.5601 135.764 82.8069 135.627L82.8071 135.627C83.0539 135.49 83.3637 135.58 83.4987 135.823L84.6701 137.936L86.5272 136.391L85.2479 134.854C86.5272 136.391 86.5273 136.391 86.5276 136.391L86.5289 136.39L86.5341 136.385L86.5548 136.368L86.6364 136.3L86.9547 136.035L88.1627 135.03L92.4742 131.442C96.0422 128.472 100.8 124.512 105.557 120.55C110.314 116.589 115.071 112.626 118.638 109.651C120.422 108.163 121.909 106.922 122.95 106.051C123.47 105.616 123.88 105.272 124.161 105.036C124.3 104.918 124.411 104.825 124.487 104.76C124.524 104.728 124.559 104.699 124.586 104.675C124.598 104.665 124.619 104.646 124.641 104.626C124.649 104.619 124.677 104.593 124.71 104.56C124.731 104.539 124.787 104.479 124.823 104.438C124.909 104.328 125.273 103.464 125.24 102.662L125.238 102.654L125.235 102.645C125.165 102.373 125.33 102.095 125.602 102.026L125.602 102.025C125.874 101.956 126.153 102.12 126.223 102.393L128.16 101.895L126.223 102.392C126.233 102.432 127.458 107.254 124.234 116.537C121.003 125.838 113.286 139.677 95.3042 157.672L95.2891 157.686L95.2844 157.691L95.2831 157.692L95.2827 157.693L95.273 157.702L95.2719 157.704C95.2657 157.709 95.259 157.715 95.2519 157.722L95.2455 157.728L95.2391 157.734L95.2235 157.748L95.2133 157.758L95.2089 157.761L95.1865 157.778L95.1658 157.794L95.1658 157.794C95.1615 157.796 95.1562 157.8 95.1494 157.804L95.1356 157.812L95.1219 157.82C95.1196 157.821 95.1173 157.823 95.115 157.824C95.1014 157.831 95.0837 157.838 95.0612 157.847ZM94.415 157.575L94.3758 157.597C94.3725 157.594 94.3693 157.592 94.3662 157.589C94.366 157.589 94.3658 157.589 94.3657 157.589C94.3434 157.571 94.3267 157.559 94.3197 157.553L94.315 157.55C94.3144 157.549 94.3138 157.549 94.3132 157.549L94.3131 157.549L94.415 157.575ZM94.4157 157.575L94.4128 157.57L94.4157 157.575ZM93.3857 159.379C93.4075 159.395 93.4289 159.412 93.4517 159.428L93.3857 159.379ZM94.7998 157.882C94.7992 157.882 94.7993 157.882 94.7997 157.882L94.7998 157.882Z" fill="#FF6A48" stroke="#4E3699" stroke-width="4"/>
<path d="M48.6767 103.584L48.6771 103.583C48.814 103.337 48.7241 103.027 48.4805 102.892L46.3661 101.72L47.9133 99.8629L49.45 101.143C47.9133 99.8629 47.9134 99.8627 47.9137 99.8624L47.9148 99.8611L47.9191 99.8559L47.9363 99.8353L48.0042 99.7537L48.2693 99.4355L49.2755 98.2277L52.867 93.9168C55.8394 90.3493 59.8031 85.5927 63.7683 80.8363C67.7334 76.0801 71.7003 71.3237 74.6788 67.7569C76.1679 65.9736 77.4107 64.487 78.2828 63.4461C78.7186 62.9259 79.0632 62.5156 79.3 62.2348C79.3074 62.2261 79.3146 62.2175 79.3218 62.209L79.9038 59.9424C77.6741 59.8602 73.6021 60.1293 67.7671 62.1562C58.4665 65.387 44.6284 73.1052 26.6337 91.0864C26.625 91.0954 26.6158 91.1046 26.6063 91.1141C26.5956 91.1259 26.5827 91.1399 26.5682 91.1554L26.5592 91.1649L26.5592 91.1648L26.5477 91.177L26.5428 91.1834L26.537 91.1912L26.5327 91.1969L26.5124 91.2241L26.5103 91.2269C26.5085 91.23 26.5062 91.2337 26.5035 91.2383C26.4945 91.2539 26.4861 91.2681 26.4784 91.2807C26.4735 91.2911 26.4675 91.3049 26.4607 91.3232L26.4593 91.3272L26.4582 91.3304L26.454 91.3429C26.4461 91.3663 26.4414 91.3824 26.4388 91.3923C26.4384 91.3955 26.4379 91.3988 26.4374 91.4021L26.4357 91.4136L26.4339 91.425C26.4303 91.4474 26.4288 91.4662 26.4285 91.4797L26.4278 91.5086L26.4269 91.5247C26.4277 91.5351 26.4291 91.5482 26.4313 91.5644L26.4323 91.5725L26.4334 91.5806L26.4361 91.6003C26.4401 91.6227 26.4437 91.6384 26.4465 91.6488L26.4474 91.6514C26.4491 91.6565 26.4509 91.6622 26.4529 91.6685C26.4567 91.6798 26.4641 91.6993 26.4785 91.7292L26.4831 91.7386L26.4866 91.7461C26.4879 91.7484 26.4897 91.7516 26.4923 91.7559C26.497 91.7637 26.5038 91.7745 26.5134 91.7887L26.523 91.8017C26.5241 91.8031 26.5251 91.8045 26.5262 91.8058C26.5529 91.8411 26.5683 91.8578 26.5749 91.8646L26.5765 91.8662C26.5828 91.8724 26.5894 91.8788 26.5961 91.8855L26.5957 91.8859M48.6767 103.584L26.4944 91.7904C26.4894 91.786 26.4848 91.782 26.4805 91.7784C26.4757 91.7743 26.4713 91.7704 26.4671 91.767C26.4625 91.763 26.4583 91.7595 26.4547 91.7565C26.4535 91.7555 26.4524 91.7546 26.4514 91.7537C26.4507 91.7532 26.45 91.7526 26.4494 91.7521L26.4426 91.7465M48.6767 103.584C48.5403 103.83 48.2302 103.919 47.9839 103.782L47.9833 103.781L26.7705 91.9974M48.6767 103.584L26.7705 91.9974M26.5957 91.8859L26.5959 91.8861L26.6079 91.8945L26.6092 91.8955M26.5957 91.8859L26.5783 91.868C26.5845 91.8741 26.5943 91.8831 26.6092 91.8955M26.6092 91.8955C26.615 91.9002 26.6215 91.9055 26.6289 91.9113L26.6244 91.917L26.638 91.9323C26.638 91.9324 26.638 91.9324 26.6381 91.9324C26.6423 91.9371 26.6463 91.9418 26.6503 91.9463C26.6558 91.9526 26.661 91.9586 26.6659 91.9644C26.669 91.968 26.672 91.9715 26.6748 91.9749C26.6827 91.9842 26.6896 91.9925 26.6955 91.9998C26.6988 92.0038 26.7018 92.0076 26.7045 92.0109L26.7095 92.0172C26.7057 92.0124 26.7009 92.0066 26.6954 91.9999C26.6894 91.9927 26.6824 91.9844 26.6746 91.9753C26.6718 91.9719 26.6688 91.9684 26.6657 91.9649C26.6607 91.9591 26.6554 91.9531 26.6499 91.9469C26.6459 91.9424 26.6418 91.9378 26.6375 91.9332C26.6375 91.9331 26.6374 91.933 26.6373 91.9329C26.6329 91.9281 26.6283 91.9231 26.6236 91.918L26.5526 92.0083L26.3307 92.2905L25.3926 93.4835M26.6092 91.8955L26.627 91.9079L26.6459 91.9218C26.6609 91.9328 26.6715 91.9394 26.6781 91.9431L26.6972 91.954L26.7161 91.9654C26.725 91.9707 26.7336 91.976 26.7417 91.981C26.7509 91.9861 26.7605 91.9916 26.7705 91.9974M25.3926 93.4835L26.4418 92.1318L26.5044 92.0512L26.6149 91.9087C26.6134 91.907 26.6118 91.9053 26.6101 91.9036L26.5845 91.9279L25.9959 92.4855L25.8356 92.6458L25.1817 93.2996M25.3926 93.4835C25.32 93.4264 25.2494 93.3656 25.1817 93.2996M25.3926 93.4835C25.4147 93.5006 25.4377 93.5167 25.4608 93.5329L25.4609 93.533C25.5345 93.5871 25.6098 93.6363 25.6874 93.6805C25.6917 93.6831 25.6958 93.6859 25.6998 93.6888C25.705 93.6924 25.7102 93.696 25.7158 93.699L25.7626 93.7251C25.7633 93.7255 25.764 93.7258 25.7647 93.7261C25.7662 93.7269 25.7676 93.7276 25.7692 93.729L24.6965 92.6385C24.7486 92.7424 24.8097 92.8415 24.877 92.9388M25.1817 93.2996L25.7141 92.7538L25.7312 92.7363L25.6913 92.7741L25.1583 93.2791M25.1817 93.2996C25.178 93.2959 25.1738 93.2925 25.1697 93.2891C25.1657 93.2858 25.1617 93.2826 25.1583 93.2791M25.1583 93.2791L25.4381 92.9992L26.4847 91.9526L26.5724 91.8649C26.5534 91.8459 26.536 91.8293 26.521 91.8153L24.9259 93.0055M25.1583 93.2791C25.1549 93.2756 25.1523 93.2723 25.1497 93.269C25.1477 93.2664 25.1457 93.2639 25.1434 93.2613C25.0639 93.1798 24.9926 93.094 24.9259 93.0055M24.9259 93.0055L26.5138 91.8086C26.5134 91.8083 26.5131 91.808 26.5127 91.8077L24.877 92.9388M24.9259 93.0055C24.9094 92.9834 24.8932 92.9616 24.877 92.9388M24.877 92.9388L26.4939 91.7907C26.4829 91.7809 26.4734 91.7725 26.4657 91.766C26.4617 91.7625 26.458 91.7594 26.4546 91.7566C26.4535 91.7556 26.4524 91.7546 26.4513 91.7537C26.4478 91.7508 26.4448 91.7483 26.4426 91.7465M26.4426 91.7465C26.4423 91.7462 26.442 91.746 26.4417 91.7457L26.4426 91.7465ZM26.5144 91.8082C26.5141 91.8078 26.5137 91.8075 26.5134 91.8072L26.5144 91.8082Z" fill="#FF6A48" stroke="#4E3699" stroke-width="4"/>
<path d="M166.959 19.5351L166.959 19.5355C167.755 47.4811 156.823 72.491 133.234 96.0803C125.83 103.484 114.34 113.488 102.525 122.464C90.6639 131.475 78.6771 139.293 70.2446 142.489C70.0566 142.56 69.8447 142.514 69.7027 142.372L68.2885 143.787L69.7027 142.372L43.6276 116.298C43.4857 116.156 43.4402 115.945 43.5113 115.757C46.7067 107.324 54.5252 95.337 63.5367 83.4749C72.5119 71.6605 82.5161 60.1696 89.9197 52.7658C113.508 29.1775 138.518 18.2456 166.464 19.0404C166.735 19.0482 166.952 19.2657 166.959 19.5351Z" fill="white" stroke="#4E3699" stroke-width="4"/>
<path d="M48.1614 110.385L75.6153 137.839C73.757 138.805 72.0199 139.621 70.4268 140.268L45.7318 115.574C46.3792 113.981 47.1948 112.244 48.1614 110.385ZM71.1166 140.958L71.1166 140.958C71.1166 140.958 71.1166 140.958 71.1166 140.958Z" fill="#2E86DE" stroke="#4E3699" stroke-width="8"/>
<path d="M3.22152 182.78L3.22142 182.78C1.844 181.403 1.31518 178.566 3.33852 172.802L3.33853 172.802C4.73952 168.81 7.22257 163.77 10.7661 157.803L10.7661 157.803C16.8935 147.486 24.8155 136.801 28.2693 133.348L28.2695 133.347C31.5282 130.088 35.8521 128.297 40.461 128.297C45.07 128.297 49.3938 130.088 52.6528 133.347L52.6529 133.347C59.3738 140.068 59.374 151.009 52.6533 157.731C49.1981 161.185 38.5133 169.107 28.197 175.235C22.2297 178.778 17.1907 181.261 13.1989 182.663C7.43383 184.686 4.59813 184.157 3.22152 182.78Z" fill="#2E86DE" stroke="#4E3699" stroke-width="4"/>
<path d="M58.7998 127.201C57.8195 126.221 56.2305 126.221 55.2505 127.201L53.4763 128.975L57.0256 132.524L58.7998 130.75C59.7795 129.769 59.7795 128.181 58.7998 127.201Z" fill="#222F3E"/>
<path d="M49.3342 117.735C48.3542 116.755 46.7652 116.755 45.7848 117.735L44.011 119.509L47.5603 123.059L49.3342 121.284C50.3145 120.305 50.3145 118.716 49.3342 117.735Z" fill="#222F3E"/>
<path d="M87.5826 98.4178C85.3701 96.2063 84.1511 93.2643 84.1511 90.1361C84.1511 87.0073 85.3698 84.066 87.5823 81.8538C89.7938 79.6423 92.7351 78.4236 95.8636 78.423C98.9924 78.423 101.934 79.6413 104.146 81.8531C106.357 84.0653 107.576 87.0073 107.576 90.1355C107.577 93.2643 106.358 96.2063 104.145 98.4178C99.579 102.984 92.1496 102.984 87.5826 98.4178Z" fill="#54A0FF"/>
<path d="M115.98 70.0191C111.413 65.4528 111.413 58.0221 115.98 53.4558C120.547 48.8895 127.977 48.8895 132.543 53.4558C134.755 55.668 135.974 58.6093 135.975 61.7381C135.975 64.8663 134.756 67.8083 132.544 70.0204C127.978 74.5864 120.547 74.5864 115.98 70.0191Z" fill="#54A0FF"/>
<path d="M135.975 61.7379C135.974 58.6091 134.756 55.6677 132.543 53.4556C131.276 52.1891 129.788 51.2744 128.202 50.7106C128.644 51.955 128.875 53.2793 128.875 54.6386C128.875 57.7667 127.656 60.708 125.444 62.9202C122.147 66.217 117.358 67.1327 113.231 65.6688C113.795 67.2584 114.71 68.7497 115.98 70.0192C120.547 74.5865 127.978 74.5865 132.544 70.0205C134.756 67.808 135.975 64.866 135.975 61.7379Z" fill="#2E86DE"/>
<path d="M107.576 90.1355C107.576 87.0074 106.357 84.0661 104.145 81.8539C102.878 80.5867 101.39 79.6721 99.8044 79.1089C100.246 80.3527 100.477 81.677 100.477 83.0362C100.477 86.165 99.2588 89.1064 97.0462 91.3185C93.7494 94.6154 88.9603 95.5303 84.833 94.0671C85.3965 95.6561 86.3121 97.1474 87.5819 98.4175C92.1489 102.984 99.5796 102.984 104.146 98.4182C106.358 96.2053 107.576 93.264 107.576 90.1355Z" fill="#2E86DE"/>
<path d="M16.7485 169.252C14.7921 167.295 16.0434 164.184 17.5252 161.396C18.7448 159.103 20.6286 156.172 23.1239 152.682C27.3823 146.728 32.4622 140.523 33.9538 139.032C37.5421 135.443 43.3802 135.443 46.9685 139.032C50.5567 142.619 50.5567 148.458 46.9685 152.046C45.4765 153.538 39.2714 158.619 33.3187 162.876C29.8292 165.371 26.8977 167.255 24.604 168.475C21.8175 169.957 18.7052 171.208 16.7485 169.252Z" fill="#FECA57"/>
<path d="M166.464 19.0404L166.465 19.0404C166.734 19.0481 166.952 19.2652 166.959 19.5351L166.959 19.5354C167.206 28.2294 166.313 36.6211 164.274 44.7611L141.239 21.7258C149.379 19.6865 157.77 18.7934 166.464 19.0404Z" fill="#FFB829" stroke="#4E3699" stroke-width="4"/>
<path d="M71.9263 143.975C72.1115 143.9 72.297 143.823 72.4851 143.744C72.5657 143.71 72.6462 143.676 72.7274 143.642C72.9469 143.548 73.1677 143.452 73.3905 143.354C73.4325 143.335 73.4731 143.318 73.515 143.299C73.7724 143.185 74.0322 143.066 74.294 142.945C74.3854 142.903 74.4778 142.86 74.5693 142.817C74.7472 142.734 74.9267 142.649 75.107 142.563C75.2122 142.512 75.3185 142.462 75.4242 142.41C75.6073 142.322 75.7915 142.231 75.9764 142.14C76.0711 142.092 76.1652 142.047 76.2606 142C76.5161 141.872 76.7732 141.742 77.0323 141.609C77.1614 141.543 77.2917 141.474 77.4218 141.407C77.5687 141.33 77.7165 141.254 77.8648 141.175C78.01 141.099 78.1556 141.022 78.3018 140.943C78.4368 140.871 78.5724 140.799 78.7081 140.726C78.8609 140.644 79.0138 140.561 79.1682 140.477C79.2273 140.445 79.2874 140.411 79.3471 140.378C79.7135 140.177 80.0829 139.971 80.4559 139.761C80.5575 139.705 80.6585 139.647 80.7609 139.589C80.9483 139.483 81.1355 139.376 81.324 139.267C81.4161 139.214 81.5088 139.161 81.6009 139.107C81.7983 138.993 81.9957 138.878 82.1947 138.762L75.0951 131.663C70.9859 134.07 67.1689 136.003 63.8523 137.26C62.929 137.61 61.8863 137.386 61.1882 136.688L42.213 117.713L68.2879 143.787C68.986 144.485 70.0284 144.709 70.9519 144.36C71.1982 144.266 71.4487 144.168 71.7005 144.067C71.7758 144.036 71.8511 144.005 71.9263 143.975Z" fill="#222F3E"/>
</g>
<defs>
<clipPath id="clip0">
<rect y="17" width="169" height="169" fill="white"/>
</clipPath>
</defs>
</svg>
