<svg width="184" height="169" viewBox="0 0 184 169" fill="none" xmlns="http://www.w3.org/2000/svg">
<path fill-rule="evenodd" clip-rule="evenodd" d="M28.2639 64.6593C4.17205 89.9119 -12.9815 126.023 12.9319 147.418C41.8724 171.304 101.566 165.759 132.426 120.692C152.152 91.9031 162.59 46.3895 140.74 20.8601C122.032 -0.999331 57.8205 33.6739 28.2639 64.6593Z" fill="#11A8F0"/>
<g clip-path="url(#clip0)">
<path d="M107.594 165.152H45.8804C38.2995 165.152 32.1534 159.006 32.1534 151.425V17.5751C32.1534 9.99424 38.299 3.84814 45.8804 3.84814H107.594C115.175 3.84814 121.321 9.99377 121.321 17.5751V151.424C121.321 159.006 115.175 165.152 107.594 165.152Z" fill="white"/>
<path d="M107.594 168.688H45.8809C36.3616 168.688 28.6172 160.944 28.6172 151.425V17.5752C28.6172 8.0564 36.3616 0.312012 45.8809 0.312012H107.594C117.113 0.312012 124.857 8.0564 124.857 17.5752V151.424C124.857 160.944 117.113 168.688 107.594 168.688ZM45.8809 7.38429C40.2611 7.38429 35.6895 11.9559 35.6895 17.5752V151.424C35.6895 157.044 40.2611 161.615 45.8809 161.615H107.594C113.213 161.615 117.784 157.044 117.784 151.424V17.5752C117.784 11.9559 113.213 7.38429 107.594 7.38429H45.8809Z" fill="#4E3699"/>
<path d="M110.799 22.3854H42.6726V146.62H110.799V22.3854Z" fill="#80C9FF"/>
<path d="M110.801 22.3831L42.6735 146.616H110.801V22.3831Z" fill="#5AB0E5"/>
<path d="M84.1862 12.7662H72.3947C71.1495 12.7662 70.1406 13.7756 70.1406 15.0208C70.1406 16.2655 71.1495 17.2748 72.3947 17.2748H84.1862C85.4314 17.2748 86.4407 16.2655 86.4407 15.0208C86.4412 13.776 85.4314 12.7662 84.1862 12.7662Z" fill="#80C9FF"/>
<path d="M64.2463 17.7872C65.7749 17.7872 67.0141 16.548 67.0141 15.0194C67.0141 13.4908 65.7749 12.2516 64.2463 12.2516C62.7177 12.2516 61.4785 13.4908 61.4785 15.0194C61.4785 16.548 62.7177 17.7872 64.2463 17.7872Z" fill="#80C9FF"/>
<path d="M82.0526 149.956H71.4213C69.1659 149.956 67.3303 151.792 67.3303 154.048C67.3303 156.303 69.1659 158.139 71.4213 158.139H82.0526C84.3086 158.139 86.1437 156.303 86.1437 154.048C86.1437 151.792 84.3086 149.956 82.0526 149.956Z" fill="#80C9FF"/>
<path d="M18.5357 41.1492C16.5829 41.1492 15 42.7326 15 44.6854V60.5226C15 62.4754 16.5833 64.0582 18.5357 64.0582C20.4889 64.0582 22.0718 62.4749 22.0718 60.5226V44.6854C22.0718 42.7321 20.4885 41.1492 18.5357 41.1492Z" fill="#4E3699"/>
<path d="M18.5357 69.0796C16.5829 69.0796 15 70.663 15 72.6158V78.4424C15 80.3956 16.5833 81.9785 18.5357 81.9785C20.4889 81.9785 22.0718 80.3952 22.0718 78.4424V72.6158C22.0718 70.663 20.4885 69.0796 18.5357 69.0796Z" fill="#4E3699"/>
<path d="M18.5357 87.6819C16.5829 87.6819 15 89.2657 15 91.218V125.091C15 127.044 16.5833 128.627 18.5357 128.627C20.4889 128.627 22.0718 127.044 22.0718 125.091V91.218C22.0718 89.2648 20.4885 87.6819 18.5357 87.6819Z" fill="#4E3699"/>
<path d="M18.5357 133.711C16.5829 133.711 15 135.295 15 137.248V140.293C15 142.246 16.5833 143.829 18.5357 143.829C20.4889 143.829 22.0718 142.246 22.0718 140.293V137.248C22.0718 135.295 20.4885 133.711 18.5357 133.711Z" fill="#4E3699"/>
<g clip-path="url(#clip1)">
<path d="M143.596 120.401C143.223 119.581 142.79 118.748 142.273 117.852C141.954 117.299 141.246 117.109 140.693 117.428C140.14 117.748 139.95 118.455 140.269 119.008C140.749 119.839 141.149 120.609 141.491 121.361C141.686 121.786 142.105 122.038 142.544 122.038C142.705 122.038 142.868 122.004 143.024 121.933C143.605 121.668 143.861 120.982 143.596 120.401Z" fill="#4E3699"/>
<path d="M136.279 104.955C136.136 104.333 135.516 103.942 134.893 104.086C134.27 104.228 133.881 104.848 134.023 105.471C134.841 109.047 136.107 112.356 137.685 115.042C137.9 115.409 138.286 115.613 138.683 115.613C138.882 115.613 139.084 115.561 139.268 115.453C139.819 115.13 140.003 114.421 139.679 113.87C137.836 110.732 136.812 107.29 136.279 104.955Z" fill="#4E3699"/>
<path d="M135.865 100.389C135.865 98.7541 135.933 97.0258 136.429 95.4644C136.623 94.8559 136.286 94.2054 135.678 94.0118C135.069 93.8184 134.419 94.155 134.225 94.7638C133.633 96.6257 133.551 98.5677 133.551 100.389C133.551 101.028 134.069 101.546 134.708 101.546C135.347 101.546 135.865 101.028 135.865 100.389Z" fill="#4E3699"/>
<path d="M161.352 140.433C169.804 140.126 172.067 133.73 172.067 133.729C170.364 127.072 173.622 120.063 177.842 115.023C181.134 111.092 183.292 106.652 183.292 101.389C183.292 89.9481 173.469 80.6736 161.352 80.6736H161.66C149.543 80.6736 139.72 89.9481 139.72 101.389C139.72 105.31 141.045 109.099 143.162 112.405C144.9 115.12 146.897 117.533 148.327 120.451C150.323 124.524 151.598 129.186 150.768 133.73C150.768 133.73 153.742 140.187 161.66 140.433" fill="white"/>
<path d="M161.624 141.589C161.582 141.588 161.541 141.586 161.5 141.585C161.465 141.586 161.429 141.587 161.394 141.589L161.394 141.58C153.031 141.201 149.849 134.501 149.717 134.213L149.564 133.881L149.63 133.521C150.317 129.759 149.53 125.533 147.288 120.96C146.381 119.108 145.24 117.475 144.032 115.747C143.42 114.871 142.788 113.965 142.188 113.029C139.817 109.326 138.563 105.301 138.563 101.389C138.563 89.4256 148.758 79.675 161.352 79.5186V79.5168L161.66 79.5186C174.254 79.675 184.449 89.4258 184.449 101.389C184.449 106.466 182.578 111.169 178.729 115.765C176.411 118.533 171.232 125.797 173.188 133.443L173.275 133.783L173.158 134.115C173.056 134.404 170.57 141.142 161.624 141.579L161.624 141.589ZM151.973 133.542C152.631 134.729 155.414 138.99 161.496 139.269C167.932 138.958 170.319 134.777 170.854 133.632C170.117 130.42 170.382 126.976 171.642 123.387C172.735 120.276 174.572 117.127 176.955 114.281C180.441 110.118 182.135 105.901 182.135 101.389C182.135 90.6524 172.896 81.9083 161.506 81.8307C150.116 81.9085 140.877 90.6524 140.877 101.389C140.877 104.858 142.004 108.452 144.136 111.781C144.71 112.679 145.329 113.565 145.928 114.422C147.133 116.147 148.379 117.93 149.366 119.942C151.753 124.815 152.63 129.388 151.973 133.542Z" fill="#4E3699"/>
<path d="M171.742 133.151H151.269C149.937 133.151 148.846 132.06 148.846 130.728C148.846 129.395 149.937 128.304 151.269 128.304H171.742C173.075 128.304 174.166 129.395 174.166 130.728C174.166 132.06 173.075 133.151 171.742 133.151Z" fill="#FFB829"/>
<path d="M171.742 134.307H151.269C149.296 134.307 147.69 132.701 147.69 130.727C147.69 128.754 149.296 127.147 151.269 127.147H171.742C173.716 127.147 175.322 128.754 175.322 130.727C175.322 132.701 173.716 134.307 171.742 134.307ZM151.269 129.461C150.571 129.461 150.003 130.029 150.003 130.727C150.003 131.426 150.571 131.994 151.269 131.994H171.742C172.441 131.994 173.009 131.426 173.009 130.727C173.009 130.029 172.441 129.461 171.742 129.461H151.269Z" fill="#4E3699"/>
<path d="M170.681 137.997H152.331C150.998 137.997 149.908 136.907 149.908 135.574C149.908 134.241 150.998 133.151 152.331 133.151H170.681C172.014 133.151 173.104 134.241 173.104 135.574C173.104 136.907 172.014 137.997 170.681 137.997Z" fill="#FF6A48"/>
<path d="M170.681 139.154H152.331C150.357 139.154 148.751 137.548 148.751 135.574C148.751 133.6 150.357 131.994 152.331 131.994H170.681C172.655 131.994 174.261 133.6 174.261 135.574C174.261 137.548 172.655 139.154 170.681 139.154ZM152.331 134.307C151.633 134.307 151.064 134.875 151.064 135.574C151.064 136.272 151.632 136.84 152.331 136.84H170.681C171.38 136.84 171.948 136.272 171.948 135.574C171.948 134.875 171.38 134.307 170.681 134.307H152.331Z" fill="#4E3699"/>
<path d="M169.27 142.843H153.742C152.41 142.843 151.319 141.753 151.319 140.42C151.319 139.087 152.41 137.997 153.742 137.997H169.27C170.603 137.997 171.693 139.088 171.693 140.42C171.693 141.753 170.602 142.843 169.27 142.843Z" fill="#FFB829"/>
<path d="M169.27 144H153.742C151.768 144 150.162 142.394 150.162 140.42C150.162 138.446 151.768 136.84 153.742 136.84H169.27C171.244 136.84 172.85 138.446 172.85 140.42C172.85 142.394 171.244 144 169.27 144ZM153.742 139.154C153.044 139.154 152.476 139.722 152.476 140.42C152.476 141.119 153.044 141.687 153.742 141.687H169.27C169.968 141.687 170.536 141.119 170.536 140.42C170.536 139.722 169.968 139.154 169.27 139.154H153.742Z" fill="#4E3699"/>
<path d="M147.567 102.752C146.531 101.546 145.905 99.9775 145.905 98.2625C145.905 94.4571 148.99 91.3719 152.795 91.3719C152.937 91.3719 153.077 91.3762 153.216 91.3846L153.217 91.7469C153.217 89.7535 154.833 88.1375 156.827 88.1375C158.208 88.1375 159.408 88.9134 160.015 90.053H160.014V93.4408V111.032V116.319L159.901 116.451C159.32 116.892 158.596 117.153 157.811 117.153C155.901 117.153 154.353 115.606 154.353 113.696L154.508 114.721C153.934 115.203 153.193 115.494 152.384 115.494C150.559 115.494 149.079 114.014 149.079 112.189C149.079 111.505 149.287 110.869 149.643 110.341L149.693 110.242C147.961 109.384 146.77 107.599 146.77 105.535C146.77 102.635 149.12 100.285 152.02 100.285" fill="#80C9FF"/>
<path d="M161.148 89.8216C161.147 89.8178 161.146 89.8141 161.145 89.8103C161.138 89.7776 161.13 89.7451 161.12 89.7128C161.117 89.7035 161.113 89.6948 161.11 89.6856C161.101 89.6592 161.092 89.6328 161.081 89.6067C161.076 89.5944 161.07 89.5828 161.064 89.5709C161.055 89.5503 161.046 89.5295 161.036 89.5093C160.205 87.9499 158.593 86.981 156.827 86.981C154.728 86.981 152.944 88.3446 152.309 90.2318C148.1 90.4837 144.748 93.9897 144.748 98.2625C144.748 99.9159 145.259 101.523 146.197 102.867C145.823 103.68 145.613 104.583 145.613 105.535C145.613 107.595 146.579 109.474 148.191 110.67C148.015 111.153 147.922 111.666 147.922 112.189C147.922 114.649 149.924 116.651 152.384 116.651C152.95 116.651 153.507 116.539 154.027 116.333C154.862 117.527 156.246 118.31 157.811 118.31C158.827 118.31 159.792 117.986 160.6 117.371C160.69 117.303 160.766 117.225 160.829 117.139C161.04 116.929 161.171 116.639 161.171 116.319V90.0747C161.172 89.9906 161.165 89.9056 161.148 89.8216ZM155.51 113.696C155.51 113.057 154.992 112.54 154.353 112.54C153.714 112.54 153.197 113.058 153.197 113.696C153.197 113.855 153.205 114.011 153.22 114.166C152.957 114.277 152.673 114.337 152.384 114.337C151.199 114.337 150.236 113.374 150.236 112.189C150.236 111.759 150.362 111.344 150.602 110.989C150.646 110.924 150.682 110.855 150.712 110.785C150.717 110.775 150.724 110.766 150.729 110.756C151.012 110.184 150.778 109.49 150.206 109.206C148.8 108.509 147.926 107.102 147.926 105.535C147.926 103.278 149.763 101.441 152.02 101.441C152.659 101.441 153.176 100.923 153.176 100.285C153.176 99.6458 152.659 99.1281 152.02 99.1281C150.343 99.1281 148.815 99.7766 147.672 100.835C147.274 100.043 147.061 99.1626 147.061 98.2627C147.061 95.2402 149.412 92.7583 152.381 92.5452C152.592 92.7655 152.888 92.9036 153.217 92.9036C153.856 92.9036 154.374 92.3857 154.374 91.7471C154.374 90.3945 155.474 89.2942 156.826 89.2942C157.648 89.2942 158.403 89.7023 158.857 90.3732V115.745C158.536 115.91 158.18 115.997 157.81 115.997C156.542 115.997 155.51 114.965 155.51 113.696Z" fill="#4E3699"/>
<path d="M155.876 106.785C154.341 105.514 152.47 105.691 152.262 105.716C151.627 105.79 151.173 106.365 151.248 106.999C151.322 107.633 151.897 108.089 152.532 108.013C152.542 108.012 153.619 107.919 154.4 108.566C154.953 109.025 155.271 109.789 155.344 110.836C155.387 111.446 155.895 111.912 156.497 111.912C156.524 111.912 156.552 111.911 156.579 111.909C157.217 111.864 157.697 111.311 157.652 110.674C157.533 108.971 156.935 107.663 155.876 106.785Z" fill="#4E3699"/>
<path d="M156.987 92.5738C156.382 92.3683 155.726 92.6925 155.521 93.2973C154.569 96.1035 152.022 95.6113 151.728 95.5439C151.111 95.3968 150.488 95.7751 150.336 96.3933C150.184 97.0137 150.563 97.6399 151.184 97.7922C151.199 97.7959 151.695 97.9114 152.417 97.9114C153.973 97.9114 156.58 97.3764 157.711 94.0405C157.916 93.4356 157.592 92.779 156.987 92.5738Z" fill="#4E3699"/>
<path d="M169.65 104.177C173.476 104.177 176.578 101.239 176.578 97.6148C176.578 94.1645 173.767 91.3362 170.197 91.0723V91.6776C170.197 91.4332 170.17 91.1947 170.121 90.9642C169.772 89.3509 168.265 88.1375 166.46 88.1375C165.17 88.1375 164.032 88.7567 163.361 89.6983L163.179 90.053V93.4408V111.032V116.319L163.322 116.215C163.976 117.021 165.005 117.542 166.163 117.542C168.141 117.542 169.745 116.022 169.745 114.148L167.691 110.755C167.691 112.184 168.551 113.423 169.807 114.033C170.338 114.29 170.94 114.436 171.577 114.436C173.723 114.436 175.463 112.788 175.463 110.755C175.463 109.715 175.008 108.776 174.276 108.107L174.276 108.107C175.817 107.562 176.915 106.155 176.915 104.505C176.915 103.246 176.276 102.129 175.289 101.428" fill="#80C9FF"/>
<path d="M178.071 104.505C178.071 103.295 177.605 102.13 176.791 101.228C177.393 100.149 177.734 98.9198 177.734 97.615C177.734 93.8514 174.846 90.6406 171.032 90.0091C170.32 88.2186 168.507 86.9812 166.46 86.9812C164.843 86.9812 163.333 87.7458 162.419 89.0269C162.345 89.1307 162.292 89.2427 162.256 89.358C162.11 89.5519 162.022 89.792 162.022 90.0534V116.319C162.022 116.73 162.237 117.089 162.559 117.294C163.461 118.311 164.763 118.891 166.163 118.891C168.35 118.891 170.194 117.461 170.738 115.524C171.015 115.569 171.296 115.593 171.577 115.593C174.357 115.593 176.619 113.423 176.619 110.755C176.619 109.943 176.413 109.166 176.026 108.474C177.288 107.542 178.071 106.081 178.071 104.505ZM171.577 113.279C171.13 113.279 170.704 113.183 170.312 112.992C169.409 112.554 168.848 111.696 168.848 110.755C168.848 110.116 168.33 109.598 167.691 109.598C167.052 109.598 166.534 110.116 166.534 110.755C166.534 112.308 167.296 113.73 168.565 114.633C168.409 115.729 167.392 116.578 166.163 116.578C165.452 116.578 164.797 116.297 164.335 115.806V90.3296C164.819 89.6814 165.608 89.2943 166.46 89.2943C167.686 89.2943 168.751 90.0994 168.99 91.208C169.023 91.3614 169.04 91.5195 169.04 91.6776C169.04 92.3165 169.558 92.8342 170.196 92.8342C170.568 92.8342 170.898 92.6583 171.11 92.3854C173.594 92.9972 175.421 95.1351 175.421 97.6147C175.421 100.596 172.832 103.021 169.65 103.021C169.012 103.021 168.494 103.539 168.494 104.177C168.494 104.816 169.012 105.334 169.65 105.334C171.862 105.334 173.868 104.481 175.33 103.102C175.606 103.518 175.758 103.999 175.758 104.505C175.758 105.612 175.008 106.622 173.89 107.017C173.866 107.026 173.843 107.036 173.819 107.046C173.807 107.051 173.795 107.055 173.783 107.061C173.724 107.089 173.669 107.122 173.616 107.158C173.607 107.165 173.598 107.17 173.589 107.177C173.532 107.218 173.481 107.265 173.433 107.316C173.43 107.319 173.425 107.322 173.422 107.326C173.421 107.327 173.42 107.329 173.418 107.331C173.37 107.384 173.328 107.442 173.291 107.502C173.284 107.512 173.279 107.522 173.273 107.532C173.241 107.589 173.212 107.649 173.189 107.71C173.186 107.72 173.183 107.73 173.18 107.74C173.159 107.802 173.143 107.865 173.133 107.93C173.132 107.937 173.131 107.943 173.13 107.95C173.121 108.017 173.117 108.086 173.12 108.155C173.12 108.158 173.121 108.161 173.121 108.164C173.124 108.233 173.134 108.303 173.15 108.372C173.151 108.375 173.151 108.377 173.151 108.379C173.161 108.417 173.172 108.455 173.185 108.493C173.192 108.512 173.202 108.528 173.209 108.547C173.219 108.571 173.23 108.595 173.242 108.619C173.264 108.665 173.29 108.709 173.318 108.75C173.328 108.765 173.336 108.78 173.347 108.795C173.391 108.853 173.438 108.907 173.491 108.956C173.492 108.957 173.493 108.959 173.494 108.96C174.017 109.438 174.305 110.076 174.305 110.755C174.306 112.147 173.082 113.279 171.577 113.279Z" fill="#4E3699"/>
<path d="M170.726 99.8414C170.665 99.8414 170.604 99.8365 170.542 99.8268C166.042 99.1063 164.96 95.4605 165.016 93.6332C165.036 92.9946 165.573 92.4902 166.208 92.5129C166.844 92.5325 167.344 93.0623 167.328 93.6975C167.323 94.0377 167.383 96.9784 170.908 97.5424C171.538 97.6435 171.968 98.2367 171.867 98.8674C171.776 99.4363 171.284 99.8414 170.726 99.8414Z" fill="#4E3699"/>
<path d="M161.506 76.6745C160.867 76.6745 160.349 76.1566 160.349 75.5181V69.1566C160.349 68.5177 160.867 68 161.506 68C162.145 68 162.663 68.5179 162.663 69.1566V75.5181C162.663 76.1566 162.145 76.6745 161.506 76.6745Z" fill="#4E3699"/>
<path d="M144.478 79.5984C144.182 79.5984 143.886 79.4855 143.66 79.2597L139.162 74.7617C138.71 74.3098 138.71 73.5776 139.162 73.126C139.614 72.6742 140.346 72.6745 140.798 73.1257L145.296 77.6239C145.748 78.0756 145.748 78.808 145.296 79.2596C145.07 79.4853 144.774 79.5984 144.478 79.5984Z" fill="#4E3699"/>
<path d="M178.534 79.5984C178.238 79.5984 177.942 79.4855 177.716 79.2596C177.264 78.808 177.264 78.0756 177.716 77.6239L182.214 73.1257C182.666 72.6745 183.398 72.6742 183.85 73.126C184.302 73.5776 184.302 74.3098 183.85 74.7617L179.351 79.2597C179.126 79.4853 178.83 79.5984 178.534 79.5984Z" fill="#4E3699"/>
</g>
</g>
<defs>
<clipPath id="clip0">
<rect x="15" width="169" height="169" fill="white"/>
</clipPath>
<clipPath id="clip1">
<rect x="121" y="68" width="76" height="76" fill="white"/>
</clipPath>
</defs>
</svg>
