<svg width="189" height="170" viewBox="0 0 189 170" fill="none" xmlns="http://www.w3.org/2000/svg">
<path fill-rule="evenodd" clip-rule="evenodd" d="M28.2639 50.6593C4.17205 75.9119 -12.9815 112.023 12.9319 133.418C41.8724 157.304 101.566 151.759 132.426 106.692C152.152 77.9031 162.59 32.3895 140.74 6.86006C122.032 -14.9993 57.8205 19.6739 28.2639 50.6593Z" fill="#11A8F0"/>
<path d="M113.725 23.5474H22.7977V138.772H113.725V23.5474Z" fill="white"/>
<path d="M113.723 141.57H22.7977C21.2527 141.57 20 140.317 20 138.772V23.5467C20 22.0013 21.2531 20.7489 22.7977 20.7489H113.723C115.268 20.7489 116.521 22.0017 116.521 23.5467V138.772C116.521 140.318 115.268 141.57 113.723 141.57ZM25.5955 135.975H110.926V26.344H25.5955V135.975Z" fill="#4E3699"/>
<path d="M77.195 9.47192H59.3243V19.4416H77.195V9.47192Z" fill="#80C9FF"/>
<path d="M77.1957 22.2378H59.3243C57.7793 22.2378 56.527 20.9847 56.527 19.44V9.47001C56.527 7.92462 57.7797 6.67227 59.3243 6.67227H77.1954C78.7408 6.67227 79.9931 7.92499 79.9931 9.47001V19.4397C79.9935 20.9847 78.7408 22.2378 77.1957 22.2378ZM62.1225 16.6419H74.3984V12.2674H62.1225V16.6419Z" fill="#4E3699"/>
<path d="M86.7142 17.912H49.8088V27.7727H86.7142V17.912Z" fill="#FF6A48"/>
<path d="M86.7135 30.57H49.8074C48.262 30.57 47.0096 29.3173 47.0096 27.7723V17.912C47.0096 16.3666 48.2624 15.1143 49.8074 15.1143H86.7135C88.2589 15.1143 89.5112 16.367 89.5112 17.912V27.7727C89.5112 29.3177 88.2585 30.57 86.7135 30.57ZM52.6048 24.9749H83.9154V20.7098H52.6048V24.9749Z" fill="#4E3699"/>
<path d="M51.1983 40.3288H38.0806C36.5352 40.3288 35.2828 41.5815 35.2828 43.1265V56.2442C35.2828 57.7896 36.5356 59.0419 38.0806 59.0419H51.1983C52.7433 59.0419 53.9957 57.7892 53.9957 56.2442V43.1265C53.996 41.5811 52.7433 40.3288 51.1983 40.3288Z" fill="#FFB829"/>
<path d="M47.1814 54.7623C47.1732 54.7623 47.1655 54.7623 47.1574 54.7623C46.4068 54.7557 45.6907 54.4478 45.1693 53.9083L39.9696 48.525C38.8957 47.413 38.9267 45.6422 40.0383 44.5687C41.1498 43.4949 42.9218 43.5266 43.9941 44.6375L47.2165 47.9732L58.4374 36.7531C59.5297 35.66 61.302 35.6604 62.3936 36.7531C63.4863 37.8454 63.4863 39.617 62.3936 40.7097L49.1595 53.9434C48.6351 54.4678 47.923 54.7623 47.1814 54.7623Z" fill="#4E3699"/>
<path d="M51.1983 72.6105H38.0806C36.5352 72.6105 35.2828 73.8633 35.2828 75.4083V88.526C35.2828 90.071 36.5356 91.3237 38.0806 91.3237H51.1983C52.7433 91.3237 53.9957 90.0706 53.9957 88.526V75.4083C53.996 73.8633 52.7433 72.6105 51.1983 72.6105Z" fill="#FFB829"/>
<path d="M47.1814 87.0445C47.1732 87.0445 47.1647 87.0445 47.1574 87.0445C46.4068 87.0375 45.6907 86.73 45.1693 86.1901L39.9696 80.8068C38.8957 79.6952 38.9267 77.924 40.0383 76.8505C41.1498 75.777 42.9218 75.8085 43.9941 76.9196L47.2165 80.2554L58.4374 69.0349C59.5297 67.9422 61.302 67.9426 62.3936 69.0349C63.4863 70.1276 63.4863 71.8992 62.3936 72.9919L49.1595 86.2252C48.6351 86.7496 47.923 87.0445 47.1814 87.0445Z" fill="#4E3699"/>
<path d="M51.1983 104.893H38.0806C36.5352 104.893 35.2828 106.145 35.2828 107.69V120.808C35.2828 122.353 36.5356 123.605 38.0806 123.605H51.1983C52.7433 123.605 53.9957 122.353 53.9957 120.808V107.69C53.996 106.145 52.7433 104.893 51.1983 104.893Z" fill="#FFB829"/>
<path d="M47.1814 119.326C47.1732 119.326 47.1647 119.326 47.1574 119.326C46.4068 119.319 45.6907 119.011 45.1693 118.471L39.9696 113.088C38.8957 111.977 38.9267 110.206 40.0383 109.133C41.1498 108.058 42.9218 108.09 43.9941 109.201L47.2165 112.537L58.4374 101.316C59.5297 100.224 61.3016 100.224 62.394 101.317C63.4863 102.409 63.4863 104.18 62.3936 105.274L49.1595 118.507C48.6351 119.031 47.923 119.326 47.1814 119.326Z" fill="#4E3699"/>
<path d="M96.4159 52.4831H70.2152C68.6702 52.4831 67.4178 51.2304 67.4178 49.6853C67.4178 48.1403 68.6706 46.888 70.2152 46.888H96.4159C97.9609 46.888 99.2136 48.1407 99.2136 49.6853C99.2136 51.2307 97.9606 52.4831 96.4159 52.4831Z" fill="#D4CCF2"/>
<path d="M96.4159 84.7649H70.2152C68.6702 84.7649 67.4178 83.5121 67.4178 81.9675C67.4178 80.4221 68.6706 79.1698 70.2152 79.1698H96.4159C97.9609 79.1698 99.2136 80.4225 99.2136 81.9675C99.2136 83.5121 97.9606 84.7649 96.4159 84.7649Z" fill="#D4CCF2"/>
<path d="M96.4159 117.047H70.2152C68.6702 117.047 67.4178 115.794 67.4178 114.249C67.4178 112.704 68.6706 111.451 70.2152 111.451H96.4159C97.9609 111.451 99.2136 112.704 99.2136 114.249C99.2136 115.794 97.9606 117.047 96.4159 117.047Z" fill="#D4CCF2"/>
<path d="M162.909 138.223C162.452 138.223 161.989 138.111 161.561 137.875C160.208 137.129 159.715 135.427 160.461 134.074C161.65 131.916 162.704 129.656 163.593 127.356C164.442 125.158 165.156 122.883 165.713 120.594C166.079 119.093 167.592 118.174 169.093 118.539C170.595 118.904 171.515 120.418 171.149 121.919C170.535 124.442 169.749 126.95 168.812 129.372C167.834 131.906 166.672 134.397 165.362 136.775C164.851 137.7 163.895 138.223 162.909 138.223Z" fill="#4E3699"/>
<path d="M171.167 113.107C171.053 113.107 170.938 113.099 170.823 113.085C169.289 112.897 168.198 111.501 168.386 109.967C168.705 107.369 168.833 106.216 168.797 103.762C168.774 102.216 170.008 100.946 171.553 100.923C171.566 100.923 171.581 100.923 171.595 100.923C173.121 100.923 174.369 102.148 174.391 103.679C174.432 106.49 174.274 107.924 173.939 110.648C173.766 112.067 172.56 113.107 171.167 113.107Z" fill="#4E3699"/>
<path d="M110.677 164.327C110.642 164.327 110.607 164.327 110.573 164.325C107.246 164.204 103.907 163.804 100.65 163.137C99.136 162.826 98.1608 161.348 98.4712 159.834C98.7816 158.321 100.262 157.347 101.774 157.655C104.729 158.261 107.759 158.624 110.778 158.734C112.322 158.79 113.528 160.087 113.472 161.632C113.416 163.141 112.175 164.327 110.677 164.327Z" fill="#4E3699"/>
<path d="M121.28 164.287C119.896 164.287 118.693 163.261 118.51 161.851C118.31 160.319 119.389 158.915 120.922 158.715C123.622 158.363 126.312 157.806 128.918 157.06C131.765 156.246 134.568 155.191 137.252 153.922C139.374 152.919 141.455 151.767 143.434 150.498C145.335 149.279 147.179 147.93 148.916 146.488C150.705 145.002 152.417 143.388 154.004 141.69C155.06 140.561 156.83 140.502 157.959 141.557C159.088 142.612 159.147 144.383 158.091 145.512C156.344 147.381 154.459 149.158 152.49 150.793C150.578 152.381 148.547 153.866 146.453 155.209C144.273 156.607 141.981 157.876 139.642 158.981C136.685 160.379 133.595 161.542 130.457 162.44C127.585 163.262 124.62 163.875 121.646 164.263C121.523 164.28 121.4 164.287 121.28 164.287Z" fill="#4E3699"/>
<path d="M113.723 150.56C139.41 150.56 160.233 129.737 160.233 104.05C160.233 78.3639 139.41 57.5408 113.723 57.5408C88.0369 57.5408 67.2139 78.3639 67.2139 104.05C67.2139 129.737 88.0369 150.56 113.723 150.56Z" fill="#80C9FF"/>
<path d="M113.723 153.358C86.5346 153.358 64.415 131.239 64.415 104.05C64.415 76.8609 86.5346 54.7417 113.723 54.7417C140.911 54.7417 163.031 76.8609 163.031 104.05C163.031 131.239 140.911 153.358 113.723 153.358ZM113.723 60.3372C89.6198 60.3372 70.0105 79.9465 70.0105 104.05C70.0105 128.153 89.6195 147.762 113.723 147.762C137.827 147.762 157.436 128.153 157.436 104.05C157.436 79.9469 137.827 60.3372 113.723 60.3372Z" fill="#4E3699"/>
<path d="M113.723 134.751C130.679 134.751 144.424 121.006 144.424 104.05C144.424 87.0949 130.679 73.3496 113.723 73.3496C96.7677 73.3496 83.0225 87.0949 83.0225 104.05C83.0225 121.006 96.7677 134.751 113.723 134.751Z" fill="#FF6A48"/>
<path d="M113.723 137.55C95.2507 137.55 80.2225 122.522 80.2225 104.05C80.2225 85.5778 95.2507 70.5496 113.723 70.5496C132.196 70.5496 147.223 85.5778 147.223 104.05C147.223 122.522 132.196 137.55 113.723 137.55ZM113.723 76.1451C98.3363 76.1451 85.818 88.6634 85.818 104.05C85.818 119.437 98.3363 131.955 113.723 131.955C129.11 131.955 141.628 119.437 141.628 104.05C141.628 88.6634 129.11 76.1451 113.723 76.1451Z" fill="#4E3699"/>
<path d="M113.723 115.547C120.073 115.547 125.22 110.4 125.22 104.05C125.22 97.7012 120.073 92.5541 113.723 92.5541C107.374 92.5541 102.227 97.7012 102.227 104.05C102.227 110.4 107.374 115.547 113.723 115.547Z" fill="#FFB829"/>
<path d="M113.723 118.345C105.841 118.345 99.4276 111.933 99.4276 104.05C99.4276 96.1672 105.841 89.7539 113.723 89.7539C121.606 89.7539 128.019 96.1668 128.019 104.05C128.019 111.933 121.606 118.345 113.723 118.345ZM113.723 95.3494C108.926 95.3494 105.023 99.2528 105.023 104.05C105.023 108.847 108.926 112.75 113.723 112.75C118.52 112.75 122.423 108.847 122.423 104.05C122.423 99.2528 118.52 95.3494 113.723 95.3494Z" fill="#4E3699"/>
<path d="M170.96 60.6723L159.411 58.3624L157.101 46.8137L172.343 31.5712L174.654 43.1195L186.202 45.4298L170.96 60.6723Z" fill="#FF6A48"/>
<path d="M188.88 44.619C188.581 43.6316 187.763 42.8889 186.751 42.6867L177.031 40.7422L175.087 31.022C174.884 30.0102 174.141 29.1921 173.154 28.8931C172.166 28.5946 171.095 28.8636 170.364 29.5927L155.122 44.8352C154.461 45.4967 154.174 46.4449 154.357 47.3624L156.337 57.2623L111.745 102.072C110.652 103.164 110.652 104.935 111.745 106.028C112.291 106.575 113.007 106.848 113.723 106.848C114.44 106.848 115.155 106.575 115.702 106.028L160.15 61.3633L170.411 63.4161C170.594 63.4527 170.777 63.4704 170.959 63.4704C171.694 63.4704 172.408 63.1807 172.938 62.6508L188.18 47.4083C188.91 46.6784 189.179 45.6068 188.88 44.619ZM170.04 57.6355L161.788 55.9848L160.138 47.7335L170.625 37.2454L171.91 43.6686C172.132 44.7757 172.997 45.6415 174.105 45.8629L180.527 47.1477L170.04 57.6355Z" fill="#4E3699"/>
</svg>
