<svg width="111" height="119" viewBox="0 0 111 119" fill="none" xmlns="http://www.w3.org/2000/svg">
<path d="M72.8596 112.147H29.9336L35.864 98.3091L39.2542 90.402H63.5391L66.9293 98.3091L72.8596 112.147Z" fill="#ABBAC2"/>
<path d="M81.0484 108.193H21.7446C19.5611 108.193 17.791 109.963 17.791 112.147C17.791 114.33 19.5611 116.1 21.7446 116.1H81.0484C83.2319 116.1 85.002 114.33 85.002 112.147C85.002 109.963 83.2319 108.193 81.0484 108.193Z" fill="#F5F5F4"/>
<path d="M66.9291 98.3091H35.8638L39.254 90.402H63.5389L66.9291 98.3091Z" fill="#798B9B"/>
<path d="M92.909 17.2606H9.88373C5.51672 17.2606 1.97656 20.8008 1.97656 25.1678V86.4483C1.97656 90.8154 5.51672 94.3555 9.88373 94.3555H92.909C97.276 94.3555 100.816 90.8154 100.816 86.4483V25.1678C100.816 20.8008 97.276 17.2606 92.909 17.2606Z" fill="#FBFBFB"/>
<path d="M92.909 94.3556H9.88373C7.78662 94.3556 5.7754 93.5225 4.29252 92.0396C2.80964 90.5568 1.97656 88.5455 1.97656 86.4484V78.5413H100.816V86.4484C100.816 88.5455 99.9831 90.5568 98.5002 92.0396C97.0173 93.5225 95.0061 94.3556 92.909 94.3556Z" fill="#F5F5F4"/>
<path d="M103.44 25.069L108.193 20.9918C107.012 17.9214 107.009 17.9135 105.828 14.843L99.5685 15.0026L95.9934 11.2423L96.4723 4.99908L90.4523 2.32324L86.1386 6.86245L80.9496 6.73001L76.8724 1.97656L70.7236 4.34179L70.8832 10.6013L67.1229 14.1763L60.8797 13.6975C59.5436 16.7037 59.5402 16.7121 58.2039 19.7175L62.7431 24.0309C62.6902 26.1021 62.6635 27.1483 62.6106 29.22L57.8574 33.2971C59.0383 36.3676 59.0413 36.3755 60.2224 39.4459L66.4819 39.2863L70.0569 43.0486L69.5781 49.2918L75.5981 51.9677L79.9115 47.4285L85.1006 47.5609L89.1777 52.3143L95.3265 49.9491L95.1669 43.6896L98.9292 40.1146L105.172 40.5934C106.508 37.5872 106.512 37.5788 107.848 34.5734L103.307 30.258C103.361 28.1871 103.386 27.1409 103.44 25.069ZM87.3665 38.4308C85.1341 39.2894 82.6972 39.4668 80.364 38.9405C78.0308 38.4141 75.9061 37.2077 74.2586 35.4738C72.611 33.74 71.5146 31.5564 71.108 29.1994C70.7014 26.8424 71.0029 24.4178 71.9743 22.2321C72.9457 20.0464 74.5434 18.1979 76.5654 16.9203C78.5874 15.6426 80.9428 14.9933 83.3339 15.0543C85.7249 15.1153 88.0441 15.884 89.9983 17.2631C91.9525 18.6423 93.4538 20.5699 94.3124 22.8023C94.8827 24.2846 95.1554 25.8648 95.1149 27.4525C95.0745 29.0402 94.7217 30.6044 94.0767 32.0557C93.4317 33.5071 92.5071 34.8172 91.3558 35.9112C90.2044 37.0052 88.8489 37.8617 87.3665 38.4318V38.4308Z" fill="#4299FF"/>
<path d="M98.8396 76.5645H3.95358V25.1679C3.95535 23.5956 4.58072 22.0882 5.6925 20.9764C6.80428 19.8647 8.31167 19.2393 9.88396 19.2375H53.3734V15.2839H9.88396C7.26347 15.2869 4.75116 16.3292 2.8982 18.1821C1.04523 20.0351 0.00294308 22.5474 0 25.1679V86.4485C0.00294308 89.0689 1.04523 91.5813 2.8982 93.4342C4.75116 95.2872 7.26347 96.3295 9.88396 96.3324H34.5612L30.3252 106.216H21.7447C20.1719 106.216 18.6635 106.841 17.5513 107.953C16.4391 109.066 15.8143 110.574 15.8143 112.147C15.8143 113.72 16.4391 115.228 17.5513 116.34C18.6635 117.452 20.1719 118.077 21.7447 118.077H81.0485C82.6213 118.077 84.1297 117.452 85.2419 116.34C86.354 115.228 86.9789 113.72 86.9789 112.147C86.9789 110.574 86.354 109.066 85.2419 107.953C84.1297 106.841 82.6213 106.216 81.0485 106.216H72.468L68.2319 96.3324H92.9092C95.5297 96.3295 98.042 95.2872 99.895 93.4342C101.748 91.5813 102.79 89.0689 102.793 86.4485V52.843H98.8396V76.5645ZM83.0253 112.147C83.0247 112.671 82.8162 113.173 82.4456 113.544C82.075 113.915 81.5726 114.123 81.0485 114.124H21.7447C21.2204 114.124 20.7176 113.915 20.3469 113.545C19.9762 113.174 19.7679 112.671 19.7679 112.147C19.7679 111.622 19.9762 111.12 20.3469 110.749C20.7176 110.378 21.2204 110.17 21.7447 110.17H81.0485C81.5726 110.171 82.075 110.379 82.4456 110.75C82.8162 111.12 83.0247 111.623 83.0253 112.147ZM68.1667 106.216H34.6265L38.8625 96.3324H63.9307L68.1667 106.216ZM92.9092 92.3788H9.88396C8.31167 92.3771 6.80428 91.7517 5.6925 90.6399C4.58072 89.5281 3.95535 88.0207 3.95358 86.4485V80.5181H98.8396V86.4485C98.8378 88.0207 98.2125 89.5281 97.1007 90.6399C95.9889 91.7517 94.4815 92.3771 92.9092 92.3788Z" fill="black"/>
<path d="M49.4199 84.4716H53.3735V88.4251H49.4199V84.4716Z" fill="black"/>
<path d="M109.48 22.4947C109.79 22.229 110.01 21.8738 110.11 21.478C110.21 21.0822 110.185 20.6652 110.038 20.2842L107.673 14.1354C107.526 13.7544 107.266 13.4282 106.926 13.2014C106.587 12.9747 106.186 12.8586 105.777 12.869L100.396 13.0061L98.0317 10.5176L98.4441 5.15036C98.4753 4.74334 98.3798 4.33663 98.1706 3.98609C97.9614 3.63554 97.6488 3.35836 97.2758 3.19259L91.255 0.517004C90.882 0.351203 90.4668 0.304946 90.0664 0.384584C89.666 0.464223 89.3001 0.665852 89.019 0.961782L85.311 4.86397L81.879 4.7765L78.3749 0.689726C78.1092 0.379963 77.7541 0.160036 77.3584 0.0601369C76.9627 -0.0397625 76.5458 -0.0147372 76.1649 0.131777L70.0158 2.49676C69.6349 2.64331 69.3086 2.90419 69.0819 3.24358C68.8551 3.58297 68.739 3.98423 68.7494 4.39226L68.8866 9.77333L66.398 12.1383L61.0308 11.7257C60.6238 11.6944 60.2171 11.7899 59.8666 11.999C59.516 12.2082 59.2388 12.5207 59.073 12.8937L56.3975 18.9148C56.2317 19.2877 56.1855 19.7029 56.2651 20.1032C56.3448 20.5035 56.5464 20.8694 56.8422 21.1505L60.7444 24.8587L60.6567 28.2907L56.5704 31.7946C56.2605 32.0603 56.0405 32.4154 55.9405 32.8112C55.8406 33.2071 55.8656 33.6241 56.0122 34.0051L58.3772 40.1539C58.5249 40.534 58.7861 40.8595 59.1252 41.0861C59.4643 41.3126 59.865 41.4293 60.2727 41.4203L65.654 41.2832L68.0185 43.7717L67.6061 49.1389C67.5749 49.5459 67.6704 49.9527 67.8796 50.3032C68.0888 50.6537 68.4014 50.9309 68.7744 51.0967L74.7945 53.7723C75.1675 53.9381 75.5827 53.9843 75.9831 53.9047C76.3834 53.8251 76.7493 53.6234 77.0305 53.3275L80.7384 49.4253L84.1704 49.5128L87.6745 53.5996C87.9402 53.9093 88.2953 54.1292 88.691 54.2291C89.0867 54.329 89.5037 54.304 89.8846 54.1575L96.0336 51.7925C96.4146 51.646 96.7408 51.3851 96.9676 51.0457C97.1943 50.7063 97.3104 50.3051 97.3 49.897L97.1629 44.516L99.6514 42.151L105.019 42.5636C105.426 42.5949 105.833 42.4994 106.184 42.2902C106.534 42.0811 106.811 41.7686 106.977 41.3956L109.653 35.3755C109.818 35.0025 109.865 34.5874 109.785 34.1871C109.705 33.7868 109.504 33.4209 109.208 33.1398L105.306 29.4315L105.393 25.9996L109.48 22.4947ZM101.945 31.6913L105.473 35.0439L103.93 38.5142L99.0776 38.142C98.8018 38.1206 98.5246 38.1575 98.2639 38.2502C98.0032 38.3429 97.765 38.4894 97.5646 38.6802L93.8023 42.255C93.602 42.4455 93.4438 42.6758 93.3379 42.9312C93.2321 43.1865 93.1809 43.4612 93.1878 43.7376L93.3113 48.6025L89.7665 49.966L86.5986 46.2716C86.4186 46.0617 86.1965 45.8918 85.9467 45.7731C85.6968 45.6544 85.4249 45.5895 85.1484 45.5824L79.9593 45.45C79.9425 45.45 79.9257 45.45 79.9099 45.45C79.6418 45.45 79.3765 45.5045 79.1301 45.6102C78.8837 45.7159 78.6614 45.8707 78.4767 46.065L75.1243 49.5928L71.6556 48.0492L72.0277 43.1974C72.0489 42.9216 72.0119 42.6445 71.9193 42.3839C71.8266 42.1232 71.6803 41.885 71.4898 41.6844L67.9147 37.9219C67.7248 37.7208 67.4946 37.5622 67.2391 37.4563C66.9836 37.3504 66.7086 37.2998 66.4321 37.3076L61.5673 37.4311L60.2038 33.8862L63.8979 30.7187C64.1079 30.5386 64.2777 30.3165 64.3965 30.0667C64.5152 29.8169 64.5802 29.545 64.5873 29.2685L64.72 24.0794C64.7269 23.803 64.6758 23.5283 64.57 23.2729C64.4641 23.0175 64.3059 22.7872 64.1055 22.5968L60.5769 19.2456L62.1205 15.7751L66.9726 16.1473C67.2483 16.1681 67.5254 16.131 67.786 16.0383C68.0466 15.9456 68.2849 15.7994 68.4855 15.6091L72.2479 12.0343C72.4482 11.8438 72.6064 11.6135 72.7122 11.3581C72.8181 11.1027 72.8692 10.828 72.8624 10.5517L72.7389 5.68681L76.2837 4.32332L79.4515 8.0177C79.6315 8.22728 79.8534 8.39682 80.1028 8.5154C80.3523 8.63397 80.6239 8.69894 80.9 8.70611L86.0891 8.83856C86.3657 8.84725 86.6409 8.79697 86.8966 8.69106C87.1522 8.58514 87.3823 8.42602 87.5717 8.22427L90.9241 4.69644L94.3946 6.24007L94.0225 11.0919C94.0013 11.3676 94.0382 11.6448 94.1309 11.9054C94.2236 12.166 94.3699 12.4043 94.5604 12.6048L98.1354 16.3674C98.3255 16.5683 98.5557 16.7269 98.8112 16.8327C99.0667 16.9386 99.3416 16.9893 99.618 16.9817L104.483 16.8582L105.846 20.403L102.153 23.5691C101.943 23.7492 101.773 23.9713 101.654 24.2211C101.536 24.4709 101.471 24.7428 101.464 25.0193L101.331 30.2084C101.324 30.4848 101.375 30.7596 101.481 31.015C101.587 31.2704 101.745 31.5008 101.945 31.6913Z" fill="black"/>
<path d="M77.9741 14.0124C75.3768 15.0114 73.1341 16.7581 71.5295 19.0317C69.925 21.3053 69.0307 24.0037 68.9597 26.7855C68.8887 29.5674 69.6442 32.3079 71.1307 34.6604C72.6171 37.0129 74.7679 38.8718 77.3108 40.0019C79.8537 41.1321 82.6747 41.4829 85.417 41.0098C88.1593 40.5367 90.6997 39.2611 92.717 37.3443C94.7343 35.4274 96.1379 32.9554 96.7503 30.2408C97.3627 27.5262 97.1564 24.691 96.1574 22.0937C94.8143 18.6136 92.1456 15.8083 88.7368 14.2933C85.3279 12.7783 81.4573 12.6772 77.9741 14.0124ZM86.6574 36.5868C84.79 37.3053 82.7514 37.4538 80.7995 37.0136C78.8476 36.5734 77.0701 35.5643 75.6917 34.1139C74.3133 32.6635 73.396 30.8369 73.0557 28.8652C72.7154 26.8934 72.9675 24.865 73.78 23.0365C74.5925 21.208 75.929 19.6615 77.6204 18.5926C79.3119 17.5237 81.2823 16.9803 83.2826 17.0312C85.2828 17.0822 87.223 17.7251 88.8579 18.8787C90.4928 20.0323 91.7488 21.6449 92.4672 23.5123C93.4274 26.0168 93.355 28.7998 92.2659 31.2509C91.1767 33.702 89.1597 35.621 86.6574 36.5868Z" fill="black"/>
<path d="M19.1889 37.6076L14.6561 33.075L19.1889 28.5425L16.3932 25.7468L10.4628 31.6772C10.2792 31.8608 10.1336 32.0787 10.0343 32.3185C9.93492 32.5584 9.88379 32.8154 9.88379 33.075C9.88379 33.3346 9.93492 33.5917 10.0343 33.8316C10.1336 34.0714 10.2792 34.2893 10.4628 34.4729L16.3932 40.4033L19.1889 37.6076Z" fill="black"/>
<path d="M35.0032 40.4033L40.9336 34.4729C41.1171 34.2893 41.2628 34.0714 41.3621 33.8316C41.4615 33.5917 41.5126 33.3346 41.5126 33.075C41.5126 32.8154 41.4615 32.5584 41.3621 32.3185C41.2628 32.0787 41.1171 31.8608 40.9336 31.6772L35.0032 25.7468L32.2075 28.5425L36.7403 33.075L32.2075 37.6076L35.0032 40.4033Z" fill="black"/>
<path d="M21.8125 40.5234L25.7737 24.7113L29.6086 25.6721L25.6475 41.4842L21.8125 40.5234Z" fill="black"/>
<path d="M9.88379 44.9358H13.8374V48.8894H9.88379V44.9358Z" fill="black"/>
<path d="M17.791 44.9358H55.3501V48.8894H17.791V44.9358Z" fill="black"/>
<path d="M9.88379 52.8429H13.8374V56.7965H9.88379V52.8429Z" fill="black"/>
<path d="M17.791 52.8429H61.2804V56.7965H17.791V52.8429Z" fill="black"/>
<path d="M9.88379 60.7501H13.8374V64.7037H9.88379V60.7501Z" fill="black"/>
<path d="M17.791 60.7501H67.2108V64.7037H17.791V60.7501Z" fill="black"/>
<path d="M9.88379 68.6572H13.8374V72.6108H9.88379V68.6572Z" fill="black"/>
<path d="M17.791 68.6572H77.0948V72.6108H17.791V68.6572Z" fill="black"/>
<path d="M81.0483 68.6572H85.0019V72.6108H81.0483V68.6572Z" fill="black"/>
<path d="M79.0718 60.7501H83.0254V64.7037H79.0718V60.7501Z" fill="black"/>
<path d="M71.1646 60.7501H75.1181V64.7037H71.1646V60.7501Z" fill="black"/>
<path d="M88.9556 68.6572H92.9092V72.6108H88.9556V68.6572Z" fill="black"/>
</svg>
