<svg width="180" height="192" viewBox="0 0 180 192" fill="none" xmlns="http://www.w3.org/2000/svg">
<path fill-rule="evenodd" clip-rule="evenodd" d="M32.1565 57.0732C4.74665 85.5229 -14.7694 126.206 14.7129 150.31C47.6393 177.22 115.554 170.973 150.665 120.2C173.107 87.7663 184.983 36.4903 160.123 7.7286C138.84 -16.8984 65.7839 22.1648 32.1565 57.0732Z" fill="#11A8F0"/>
<path d="M168.05 50.2858H22.95V164.793H168.05V50.2858Z" fill="white"/>
<path d="M168.049 167.899H22.9504C21.2351 167.899 19.8444 166.508 19.8444 164.793V50.2854C19.8444 48.5697 21.2351 47.1793 22.9504 47.1793H168.049C169.765 47.1793 171.155 48.5701 171.155 50.2854V164.793C171.155 166.508 169.765 167.899 168.049 167.899ZM26.0565 161.687H164.942V53.3914H26.0565V161.687Z" fill="#4E3699"/>
<path d="M176.895 38.056H14.1049V50.1475H176.895V38.056Z" fill="#FF6A48"/>
<path d="M176.894 53.2532H14.1061C12.3904 53.2532 11 51.8624 11 50.1471V38.0556C11 36.3399 12.3904 34.9496 14.1061 34.9496H176.894C178.61 34.9496 180 36.3399 180 38.0556V50.1471C180 51.8624 178.609 53.2532 176.894 53.2532ZM17.2117 47.0411H173.787V41.1617H17.2117V47.0411Z" fill="#4E3699"/>
<path d="M153.579 89.5638C152.958 88.9431 152.067 88.6801 151.207 88.8631L136.924 91.9232C135.997 92.1217 135.253 92.8118 134.984 93.7209C134.716 94.63 134.966 95.6138 135.637 96.2846L139.104 99.7521L127.126 111.73L117.294 101.898C116.081 100.685 114.113 100.685 112.901 101.898L91.2504 123.549C90.0373 124.761 90.0373 126.728 91.2504 127.941C91.8568 128.548 92.6519 128.851 93.4469 128.851C94.242 128.851 95.0367 128.548 95.6435 127.941L115.097 108.487L124.93 118.319C126.142 119.531 128.11 119.531 129.322 118.318L143.497 104.144L146.858 107.506C147.351 107.998 148.012 108.265 148.688 108.265C148.933 108.265 149.18 108.23 149.421 108.158C150.331 107.89 151.02 107.145 151.219 106.218L154.28 91.9363C154.464 91.0776 154.2 90.1845 153.579 89.5638Z" fill="#4E3699"/>
<path d="M65.8013 75.7418C77.0091 75.7418 86.0951 84.8274 86.0951 96.0352C86.0951 107.243 77.0095 116.329 65.8013 116.329C54.5935 116.329 45.5079 107.243 45.5079 96.0352H65.8013V75.7418Z" fill="#80C9FF"/>
<path d="M65.8013 119.435C52.8987 119.435 42.4015 108.938 42.4015 96.0352C42.4015 94.3199 43.7923 92.9291 45.5075 92.9291H62.6948V75.7414C62.6948 74.0261 64.0856 72.6354 65.8009 72.6354C78.7035 72.6354 89.2007 83.1322 89.2007 96.0348C89.2007 108.937 78.7039 119.435 65.8013 119.435ZM48.895 99.1412C50.3613 107.141 57.3845 113.223 65.8013 113.223C75.2787 113.223 82.989 105.513 82.989 96.0352C82.989 87.618 76.9074 80.5952 68.9078 79.1289V96.0352C68.9078 97.7505 67.517 99.1412 65.8017 99.1412H48.895Z" fill="#4E3699"/>
<path d="M55.5908 66.4339V86.4544H35.4899C35.4899 75.3972 44.4536 66.4339 55.5104 66.4339H55.5908Z" fill="#FFB829"/>
<path d="M55.5908 89.5609H35.4895C33.7742 89.5609 32.3834 88.1702 32.3834 86.4549C32.3834 73.7029 42.7584 63.3279 55.5104 63.3279H55.5908C57.3061 63.3279 58.6969 64.7187 58.6969 66.4339V86.4545C58.6969 88.1702 57.3061 89.5609 55.5908 89.5609ZM38.8819 83.3488H52.4852V69.8112C45.6056 71.0588 40.1611 76.4807 38.8819 83.3488Z" fill="#4E3699"/>
<path d="M116.02 117.701C114.305 117.701 112.914 119.092 112.914 120.807V148.023C112.914 149.739 114.305 151.129 116.02 151.129C117.735 151.129 119.126 149.738 119.126 148.023V120.807C119.126 119.092 117.735 117.701 116.02 117.701Z" fill="#FFB829"/>
<path d="M135.046 121.103C133.331 121.103 131.94 122.494 131.94 124.209V148.023C131.94 149.739 133.331 151.129 135.046 151.129C136.761 151.129 138.152 149.738 138.152 148.023V124.209C138.152 122.494 136.761 121.103 135.046 121.103Z" fill="#FFB829"/>
<path d="M106.507 131.309C104.792 131.309 103.401 132.7 103.401 134.415V148.023C103.401 149.739 104.793 151.129 106.507 151.129C108.222 151.129 109.613 149.738 109.613 148.023V134.415C109.613 132.7 108.223 131.309 106.507 131.309Z" fill="#80C9FF"/>
<path d="M125.533 127.907C123.818 127.907 122.427 129.298 122.427 131.013V148.023C122.427 149.739 123.818 151.129 125.533 151.129C127.248 151.129 128.639 149.738 128.639 148.023V131.013C128.639 129.298 127.248 127.907 125.533 127.907Z" fill="#80C9FF"/>
<path d="M144.559 134.711C142.844 134.711 141.453 136.103 141.453 137.817V148.023C141.453 149.739 142.844 151.129 144.559 151.129C146.274 151.129 147.665 149.738 147.665 148.023V137.817C147.665 136.102 146.274 134.711 144.559 134.711Z" fill="#80C9FF"/>
<path d="M153.602 151.129H97.0161C95.3008 151.129 93.91 149.738 93.91 148.023C93.91 146.308 95.3008 144.917 97.0161 144.917H153.602C155.317 144.917 156.708 146.308 156.708 148.023C156.708 149.738 155.317 151.129 153.602 151.129Z" fill="#4E3699"/>
<path d="M80.2732 137.446H36.8331C35.1178 137.446 33.7271 136.055 33.7271 134.34C33.7271 132.624 35.1178 131.234 36.8331 131.234H80.2732C81.9884 131.234 83.3792 132.625 83.3792 134.34C83.3792 136.055 81.9884 137.446 80.2732 137.446Z" fill="#D4CCF2"/>
<path d="M80.2732 150.433H36.8331C35.1178 150.433 33.7271 149.042 33.7271 147.327C33.7271 145.611 35.1178 144.221 36.8331 144.221H80.2732C81.9884 144.221 83.3792 145.612 83.3792 147.327C83.3792 149.043 81.9884 150.433 80.2732 150.433Z" fill="#D4CCF2"/>
<path d="M152.823 69.823H102.665C100.95 69.823 99.5593 68.4322 99.5593 66.717C99.5593 65.0017 100.951 63.6109 102.665 63.6109H152.823C154.538 63.6109 155.929 65.0017 155.929 66.717C155.929 68.4322 154.537 69.823 152.823 69.823Z" fill="#D4CCF2"/>
<path d="M152.823 82.8096H102.665C100.95 82.8096 99.5593 81.4189 99.5593 79.7036C99.5593 77.9883 100.951 76.5975 102.665 76.5975H152.823C154.538 76.5975 155.929 77.9883 155.929 79.7036C155.929 81.4189 154.537 82.8096 152.823 82.8096Z" fill="#D4CCF2"/>
<path d="M62.4614 180.051H51.1166C49.4013 180.051 48.0105 178.66 48.0105 176.945C48.0105 175.23 49.4013 173.839 51.1166 173.839H62.4614C64.1767 173.839 65.5674 175.23 65.5674 176.945C65.5674 178.66 64.1767 180.051 62.4614 180.051Z" fill="#4E3699"/>
<path d="M78.989 180.051H73.6151C71.8998 180.051 70.509 178.66 70.509 176.945C70.509 175.23 71.8998 173.839 73.6151 173.839H78.989C80.7043 173.839 82.0951 175.23 82.0951 176.945C82.0951 178.66 80.7047 180.051 78.989 180.051Z" fill="#4E3699"/>
<path d="M142.123 180.051H90.7707C89.0554 180.051 87.6647 178.66 87.6647 176.945C87.6647 175.23 89.0554 173.839 90.7707 173.839H142.122C143.838 173.839 145.228 175.23 145.228 176.945C145.229 178.66 143.838 180.051 142.123 180.051Z" fill="#4E3699"/>
</svg>
